<?xml version="1.0" encoding="UTF-8"?>
<svg version="1.1" xmlns="http://www.w3.org/2000/svg" width="770" height="139">
<path d="M0 0 C4.03077889 3.15452261 4.03077889 3.15452261 4.875 6.25 C5 9 5 9 4.875 11.25 C3.6375 10.92 2.4 10.59 1.125 10.25 C-8.56823656 8.13150962 -18.41941354 8.14536829 -27.05859375 13.43359375 C-40.27784153 23.46885067 -42.48076988 45.2769977 -45.8125 60.5 C-45.96297791 61.18668762 -46.11345581 61.87337524 -46.26849365 62.58087158 C-50.04602266 78.63463135 -50.04602266 78.63463135 -51.25 95 C-51.23195313 96.00546875 -51.21390625 97.0109375 -51.1953125 98.046875 C-51.17210937 98.77390625 -51.14890625 99.5009375 -51.125 100.25 C-48.07941975 101.1825405 -46.66312277 101.50805233 -43.73828125 100.10546875 C-42.97902344 99.55503906 -42.21976563 99.00460938 -41.4375 98.4375 C-40.67050781 97.89480469 -39.90351563 97.35210937 -39.11328125 96.79296875 C-35.93515626 94.32664385 -34.87911249 92.98912017 -34.1953125 89.07421875 C-34.03933594 88.24599609 -33.88335937 87.41777344 -33.72265625 86.56445312 C-33.40983787 84.82585513 -33.10246173 83.08626833 -32.80078125 81.34570312 C-31.6348388 75.22687504 -30.15952056 71.3725921 -24.86328125 67.66796875 C-19.2891011 64.84048607 -14.40032447 62.81049905 -8.125 64.25 C-4.52762166 65.90845239 -0.94135043 67.61729914 0.875 71.25 C1.33349593 74.59047035 1.51268542 77.1205203 -0.18359375 80.125 C-6.10873908 87.57558924 -14.23435718 89.84515399 -23.125 92.25 C-23.38834982 95.88226411 -23.38834982 95.88226411 -21.8125 99 C-18.91994008 101.14263698 -15.89871115 101.65406516 -12.34765625 101.59375 C-4.66786046 100.40601357 4.07706716 96.54642322 8.875 90.25 C10.3432891 86.24603569 11.02600103 82.20363875 11.6875 78 C12.0628056 75.8270442 12.44402114 73.65509824 12.83203125 71.484375 C12.98647705 70.52756836 13.14092285 69.57076172 13.30004883 68.58496094 C13.875 66.25 13.875 66.25 15.875 64.25 C17.75 64.01953125 17.75 64.01953125 19.875 64.0625 C20.57625 64.06894531 21.2775 64.07539062 22 64.08203125 C23.875 64.25 23.875 64.25 25.875 65.25 C25.875 66.57 25.875 67.89 25.875 69.25 C26.74125 68.610625 27.6075 67.97125 28.5 67.3125 C31.89354832 65.23866491 33.93655875 64.42123658 37.875 64.25 C39.9453125 64.953125 39.9453125 64.953125 41.875 66.25 C42.921875 68.4140625 42.921875 68.4140625 43.625 70.875 C43.86734375 71.69226563 44.1096875 72.50953125 44.359375 73.3515625 C44.52953125 73.97804688 44.6996875 74.60453125 44.875 75.25 C50.69224724 75.89983962 50.69224724 75.89983962 55.5 73.0625 C56.28375 72.134375 57.0675 71.20625 57.875 70.25 C62.68317384 65.8220644 66.10204859 63.95769879 72.8046875 64.01953125 C76.22064431 64.39979814 79.42512437 65.80012437 81.875 68.25 C82.0625 70.6875 82.0625 70.6875 81.875 73.25 C81.215 73.91 80.555 74.57 79.875 75.25 C76.875 75.25 76.875 75.25 75.375 73.8125 C74.88 73.296875 74.385 72.78125 73.875 72.25 C70.98313214 70.91695302 70.98313214 70.91695302 68.6875 72.1875 C68.089375 72.538125 67.49125 72.88875 66.875 73.25 C67.10567352 77.22911816 67.49134564 78.86270335 70.34375 81.7421875 C71.3440625 82.52851562 72.344375 83.31484375 73.375 84.125 C79.6426314 89.56129408 79.6426314 89.56129408 80.3125 93.4375 C79.69245925 98.84071227 78.18220679 102.23898867 74.140625 105.76171875 C69.35295983 109.10350904 64.72393022 110.59697044 58.875 110.25 C54.4974507 109.38434315 50.95821939 108.01617957 47.3125 105.4375 C45.40168985 102.52974542 45.43003888 100.66136861 45.875 97.25 C46.535 96.59 47.195 95.93 47.875 95.25 C50.3125 95.3125 50.3125 95.3125 52.875 96.25 C54.5625 98.75 54.5625 98.75 55.875 101.25 C58.28045638 102.45272819 59.82496953 102.35071472 62.5 102.3125 C63.31726563 102.30347656 64.13453125 102.29445313 64.9765625 102.28515625 C65.60304688 102.27355469 66.22953125 102.26195313 66.875 102.25 C67.50389509 99.39578384 67.98854542 97.13189096 67.875 94.25 C65.87833267 91.58336666 65.87833267 91.58336666 62.875 89.25 C61.58367779 87.83087683 60.31348223 86.39230826 59.0625 84.9375 C58.45792969 84.24011719 57.85335938 83.54273437 57.23046875 82.82421875 C56.78316406 82.30472656 56.33585937 81.78523438 55.875 81.25 C54.39 81.745 54.39 81.745 52.875 82.25 C40.96794939 83.27394784 40.96794939 83.27394784 36.87890625 81.2734375 C34.43098611 78.9054198 33.57305567 76.484555 32.875 73.25 C31.61035994 73.88845906 30.36381577 74.56277373 29.125 75.25 C28.42890625 75.62125 27.7328125 75.9925 27.015625 76.375 C20.98178226 81.66011773 19.92708172 89.64017333 18.6875 97.1875 C18.36387053 99.07216574 18.03721682 100.95631555 17.70703125 102.83984375 C17.57014893 103.66347412 17.4332666 104.48710449 17.29223633 105.33569336 C16.875 107.25 16.875 107.25 15.875 108.25 C14.35571962 108.32179964 12.83332518 108.33392007 11.3125 108.3125 C10.07306641 108.29896484 10.07306641 108.29896484 8.80859375 108.28515625 C7.85146484 108.26775391 7.85146484 108.26775391 6.875 108.25 C6.875 105.94 6.875 103.63 6.875 101.25 C6.08996094 101.65992187 5.30492187 102.06984375 4.49609375 102.4921875 C-4.28912817 106.9979823 -12.07253035 110.55571985 -22.125 109.25 C-26.67266355 107.66650823 -30.32856852 105.16840217 -34.125 102.25 C-34.81207031 102.67152344 -35.49914062 103.09304687 -36.20703125 103.52734375 C-37.10808594 104.07519531 -38.00914062 104.62304688 -38.9375 105.1875 C-39.83082031 105.73277344 -40.72414063 106.27804688 -41.64453125 106.83984375 C-46.04695749 109.3426404 -50.14183127 109.79610068 -55.125 109.25 C-58.93179833 107.55808963 -60.72940905 105.57225221 -63.125 102.25 C-63.95644531 102.88228516 -63.95644531 102.88228516 -64.8046875 103.52734375 C-65.52914062 104.07519531 -66.25359375 104.62304688 -67 105.1875 C-67.71929687 105.73277344 -68.43859375 106.27804688 -69.1796875 106.83984375 C-72.44635529 109.20784992 -74.94642027 109.63907722 -79.015625 109.609375 C-82.75853499 108.97169404 -84.54686536 106.95704137 -87.125 104.25 C-87.125 103.59 -87.125 102.93 -87.125 102.25 C-88.176875 103.03375 -89.22875 103.8175 -90.3125 104.625 C-95.24534471 108.30045292 -99.46352737 109.55302018 -105.625 109.625 C-106.7284375 109.65335937 -107.831875 109.68171875 -108.96875 109.7109375 C-112.97913261 109.12526281 -114.4935146 108.34866941 -117.125 105.25 C-119.15775272 98.84267306 -117.67792757 93.08014496 -115.6875 86.875 C-115.20648751 85.3056489 -114.72848896 83.73536997 -114.25390625 82.1640625 C-113.93015015 81.1423999 -113.93015015 81.1423999 -113.59985352 80.10009766 C-113.00069701 78.08404177 -113.00069701 78.08404177 -113.125 75.25 C-125.13723507 85.29184869 -129.84078133 93.04191256 -132.125 108.25 C-135.425 108.25 -138.725 108.25 -142.125 108.25 C-142.455 107.26 -142.785 106.27 -143.125 105.25 C-143.62128906 105.53875 -144.11757813 105.8275 -144.62890625 106.125 C-149.27986952 108.66670289 -152.70449939 110.05303713 -158.125 109.25 C-161.82890021 107.22333762 -163.77863011 105.76955484 -166.125 102.25 C-166.8675 103.03375 -167.61 103.8175 -168.375 104.625 C-171.66978407 107.77002115 -173.47446282 108.99324977 -177.9375 109.6875 C-182.13176768 109.1118162 -185.36460372 107.5198909 -188.125 104.25 C-189.55089464 99.39348758 -188.78708093 95.20379794 -187.6875 90.375 C-187.53990234 89.68664062 -187.39230469 88.99828125 -187.24023438 88.2890625 C-186.87817961 86.60725971 -186.50293884 84.92830466 -186.125 83.25 C-186.67027344 83.40597656 -187.21554687 83.56195313 -187.77734375 83.72265625 C-193.62865352 85.23299433 -198.16074987 85.19670637 -204.125 84.25 C-204.17398438 84.97445312 -204.22296875 85.69890625 -204.2734375 86.4453125 C-205.31106055 99.86285195 -205.31106055 99.86285195 -210.4375 104.5 C-215.73031279 108.64314444 -219.99075651 109.71575208 -226.69140625 109.56640625 C-231.54831471 108.93493019 -234.23098287 106.21650501 -237.4375 102.75 C-239.67469284 99.43564024 -240.36587205 97.56419793 -239.63671875 93.5859375 C-239.22873047 92.12027344 -239.22873047 92.12027344 -238.8125 90.625 C-237.53292864 85.87313728 -236.48827997 81.15702385 -235.65234375 76.30859375 C-235.125 74.25 -235.125 74.25 -233.125 71.25 C-232.465 71.25 -231.805 71.25 -231.125 71.25 C-231.125 70.59 -231.125 69.93 -231.125 69.25 C-225.73040561 66.16532502 -221.33488129 64.69356295 -215.125 64.25 C-214.63 62.765 -214.63 62.765 -214.125 61.25 C-211.155 61.25 -208.185 61.25 -205.125 61.25 C-205.14820313 61.92546875 -205.17140625 62.6009375 -205.1953125 63.296875 C-205.21335937 64.18890625 -205.23140625 65.0809375 -205.25 66 C-205.27320313 66.88171875 -205.29640625 67.7634375 -205.3203125 68.671875 C-205.10947555 71.45492278 -204.70802466 72.96009012 -203.125 75.25 C-200.01349943 77.41095424 -197.28976249 77.52028442 -193.5625 77.5 C-192.13744141 77.50773437 -192.13744141 77.50773437 -190.68359375 77.515625 C-187.88400727 77.42576075 -187.88400727 77.42576075 -185.125 75.25 C-184.32701782 72.83392583 -184.32701782 72.83392583 -183.9375 70.125 C-183.77894531 69.21492188 -183.62039063 68.30484375 -183.45703125 67.3671875 C-183.34746094 66.66851562 -183.23789062 65.96984375 -183.125 65.25 C-179.59781736 64.10885267 -178.38942942 64.12688114 -174.9453125 65.73046875 C-174.01460938 66.23191406 -173.08390625 66.73335938 -172.125 67.25 C-172.31723145 68.10754883 -172.50946289 68.96509766 -172.70751953 69.84863281 C-173.41542374 73.03700917 -174.1109663 76.22757141 -174.79833984 79.42041016 C-175.09812449 80.80071589 -175.40277251 82.17997481 -175.71240234 83.55810547 C-176.15710178 85.54137916 -176.58406951 87.52778248 -177.0078125 89.515625 C-177.26965332 90.70961914 -177.53149414 91.90361328 -177.80126953 93.13378906 C-178.13687264 96.36428534 -177.91626605 97.60602263 -176.125 100.25 C-173.01392325 99.74354564 -170.81752641 99.13489486 -168.82421875 96.58789062 C-165.12907676 90.05820161 -163.40811309 83.48353559 -161.8125 76.1875 C-161.41708008 74.45983398 -161.41708008 74.45983398 -161.01367188 72.69726562 C-160.37165678 69.88407221 -159.74245279 67.06866719 -159.125 64.25 C-152.375 65.125 -152.375 65.125 -150.125 66.25 C-150.83160828 74.22810045 -152.55562134 81.75639651 -154.484375 89.51757812 C-154.70867187 90.45666016 -154.93296875 91.39574219 -155.1640625 92.36328125 C-155.37240723 93.20673096 -155.58075195 94.05018066 -155.79541016 94.91918945 C-156.14093346 97.3626791 -155.89317477 98.92571881 -155.125 101.25 C-150.0608577 101.86757833 -147.58416281 100.61209178 -143.640625 97.734375 C-140.49853954 94.6570748 -139.71651785 90.95908761 -138.87109375 86.75 C-138.54915039 85.1721875 -138.54915039 85.1721875 -138.22070312 83.5625 C-138.00349609 82.469375 -137.78628906 81.37625 -137.5625 80.25 C-137.12428796 78.08321392 -136.68550891 75.91654241 -136.24609375 73.75 C-136.0545874 72.7909375 -135.86308105 71.831875 -135.66577148 70.84375 C-135.20392021 68.62853195 -134.69344943 66.43986991 -134.125 64.25 C-127.5 64 -127.5 64 -124.125 66.25 C-124.785 70.21 -125.445 74.17 -126.125 78.25 C-125.47273438 77.57453125 -124.82046875 76.8990625 -124.1484375 76.203125 C-114.09040814 65.93740772 -114.09040814 65.93740772 -110.125 64.25 C-106.98867902 64.54030409 -104.11183912 65.2676618 -101.125 66.25 C-100.10257937 70.12171115 -100.22101294 72.64936586 -101.3046875 76.48828125 C-101.70880859 77.96651367 -101.70880859 77.96651367 -102.12109375 79.47460938 C-102.41113281 80.49361328 -102.70117188 81.51261719 -103 82.5625 C-104.84158628 89.13418804 -106.49071049 95.4435856 -107.125 102.25 C-101.10403055 103.0186344 -98.07130771 101.36667457 -93.140625 97.953125 C-88.45342598 93.9926235 -87.62171723 90.43883151 -86.8125 84.5 C-85.56197643 76.84872491 -83.50095319 72.06662082 -77.56640625 66.890625 C-72.57834615 63.39778675 -66.99888368 63.6794476 -61.125 64.25 C-60.135 64.58 -59.145 64.91 -58.125 65.25 C-57.99971924 64.62657715 -57.87443848 64.0031543 -57.74536133 63.36083984 C-48.22098068 16.47756203 -48.22098068 16.47756203 -28.6875 3.4375 C-20.36880858 -1.54924244 -9.20819029 -4.89305509 0 0 Z M-73.125 74.25 C-75.37646469 77.74505348 -75.95254919 81.58941558 -76.75 85.625 C-77.01039063 86.91148438 -77.27078125 88.19796875 -77.5390625 89.5234375 C-78.06557006 92.87202558 -78.35484641 95.87225704 -78.125 99.25 C-76.74993901 101.12890434 -76.74993901 101.12890434 -75.125 102.25 C-69.87141281 100.85934457 -67.03788918 97.64459003 -64.125 93.25 C-60.9863695 86.69653951 -60.14963018 79.37419336 -59.125 72.25 C-65.32260085 69.56995639 -67.71117665 70.10324169 -73.125 74.25 Z M-16.25 69.75 C-20.19159871 72.90327897 -21.26018611 76.18372726 -21.8125 81.0625 C-21.92855166 82.45739548 -22.03674084 83.85307061 -22.125 85.25 C-17.23667618 84.09980616 -13.63155289 83.06595462 -10.125 79.25 C-9.23444264 75.60817665 -9.23444264 75.60817665 -9.125 72.25 C-12.37336242 69.71349969 -12.37336242 69.71349969 -16.25 69.75 Z M-223.125 73.25 C-225.56998872 77.43173134 -226.85324219 81.4696897 -227.875 86.1875 C-228.13796875 87.35152344 -228.4009375 88.51554687 -228.671875 89.71484375 C-229.15898662 93.51515427 -228.9497602 96.51566911 -228.125 100.25 C-226.25075284 102.530721 -226.25075284 102.530721 -223.25 102.625 C-220.14941213 102.49565069 -220.14941213 102.49565069 -218.078125 100.859375 C-215.15687801 96.95658902 -214.61346474 92.85732228 -213.75 88.125 C-213.56050781 87.20589844 -213.37101562 86.28679687 -213.17578125 85.33984375 C-212.46725998 81.8162655 -212.46725998 81.8162655 -212.125 78.25 C-212.785 77.59 -213.445 76.93 -214.125 76.25 C-214.83210678 74.60008418 -215.50443989 72.93437744 -216.125 71.25 C-218.95916976 71.25 -220.61868994 71.9051507 -223.125 73.25 Z " fill="#101010" transform="translate(477.125,2.75)"/>
<path d="M0 0 C2.96958905 2.55999056 3.71976915 5.60801053 4.05859375 9.46484375 C3.83355894 19.20134974 1.16168538 27.50375603 -5 35 C-6.12921875 36.48886719 -6.12921875 36.48886719 -7.28125 38.0078125 C-9.93682326 41.19290487 -12.99769487 42.86538957 -16.625 44.875 C-20.69524269 47.36076948 -23.16430696 49.45506949 -24.51171875 54.13671875 C-25.33986109 58.07017716 -25.74915123 61.99133824 -26 66 C-25.38125 65.32904297 -25.38125 65.32904297 -24.75 64.64453125 C-20.68269535 60.3865717 -16.53376927 56.25047198 -11 54 C-6.62169834 54.07177544 -4.63980804 54.57346131 -1 57 C-1.27014933 58.50012334 -1.54119199 60.00008578 -1.8125 61.5 C-1.99167969 62.49644531 -2.17085937 63.49289063 -2.35546875 64.51953125 C-2.81890231 67.02207248 -3.29965903 69.51680778 -3.80078125 72.01171875 C-4.00513794 73.048125 -4.00513794 73.048125 -4.21362305 74.10546875 C-4.60898006 76.10642103 -5.01137366 78.10597909 -5.4140625 80.10546875 C-6.02777467 84.18460901 -6.1006809 87.88581242 -6 92 C0.20828725 92.10013367 3.40052753 91.1782981 8.125 87.0625 C12.80524228 82.51388953 16.5266138 77.50911254 20 72 C20.99 72.33 21.98 72.66 23 73 C23.75222209 78.89240637 22.30115237 82.01652874 18.83984375 86.7890625 C13.42274853 93.29877777 7.52211523 98.39099349 -1.15234375 99.34765625 C-9.68939087 99.72217238 -9.68939087 99.72217238 -12.9140625 97.9453125 C-16.59632193 94.30612043 -17.17645461 91.29520025 -17.25 86.3125 C-17.21550124 78.60202626 -15.73880017 71.48305073 -14 64 C-20.47841808 68.81581521 -27.40329961 76.08662749 -29.4375 84.125 C-29.623125 85.40375 -29.80875 86.6825 -30 88 C-30.34433736 89.81439303 -30.69883959 91.62688094 -31.0625 93.4375 C-31.21847656 94.28183594 -31.37445312 95.12617187 -31.53515625 95.99609375 C-32 98 -32 98 -33 99 C-34.49738124 99.0979057 -35.99942892 99.12974864 -37.5 99.125 C-38.3146875 99.12757812 -39.129375 99.13015625 -39.96875 99.1328125 C-42 99 -42 99 -43 98 C-42.94174688 89.34888223 -40.83270318 80.88990177 -38.9375 72.5 C-38.3814234 70.01101639 -37.82790912 67.5214585 -37.27734375 65.03125 C-36.90984009 63.40026367 -36.90984009 63.40026367 -36.53491211 61.73632812 C-35.90407303 58.9739752 -35.90407303 58.9739752 -36 56 C-41.61 57.65 -47.22 59.3 -53 61 C-55.71482758 73.50759849 -57.65307472 85.17433811 -57 98 C-59.88211302 98.96070434 -61.69850044 99.10581883 -64.6875 99.0625 C-65.49574219 99.05347656 -66.30398438 99.04445313 -67.13671875 99.03515625 C-67.75160156 99.02355469 -68.36648438 99.01195313 -69 99 C-69.33 97.02 -69.66 95.04 -70 93 C-70.75023437 93.433125 -71.50046875 93.86625 -72.2734375 94.3125 C-78.88701274 97.91081801 -84.39685404 100.43247677 -92 99 C-95.38015315 97.6990058 -95.89297925 97.19110848 -97.75 93.875 C-98.1625 92.92625 -98.575 91.9775 -99 91 C-99.42410156 91.40992187 -99.84820313 91.81984375 -100.28515625 92.2421875 C-105.55301598 97.08167183 -109.67849967 99 -117 99 C-121.79711336 98.17710336 -125.10751712 95.88703287 -128 92 C-131.66545687 84.06678114 -126.55302533 73.69441198 -124 66 C-124.33 65.67 -124.66 65.34 -125 65 C-131.01132754 72.36002282 -135.40619965 78.75139875 -138 88 C-138.29648437 89.03382812 -138.59296875 90.06765625 -138.8984375 91.1328125 C-139.62770748 93.74881767 -140.32819199 96.36875195 -141 99 C-147.625 98.25 -147.625 98.25 -151 96 C-150.74605469 94.86304687 -150.49210938 93.72609375 -150.23046875 92.5546875 C-148.10995723 83.04545408 -146.02257684 73.53062723 -144 64 C-154.89304343 71.84299127 -160.17870891 86.30419011 -163 99 C-165.97 98.67 -168.94 98.34 -172 98 C-173.10705821 93.57176715 -172.67811947 91.54003223 -171.671875 87.14453125 C-171.44736664 86.15292244 -171.44736664 86.15292244 -171.21832275 85.14128113 C-170.89967677 83.74253564 -170.57663495 82.34478529 -170.24951172 80.94799805 C-169.75626879 78.83930014 -169.27736339 76.72775263 -168.80078125 74.61523438 C-167.20241121 67.61475859 -165.43789712 60.76441207 -163 54 C-156.375 53.875 -156.375 53.875 -153 55 C-153.33 58.3 -153.66 61.6 -154 65 C-153.278125 64.2575 -152.55625 63.515 -151.8125 62.75 C-145.02096627 56.10938924 -145.02096627 56.10938924 -140.5 55.625 C-137.25666309 55.97250038 -134.91669389 56.58584539 -132 58 C-132 60.31 -132 62.62 -132 65 C-131.62488281 64.45730469 -131.24976563 63.91460937 -130.86328125 63.35546875 C-125.13393784 55.34593325 -125.13393784 55.34593325 -121 54 C-117.90290619 54.37144199 -114.98202753 55.09694591 -112 56 C-110.58861666 60.45379425 -111.95751816 63.7728391 -113.375 68.0625 C-116.44726396 77.8342542 -116.44726396 77.8342542 -117 88 C-116.01 89.485 -116.01 89.485 -115 91 C-108.36883762 90.34988604 -104.87316997 89.20407697 -100.5234375 84.0859375 C-97.23955425 79.38790697 -96.34007972 74.29550625 -95.25 68.75 C-94.83940357 66.78627792 -94.42798235 64.82272806 -94.015625 62.859375 C-93.84321289 61.99795898 -93.67080078 61.13654297 -93.49316406 60.24902344 C-93 58 -93 58 -92 55 C-89.04335481 53.5216774 -86.25770263 53.93967217 -83 54 C-81.98475024 57.89039475 -82.10508207 60.6219376 -82.99609375 64.52734375 C-83.33930664 66.08678711 -83.33930664 66.08678711 -83.68945312 67.67773438 C-84.05973633 69.29131836 -84.05973633 69.29131836 -84.4375 70.9375 C-84.9210126 73.07034204 -85.39905556 75.20443289 -85.87109375 77.33984375 C-86.08693115 78.28206787 -86.30276855 79.22429199 -86.52514648 80.19506836 C-87.15902779 83.93936776 -87.73524689 87.52950622 -86 91 C-79.67681916 90.48382197 -75.33500872 88.77684618 -70.36767578 84.64086914 C-68.69765921 82.6372666 -68.35109209 81.17378426 -67.8671875 78.62109375 C-67.70089844 77.78255859 -67.53460937 76.94402344 -67.36328125 76.08007812 C-67.20214844 75.20802734 -67.04101562 74.33597656 -66.875 73.4375 C-66.54130147 71.7065981 -66.20546559 69.97610648 -65.8671875 68.24609375 C-65.65231689 67.09645142 -65.65231689 67.09645142 -65.43310547 65.92358398 C-65 64 -65 64 -64 62 C-64.55171875 62.16371094 -65.1034375 62.32742187 -65.671875 62.49609375 C-68.26614007 63.05760414 -70.59835411 63.09739008 -73.25 63.0625 C-74.58804688 63.04896484 -74.58804688 63.04896484 -75.953125 63.03515625 C-76.62859375 63.02355469 -77.3040625 63.01195313 -78 63 C-78 59 -78 59 -76 56 C-71.51589913 54.50529971 -66.67475433 54.90833815 -62 55 C-61.9175 53.80375 -61.835 52.6075 -61.75 51.375 C-59.83817201 34.67305823 -59.83817201 34.67305823 -54.515625 29.66015625 C-50.29359471 26.8738785 -47.07944371 25.70974607 -42 26 C-42 26.99 -42 27.98 -42 29 C-42.99 29.66 -43.98 30.32 -45 31 C-46.00384447 33.61405743 -46.85168559 36.13215407 -47.625 38.8125 C-47.8415625 39.52470703 -48.058125 40.23691406 -48.28125 40.97070312 C-49.37559118 44.62188464 -50.33545694 48.24163979 -51 52 C-44.80759538 51.31195504 -38.98044406 49.71951285 -33 48 C-32.79375 46.700625 -32.5875 45.40125 -32.375 44.0625 C-29.49059038 29.82198819 -23.72836795 12.19194955 -13 2 C-8.35955171 -0.6155254 -5.14172092 -1.7528594 0 0 Z M-7 7 C-11.65201756 12.674439 -14.31156034 18.86717069 -16.8125 25.6875 C-17.26508179 26.91690308 -17.26508179 26.91690308 -17.72680664 28.17114258 C-19.24351467 32.43290596 -20.4386455 36.48729305 -21 41 C-13.31812839 34.7570957 -7.14677916 28.15593052 -4.25 18.5 C-3.89839461 14.98394614 -3.94011261 11.53335628 -4 8 C-4.99 7.67 -5.98 7.34 -7 7 Z " fill="#B00CC8" transform="translate(738,13)"/>
<path d="M0 0 C-0.14107747 1.45880109 -0.28802415 2.91703551 -0.4375 4.375 C-0.51871094 5.18710937 -0.59992188 5.99921875 -0.68359375 6.8359375 C-1 9 -1 9 -2 11 C-12.56 10.67 -23.12 10.34 -34 10 C-35.65 18.25 -37.3 26.5 -39 35 C-28.1983294 35.0990979 -17.65863764 35.01649901 -7 33 C-7.66 35.97 -8.32 38.94 -9 42 C-19.56 42 -30.12 42 -41 42 C-41.33 45.3 -41.66 48.6 -42 52 C-42.49477388 55.84984636 -43.1102516 59.67182811 -43.75 63.5 C-43.894375 64.48742187 -44.03875 65.47484375 -44.1875 66.4921875 C-44.6307718 69.10177149 -45.08803408 71.5149809 -46 74 C-49.13371091 76.15442625 -50.4752297 76.05045868 -54.25 75.6875 C-57 75 -57 75 -58 74 C-57.46089801 67.02802805 -56.15440635 60.2720687 -54.75 53.4296875 C-54.53182617 52.3492215 -54.31365234 51.26875549 -54.08886719 50.1555481 C-53.39626705 46.72793913 -52.6984997 43.30141116 -52 39.875 C-51.30217917 36.4413167 -50.60551521 33.00740891 -49.91113281 29.57302856 C-49.48034733 27.44342032 -49.04750636 25.31422651 -48.61230469 23.18551636 C-47.58857106 18.13475856 -46.65763115 13.1118313 -46 8 C-49.3 8 -52.6 8 -56 8 C-55.125 2.125 -55.125 2.125 -54 1 C-50.9065807 0.92351541 -47.83520501 0.90940119 -44.7421875 0.9375 C-43.80577423 0.94128662 -42.86936096 0.94507324 -41.90457153 0.94897461 C-37.88456951 0.96535532 -33.86466767 0.99330228 -29.84472656 1.02050781 C-26.91471838 1.038671 -23.98472723 1.05072384 -21.0546875 1.0625 C-20.15338104 1.07079834 -19.25207458 1.07909668 -18.32345581 1.08764648 C-12.14565354 1.11145444 -6.14327363 0 0 0 Z " fill="#101010" transform="translate(235,36)"/>
<path d="M0 0 C0.66535767 -0.00191345 1.33071533 -0.0038269 2.01623535 -0.00579834 C3.41463604 -0.00715155 4.81304966 -0.00351584 6.21142578 0.00488281 C8.33785529 0.0155953 10.46344016 0.00495869 12.58984375 -0.0078125 C13.95573101 -0.00649075 15.32161775 -0.00392804 16.6875 0 C17.91662109 0.00225586 19.14574219 0.00451172 20.41210938 0.00683594 C24.04851196 0.28106664 26.59614309 0.58163781 29.84375 2.265625 C32.71884173 7.16392943 33.22042409 11.05795306 33.20703125 16.7734375 C33.20777901 17.80620316 33.20777901 17.80620316 33.20854187 18.85983276 C33.206218 20.30355746 33.19659016 21.74728751 33.17993164 23.19091797 C33.1562355 25.3919717 33.15939599 27.59181883 33.16601562 29.79296875 C33.11085942 43.74481442 33.11085942 43.74481442 29.23803711 48.05102539 C25.74883449 49.82106546 22.36152651 49.71375025 18.53515625 49.69921875 C17.73142075 49.7044606 16.92768524 49.70970245 16.09959412 49.71510315 C14.40258945 49.72151595 12.70554029 49.72019592 11.00854492 49.71166992 C8.4182988 49.70316456 5.83026246 49.73192108 3.24023438 49.76367188 C1.58854233 49.76528422 -0.06315361 49.76470572 -1.71484375 49.76171875 C-2.48581894 49.77295273 -3.25679413 49.78418671 -4.0511322 49.79576111 C-7.79438028 49.74749139 -9.94236418 49.40311422 -13.12133789 47.35961914 C-16.73339109 43.64269289 -16.33183406 40.3055876 -16.359375 35.37109375 C-16.36792511 34.19453972 -16.36792511 34.19453972 -16.37664795 32.99421692 C-16.3861014 31.33233999 -16.3926333 29.67044428 -16.39648438 28.00854492 C-16.40617229 25.47345962 -16.43718404 22.93919121 -16.46875 20.40429688 C-16.47528197 18.78906731 -16.48053168 17.17383195 -16.484375 15.55859375 C-16.4967218 14.80321823 -16.5090686 14.04784271 -16.52178955 13.26957703 C-16.50288809 8.77321768 -16.1734264 5.69311515 -13.15625 2.265625 C-8.78140468 0.19669423 -4.79312938 0.00879704 0 0 Z M-9.15625 8.265625 C-9.25712212 10.77486653 -9.29597032 13.25598884 -9.2890625 15.765625 C-9.29001923 16.51650391 -9.29097595 17.26738281 -9.29196167 18.04101562 C-9.29264338 19.63151127 -9.29078972 21.22200967 -9.28662109 22.8125 C-9.28127267 25.25527155 -9.28656634 27.69785921 -9.29296875 30.140625 C-9.29230797 31.68229207 -9.2910268 33.22395903 -9.2890625 34.765625 C-9.29108673 35.50103516 -9.29311096 36.23644531 -9.29519653 36.99414062 C-9.58681513 40.41808842 -9.58681513 40.41808842 -8.15625 43.265625 C-5.80396681 43.37879784 -3.48213052 43.42979037 -1.12890625 43.43359375 C-0.42479111 43.43692215 0.27932404 43.44025055 1.004776 43.44367981 C2.49691106 43.44875155 3.9890575 43.45108806 5.48120117 43.45092773 C7.76825607 43.45311259 10.05482753 43.47126049 12.34179688 43.49023438 C13.78906084 43.49316854 15.23632711 43.49515318 16.68359375 43.49609375 C17.37009506 43.50327927 18.05659637 43.51046478 18.76390076 43.51786804 C22.74894894 43.60409517 22.74894894 43.60409517 25.84375 41.265625 C26.03096852 38.76818638 26.09954767 36.38373817 26.07421875 33.88671875 C26.07376053 33.15945084 26.07330231 32.43218292 26.0728302 31.68287659 C26.06980836 30.14542001 26.06192405 28.60796648 26.04956055 27.07055664 C26.03129573 24.70903765 26.0290509 22.34791039 26.02929688 19.98632812 C26.02438203 18.49478826 26.01855386 17.00325106 26.01171875 15.51171875 C26.01060593 14.80131943 26.0094931 14.0909201 26.00834656 13.35899353 C26.26436383 10.02799595 26.26436383 10.02799595 24.84375 7.265625 C22.40714554 7.16479736 19.99950299 7.12589897 17.5625 7.1328125 C16.83381714 7.13185577 16.10513428 7.13089905 15.35437012 7.12991333 C13.8109529 7.12923165 12.26753283 7.13108512 10.72412109 7.13525391 C8.353776 7.14060238 5.98362041 7.13530858 3.61328125 7.12890625 C2.11718708 7.12956703 0.62109303 7.1308482 -0.875 7.1328125 C-1.58853638 7.13078827 -2.30207275 7.12876404 -3.03723145 7.12667847 C-6.38111429 6.84913849 -6.38111429 6.84913849 -9.15625 8.265625 Z " fill="#A60CC4" transform="translate(23.15625,88.734375)"/>
<path d="M0 0 C1.24033241 -0.00361794 1.24033241 -0.00361794 2.50572205 -0.00730896 C4.24808565 -0.0063323 5.99048098 0.00701814 7.73266602 0.03198242 C10.39771901 0.06634662 13.05946416 0.05262086 15.72460938 0.03320312 C17.42058701 0.04010056 19.1165561 0.04977202 20.8125 0.0625 C21.6073732 0.05754013 22.4022464 0.05258026 23.22120667 0.04747009 C26.83066394 0.1242629 28.91253745 0.29847125 31.81030273 2.53930664 C34.69107349 6.47490392 34.51657502 9.79448758 34.54296875 14.5234375 C34.54866882 15.30780685 34.5543689 16.09217621 34.5602417 16.90031433 C34.56969515 18.56219126 34.57622705 20.22408697 34.58007812 21.88598633 C34.58976604 24.42107163 34.62077779 26.95534004 34.65234375 29.49023438 C34.65887572 31.10546394 34.66412543 32.7206993 34.66796875 34.3359375 C34.68031555 35.09131302 34.69266235 35.84668854 34.7053833 36.62495422 C34.68641025 41.1383441 34.1496768 44.04906265 31.33984375 47.62890625 C28.04446321 49.27659652 24.37809313 48.83494056 20.75390625 48.8671875 C19.47391251 48.87929512 19.47391251 48.87929512 18.1680603 48.89164734 C16.36075879 48.90548773 14.55343115 48.91621009 12.74609375 48.92407227 C9.98256962 48.94129577 7.22023859 48.98518217 4.45703125 49.02929688 C2.70183172 49.03942291 0.94662202 49.04793929 -0.80859375 49.0546875 C-1.63475189 49.07219559 -2.46091003 49.08970367 -3.31210327 49.10774231 C-6.87828509 49.09426375 -9.06417775 48.97922349 -12.17797852 47.14892578 C-14.32802674 43.49338341 -14.2516096 40.00734506 -14.2265625 35.8828125 C-14.23276108 35.03468491 -14.23895966 34.18655731 -14.24534607 33.31272888 C-14.25244 31.52156724 -14.2492776 29.73033961 -14.23657227 27.93920898 C-14.22271839 25.20367553 -14.25676484 22.47157203 -14.29492188 19.73632812 C-14.29587324 17.99348875 -14.29401329 16.2506451 -14.2890625 14.5078125 C-14.30232071 13.69308975 -14.31557892 12.878367 -14.32923889 12.03895569 C-14.26333575 8.00308326 -13.9423918 6.05488053 -11.66210938 2.61328125 C-7.64633059 -0.04126087 -4.71614657 -0.07886453 0 0 Z M-7.66015625 8.62890625 C-7.84737477 11.12634487 -7.91595392 13.51079308 -7.890625 16.0078125 C-7.89016678 16.73508041 -7.88970856 17.46234833 -7.88923645 18.21165466 C-7.88621461 19.74911124 -7.8783303 21.28656477 -7.8659668 22.82397461 C-7.84770198 25.1854936 -7.84545715 27.54662086 -7.84570312 29.90820312 C-7.84078828 31.39974299 -7.83496011 32.89128019 -7.828125 34.3828125 C-7.82701218 35.09321182 -7.82589935 35.80361115 -7.82475281 36.53553772 C-8.08077008 39.8665353 -8.08077008 39.8665353 -6.66015625 42.62890625 C-4.22355179 42.72973389 -1.81590924 42.76863228 0.62109375 42.76171875 C1.34977661 42.76267548 2.07845947 42.7636322 2.82922363 42.76461792 C4.37264085 42.7652996 5.91606092 42.76344613 7.45947266 42.75927734 C9.82981775 42.75392887 12.19997334 42.75922267 14.5703125 42.765625 C16.06640667 42.76496422 17.56250072 42.76368305 19.05859375 42.76171875 C19.77213013 42.76374298 20.4856665 42.76576721 21.2208252 42.76785278 C24.56470804 43.04539276 24.56470804 43.04539276 27.33984375 41.62890625 C27.42832118 39.10796549 27.45511676 36.61459732 27.4375 34.09375 C27.43608505 33.34049942 27.4346701 32.58724884 27.43321228 31.81117249 C27.42759751 29.39621065 27.41504258 26.98134024 27.40234375 24.56640625 C27.39733065 22.93294404 27.39276741 21.29948039 27.38867188 19.66601562 C27.37762329 15.6536104 27.36034881 11.64127384 27.33984375 7.62890625 C22.93412672 5.42604774 16.95405566 6.44305678 12.05419922 6.44360352 C9.84843725 6.44141478 7.64317359 6.42324765 5.4375 6.40429688 C4.0403663 6.40136332 2.64323022 6.39937827 1.24609375 6.3984375 C-0.66719727 6.39227417 -0.66719727 6.39227417 -2.61914062 6.38598633 C-5.77053517 6.30691428 -5.77053517 6.30691428 -7.66015625 8.62890625 Z " fill="#B00CC8" transform="translate(104.66015625,5.37109375)"/>
<path d="M0 0 C1 1 1 1 1.1875 3.4375 C1 6 1 6 -1 8 C-4 8 -4 8 -5.5 6.5625 C-5.995 6.046875 -6.49 5.53125 -7 5 C-9.89186786 3.66695302 -9.89186786 3.66695302 -12.1875 4.9375 C-12.785625 5.288125 -13.38375 5.63875 -14 6 C-13.76932648 9.97911816 -13.38365436 11.61270335 -10.53125 14.4921875 C-9.03078125 15.67167969 -9.03078125 15.67167969 -7.5 16.875 C-1.2323686 22.31129408 -1.2323686 22.31129408 -0.5625 26.1875 C-1.18254075 31.59071227 -2.69279321 34.98898867 -6.734375 38.51171875 C-11.52204017 41.85350904 -16.15106978 43.34697044 -22 43 C-26.3775493 42.13434315 -29.91678061 40.76617957 -33.5625 38.1875 C-35.47331015 35.27974542 -35.44496112 33.41136861 -35 30 C-34.34 29.34 -33.68 28.68 -33 28 C-30.5625 28.0625 -30.5625 28.0625 -28 29 C-26.3125 31.5 -26.3125 31.5 -25 34 C-22.59454362 35.20272819 -21.05003047 35.10071472 -18.375 35.0625 C-17.14910156 35.04896484 -17.14910156 35.04896484 -15.8984375 35.03515625 C-15.27195312 35.02355469 -14.64546875 35.01195312 -14 35 C-13.37110491 32.14578384 -12.88645458 29.88189096 -13 27 C-14.99666733 24.33336666 -14.99666733 24.33336666 -18 22 C-25.42448344 14.94291368 -25.42448344 14.94291368 -25.8125 9.9375 C-25.35654878 5.12151529 -22.55533656 2.06318973 -19 -1 C-12.70979895 -4.80722695 -5.98869659 -3.65164426 0 0 Z " fill="#B00CC8" transform="translate(558,70)"/>
<path d="M0 0 C0 2.31 0 4.62 0 7 C-0.969375 7.268125 -1.93875 7.53625 -2.9375 7.8125 C-3.948125 8.204375 -4.95875 8.59625 -6 9 C-7.14207859 12.42623578 -7.12460293 15.05724354 -7.12597656 18.67114258 C-7.1278447 19.34469284 -7.12971283 20.0182431 -7.13163757 20.71220398 C-7.1356384 22.17396983 -7.13771612 23.63574192 -7.13809967 25.0975132 C-7.14152036 28.2089429 -7.16288979 31.3201646 -7.18333054 34.43152142 C-7.22132041 40.22268606 -7.25261645 46.0136281 -7.25048828 51.80493164 C-7.24970005 55.83521222 -7.27311083 59.86473026 -7.3123703 63.89481163 C-7.32281494 65.42770647 -7.32436558 66.96068949 -7.31671906 68.49360085 C-7.30706583 70.64346006 -7.32833226 72.79102183 -7.35644531 74.94067383 C-7.36009094 76.16184402 -7.36373657 77.38301422 -7.36749268 78.64118958 C-8.2956584 83.57003798 -10.82763735 86.50650068 -15 89.375 C-17.41152078 90.12860024 -19.48857781 90.13952346 -22 90 C-22 88.02 -22 86.04 -22 84 C-20.824375 83.5978125 -20.824375 83.5978125 -19.625 83.1875 C-16.71885077 82.15185568 -16.71885077 82.15185568 -15 79 C-14.70392319 75.86599471 -14.70392319 75.86599471 -14.76049805 72.23706055 C-14.75848389 71.55375671 -14.75646973 70.87045288 -14.75439453 70.16644287 C-14.75085072 68.68339632 -14.75161404 67.20033466 -14.75617027 65.71729088 C-14.7617655 63.36708055 -14.75260115 61.01736342 -14.7389679 58.66719055 C-14.70185207 51.9855433 -14.68328626 45.3040619 -14.69458008 38.62231445 C-14.7004431 34.53372203 -14.68211151 30.44582169 -14.64869118 26.35737038 C-14.64075309 24.80213162 -14.64199264 23.24681712 -14.65271568 21.69159508 C-14.66710228 19.51067771 -14.65071452 17.33192218 -14.62768555 15.15112305 C-14.62705612 13.91218796 -14.6264267 12.67325287 -14.6257782 11.39677429 C-13.7942578 6.88321483 -12.18831014 5.25393483 -9 2 C-5.96808359 -0.08444253 -3.63890389 -0.20216133 0 0 Z " fill="#101010" transform="translate(84,27)"/>
<path d="M0 0 C3.25 0.875 3.25 0.875 4.25 1.875 C4.82971014 8.94746377 4.82971014 8.94746377 2.6875 12.375 C-0.62594552 14.4140434 -2.93115682 14.29931591 -6.75 13.875 C-8.75 11.875 -8.75 11.875 -9.1875 8.5625 C-8.75 4.875 -8.75 4.875 -6.6875 1.875 C-3.75 -0.125 -3.75 -0.125 0 0 Z " fill="#AF0BC8" transform="translate(655.75,43.125)"/>
</svg>
