<?xml version="1.0" encoding="UTF-8"?>
<svg version="1.1" xmlns="http://www.w3.org/2000/svg" width="770" height="195">
<path d="M0 0 C254.1 0 508.2 0 770 0 C770 64.35 770 128.7 770 195 C515.9 195 261.8 195 0 195 C0 130.65 0 66.3 0 0 Z " fill="#020102" transform="translate(0,0)"/>
<path d="M0 0 C2.97890207 2.40035498 4.24618052 3.88673094 4.828125 7.7109375 C4.68375 8.4121875 4.539375 9.1134375 4.390625 9.8359375 C2.8128125 9.3409375 2.8128125 9.3409375 1.203125 8.8359375 C-7.16371767 6.77023389 -16.99591468 6.32305483 -24.609375 10.8359375 C-36.19018845 18.38001026 -39.55270053 31.65454325 -42.671875 44.3984375 C-43.01100303 45.75156244 -43.35019688 47.10467088 -43.68945312 48.45776367 C-45.91946051 57.46902986 -47.87855682 66.52735103 -49.609375 75.6484375 C-49.81699463 76.73133057 -50.02461426 77.81422363 -50.23852539 78.92993164 C-52.48188655 89.5357169 -52.48188655 89.5357169 -50.609375 99.8359375 C-45.70924717 100.44845348 -43.31047657 99.99511691 -39.296875 97.0234375 C-34.94874961 93.56373066 -33.47052041 90.7683352 -32.67285156 85.23730469 C-31.6283114 78.06870042 -30.66725028 72.43992271 -24.609375 67.8359375 C-23.80306641 67.19591797 -23.80306641 67.19591797 -22.98046875 66.54296875 C-18.46382901 63.47249209 -13.95280066 62.88411035 -8.609375 63.8359375 C-4.61533594 65.38959596 -2.02337848 67.21493227 0.390625 70.8359375 C1.06749877 74.06988997 0.88445554 76.01182801 -0.82421875 78.86328125 C-6.04835032 85.46412514 -12.15058587 87.9134294 -20.234375 89.5859375 C-21.018125 89.6684375 -21.801875 89.7509375 -22.609375 89.8359375 C-23.05231751 94.41042367 -23.05231751 94.41042367 -21.4765625 98.53515625 C-17.28189589 101.45738215 -11.45306415 100.42622764 -6.609375 99.8359375 C-2.93487617 98.61944811 0.19860051 97.01598795 3.390625 94.8359375 C4.41800781 94.19269531 5.44539062 93.54945312 6.50390625 92.88671875 C10.89438022 89.14885454 11.20931685 83.6245849 12.140625 78.2109375 C12.52582965 76.13440385 12.91622688 74.05882486 13.3125 71.984375 C13.47331055 71.06833496 13.63412109 70.15229492 13.79980469 69.20849609 C14.390625 66.8359375 14.390625 66.8359375 16.390625 63.8359375 C22.515625 63.3984375 22.515625 63.3984375 25.390625 64.8359375 C25.060625 66.8159375 24.730625 68.7959375 24.390625 70.8359375 C25.339375 70.0315625 26.288125 69.2271875 27.265625 68.3984375 C31.77774554 64.572944 34.55438165 64.74180454 40.390625 64.8359375 C40.66777344 65.54621094 40.94492187 66.25648437 41.23046875 66.98828125 C41.59269531 67.90738281 41.95492188 68.82648438 42.328125 69.7734375 C42.68777344 70.68996094 43.04742188 71.60648437 43.41796875 72.55078125 C44.1902468 74.76012283 44.1902468 74.76012283 45.390625 75.8359375 C47.07246448 76.06880758 48.7618666 76.24857916 50.453125 76.3984375 C51.37222656 76.48222656 52.29132813 76.56601563 53.23828125 76.65234375 C53.94855469 76.71292969 54.65882813 76.77351563 55.390625 76.8359375 C55.390625 77.4959375 55.390625 78.1559375 55.390625 78.8359375 C50.61874096 81.38094232 45.66296482 81.53718467 40.390625 80.8359375 C36.89420435 78.90933837 35.70831294 77.91118899 34.578125 74.0859375 C34.51625 73.3434375 34.454375 72.6009375 34.390625 71.8359375 C29.86623146 73.06289168 26.43230035 74.05784281 23.640625 77.9609375 C20.28945696 84.02012012 19.25476202 91.08228286 17.85009766 97.79345703 C17.16248396 100.85008624 16.28603269 103.83415223 15.390625 106.8359375 C13.080625 106.8359375 10.770625 106.8359375 8.390625 106.8359375 C8.060625 104.1959375 7.730625 101.5559375 7.390625 98.8359375 C6.91753906 99.16207031 6.44445312 99.48820312 5.95703125 99.82421875 C-3.7688668 106.25127419 -12.86299581 108.28610777 -24.609375 106.8359375 C-28.37787454 105.21313865 -30.72482393 102.72048857 -33.609375 99.8359375 C-34.22425781 100.25746094 -34.83914063 100.67898437 -35.47265625 101.11328125 C-36.28089844 101.66113281 -37.08914063 102.20898438 -37.921875 102.7734375 C-39.12263672 103.59134766 -39.12263672 103.59134766 -40.34765625 104.42578125 C-45.31932504 107.52556093 -50.9237484 107.87263295 -56.609375 106.8359375 C-59.21491742 104.85453642 -60.92303089 102.62516489 -62.609375 99.8359375 C-63.06828125 100.24585938 -63.5271875 100.65578125 -64 101.078125 C-64.61359375 101.61695313 -65.2271875 102.15578125 -65.859375 102.7109375 C-66.46265625 103.24460937 -67.0659375 103.77828125 -67.6875 104.328125 C-71.62823169 107.41983726 -74.57294624 108.3498588 -79.609375 107.8359375 C-82.95865592 106.3896571 -84.27834524 105.59435843 -85.75 102.22265625 C-86.03359375 101.43503906 -86.3171875 100.64742188 -86.609375 99.8359375 C-87.28484375 100.32964844 -87.9603125 100.82335937 -88.65625 101.33203125 C-89.54828125 101.97269531 -90.4403125 102.61335938 -91.359375 103.2734375 C-92.24109375 103.91152344 -93.1228125 104.54960937 -94.03125 105.20703125 C-99.10589403 108.41328362 -104.73129177 108.54929712 -110.609375 107.8359375 C-113.54360695 106.03946896 -115.08142855 104.8918304 -116.609375 101.8359375 C-117.37312823 94.32569745 -115.32213922 88.2505993 -112.80078125 81.2890625 C-111.82053243 78.44794789 -111.10017341 75.7920107 -110.609375 72.8359375 C-118.68409194 78.31214181 -128.03774653 85.9578556 -130.3046875 95.87890625 C-130.44648438 96.91660156 -130.58828125 97.95429688 -130.734375 99.0234375 C-131.5287575 104.67470251 -131.5287575 104.67470251 -132.609375 106.8359375 C-135.249375 106.8359375 -137.889375 106.8359375 -140.609375 106.8359375 C-140.609375 105.1859375 -140.609375 103.5359375 -140.609375 101.8359375 C-141.0940625 102.18527344 -141.57875 102.53460938 -142.078125 102.89453125 C-147.01417452 106.24534948 -150.58349801 107.93312906 -156.609375 107.8359375 C-160.35560173 106.03219871 -162.1198965 104.8148945 -163.984375 101.0859375 C-164.190625 100.3434375 -164.396875 99.6009375 -164.609375 98.8359375 C-165.351875 99.7846875 -166.094375 100.7334375 -166.859375 101.7109375 C-169.37065579 104.91979629 -171.75454451 106.49085276 -175.79296875 107.2421875 C-180.2463149 107.427422 -182.07222469 107.24417173 -185.734375 104.4609375 C-188.20571677 100.84309697 -187.80265617 97.70424531 -187.140625 93.515625 C-186.9653125 92.63132812 -186.79 91.74703125 -186.609375 90.8359375 C-186.4340625 89.88976562 -186.25875 88.94359375 -186.078125 87.96875 C-185.61863067 85.58343387 -185.12936012 83.20868513 -184.609375 80.8359375 C-185.37507813 81.32707031 -185.37507813 81.32707031 -186.15625 81.828125 C-189.47709537 83.19242134 -192.28310068 83.0271648 -195.859375 82.9609375 C-197.12265625 82.94289063 -198.3859375 82.92484375 -199.6875 82.90625 C-200.65171875 82.88304688 -201.6159375 82.85984375 -202.609375 82.8359375 C-202.84011719 83.93292969 -203.07085937 85.02992187 -203.30859375 86.16015625 C-203.63706175 87.61480023 -203.96654265 89.06921576 -204.296875 90.5234375 C-204.44576172 91.24466797 -204.59464844 91.96589844 -204.74804688 92.70898438 C-206.27430931 99.26293484 -209.37705937 102.24755907 -214.859375 106.1484375 C-219.02166452 108.37013888 -222.99388387 108.66975798 -227.609375 107.8359375 C-232.01250315 105.59283448 -234.87222484 102.92996552 -237.609375 98.8359375 C-238.4419905 90.09933822 -236.72731866 77.88083739 -231.296875 70.8359375 C-229.9665625 69.8459375 -229.9665625 69.8459375 -228.609375 68.8359375 C-227.701875 68.1140625 -226.794375 67.3921875 -225.859375 66.6484375 C-222.35072161 64.69168849 -219.39118037 63.97264927 -215.46484375 63.328125 C-214.85253906 63.16570312 -214.24023438 63.00328125 -213.609375 62.8359375 C-213.279375 62.1759375 -212.949375 61.5159375 -212.609375 60.8359375 C-210.299375 60.8359375 -207.989375 60.8359375 -205.609375 60.8359375 C-204.609375 63.8359375 -204.609375 63.8359375 -204.734375 67.7734375 C-204.77103678 70.62258117 -204.68465123 71.69613879 -203.296875 74.2734375 C-199.76805534 77.54086311 -195.58013825 77.06379675 -191.0546875 76.96484375 C-187.00708152 76.83476643 -187.00708152 76.83476643 -183.609375 74.8359375 C-182.57896285 71.54298017 -182.03208869 68.25550195 -181.609375 64.8359375 C-176.8984375 63.71875 -176.8984375 63.71875 -174.296875 64.7734375 C-173.74 65.1240625 -173.183125 65.4746875 -172.609375 65.8359375 C-173.32408193 72.44885744 -174.66195574 78.75741907 -176.23632812 85.21289062 C-177.32717872 89.88396883 -177.80687794 94.03852731 -177.609375 98.8359375 C-175.36061753 99.70443924 -175.36061753 99.70443924 -172.609375 99.8359375 C-166.9932261 96.68541495 -164.55922503 91.12877094 -162.83618164 85.15551758 C-162.14899639 82.26556735 -161.52110108 79.37036315 -160.921875 76.4609375 C-160.50337099 74.49435025 -160.08289763 72.52818073 -159.66015625 70.5625 C-159.48137939 69.70221191 -159.30260254 68.84192383 -159.1184082 67.95556641 C-158.609375 65.8359375 -158.609375 65.8359375 -157.609375 63.8359375 C-151.859375 64.7109375 -151.859375 64.7109375 -149.609375 65.8359375 C-150.20976889 71.46068029 -151.25690201 76.74200429 -152.671875 82.2109375 C-154.25694044 88.57835988 -155.02837165 94.23674031 -154.609375 100.8359375 C-148.80352283 100.48047716 -144.82215705 98.95979539 -140.609375 94.8359375 C-138.69106958 91.59596859 -138.02433712 88.48027696 -137.35546875 84.79296875 C-137.14083984 83.63732422 -136.92621094 82.48167969 -136.70507812 81.29101562 C-136.37926758 79.48793945 -136.37926758 79.48793945 -136.046875 77.6484375 C-135.61153 75.25848227 -135.17291065 72.86912034 -134.73046875 70.48046875 C-134.5389624 69.42190674 -134.34745605 68.36334473 -134.15014648 67.27270508 C-133.609375 64.8359375 -133.609375 64.8359375 -132.609375 63.8359375 C-129.91854628 64.01229202 -127.28086054 64.45429671 -124.609375 64.8359375 C-124.71765625 65.84914062 -124.71765625 65.84914062 -124.828125 66.8828125 C-124.9209375 67.77484375 -125.01375 68.666875 -125.109375 69.5859375 C-125.2021875 70.46765625 -125.295 71.349375 -125.390625 72.2578125 C-125.66573813 75.06898585 -125.66573813 75.06898585 -125.609375 78.8359375 C-124.69414062 77.90910156 -123.77890625 76.98226562 -122.8359375 76.02734375 C-121.6355489 74.81757711 -120.43502083 73.60794885 -119.234375 72.3984375 C-118.63109375 71.78677734 -118.0278125 71.17511719 -117.40625 70.54492188 C-116.82617188 69.96162109 -116.24609375 69.37832031 -115.6484375 68.77734375 C-115.11428223 68.23795166 -114.58012695 67.69855957 -114.02978516 67.14282227 C-112.11580298 65.38181392 -111.10548461 64.81591106 -108.48046875 64.921875 C-107.67738281 65.01726562 -106.87429688 65.11265625 -106.046875 65.2109375 C-105.24121094 65.30117187 -104.43554688 65.39140625 -103.60546875 65.484375 C-101.609375 65.8359375 -101.609375 65.8359375 -100.609375 66.8359375 C-100.93287238 72.8745553 -102.21661977 78.49264552 -103.671875 84.3359375 C-105.15848759 90.32087411 -106.06065141 95.63088688 -105.609375 101.8359375 C-100.1394011 102.67747195 -97.13729001 100.63866009 -92.7578125 97.734375 C-87.7312524 93.29272371 -86.17816712 88.98653562 -85.296875 82.4609375 C-84.16182368 75.60874577 -82.08406032 71.21568576 -76.609375 66.8359375 C-71.79314439 63.4855162 -67.30319416 63.19747616 -61.609375 63.8359375 C-58.546875 64.8359375 -58.546875 64.8359375 -56.609375 65.8359375 C-56.526875 64.7015625 -56.444375 63.5671875 -56.359375 62.3984375 C-54.13093553 42.7448394 -47.61925091 20.46265078 -32.609375 6.8359375 C-23.33183621 0.07477224 -11.41480463 -5.09223321 0 0 Z " fill="#F3F3F3" transform="translate(476.609375,30.1640625)"/>
<path d="M0 0 C2.5 1.75 2.5 1.75 4 5 C5.32847969 15.50567844 2.90483916 24.10784576 -3.13671875 32.66796875 C-7.76005856 38.45441291 -12.63258886 44.06701589 -19.4375 47.1875 C-22.58917836 48.93206539 -22.98918975 49.96746005 -24.16015625 53.4921875 C-25.32356865 58.64265243 -26 63.71558797 -26 69 C-25.43152344 68.33613281 -24.86304688 67.67226562 -24.27734375 66.98828125 C-15.50486773 56.95631786 -15.50486773 56.95631786 -10 54 C-3.9 54.1 -3.9 54.1 -1 57 C-1.26525354 61.77456377 -2.27260744 66.03052554 -3.5625 70.625 C-5.33361316 77.38978831 -5.51625364 84.04050382 -5 91 C-4.67 91.33 -4.34 91.66 -4 92 C2.80268531 91.59183888 7.56095205 89.66897669 12.11328125 84.6875 C15.41926245 80.62603864 18.37235162 76.53350445 21 72 C21.99 72.33 22.98 72.66 24 73 C23.24833593 82.39580094 17.89279047 88.05575868 11 94 C5.17440131 98.26495773 -0.90870274 99.09180034 -8 98 C-10.61535154 96.95283776 -11.87816215 95.95432433 -14 94 C-17.52750416 83.41748752 -14.20302262 72.20963459 -11 62 C-19.16982879 67.14959953 -25.94150006 74.71069553 -29 84 C-29.40278645 86.07448183 -29.75607662 88.15911107 -30.0625 90.25 C-30.89556509 95.89556509 -30.89556509 95.89556509 -32 97 C-35.00003445 97.14177857 -37.99757235 97.04228771 -41 97 C-40.55882194 87.31020925 -38.65850633 78.14748963 -36.4375 68.75 C-36.10404943 67.31137578 -35.77136232 65.87257437 -35.43945312 64.43359375 C-34.63506814 60.95364812 -33.82046616 57.476194 -33 54 C-33.60585938 54.27714844 -34.21171875 54.55429688 -34.8359375 54.83984375 C-40.93804205 57.47783049 -46.36430266 58.7176299 -53 59 C-53.68032553 63.2687713 -54.34170892 67.54027987 -55 71.8125 C-55.19078125 73.00810547 -55.3815625 74.20371094 -55.578125 75.43554688 C-56.68963306 82.71989431 -57.19964089 89.63200344 -57 97 C-60.3 97 -63.6 97 -67 97 C-67.33 95.02 -67.66 93.04 -68 91 C-68.86625 91.61875 -69.7325 92.2375 -70.625 92.875 C-77.25659132 97.05044639 -84.22093905 98.27845291 -92 97 C-94.3671875 95.2265625 -94.3671875 95.2265625 -96 93 C-96 91.68 -96 90.36 -96 89 C-96.51949219 89.40992188 -97.03898438 89.81984375 -97.57421875 90.2421875 C-103.91669896 95.14266204 -108.40473843 97.53644656 -116.55859375 97.390625 C-120.59262323 96.74518028 -122.24519083 94.96141986 -125 92 C-127.54530025 88.18204963 -127.35960708 86.56251484 -127 82 C-126.17359907 78.46303233 -125.10553552 75.02103341 -124 71.5625 C-123.71382812 70.64017578 -123.42765625 69.71785156 -123.1328125 68.76757812 C-122.43060845 66.50882178 -121.71952111 64.25328753 -121 62 C-132.69393203 71.00816448 -137.18689653 84.00067331 -140 98 C-145.75 97.125 -145.75 97.125 -148 96 C-147.54853621 87.96196014 -146.0794922 80.56044857 -143.9375 72.8125 C-143.65583984 71.76513672 -143.37417969 70.71777344 -143.08398438 69.63867188 C-142.39739286 67.09013727 -141.70266151 64.54414137 -141 62 C-149.10494555 66.2427628 -154.81187946 75.53155482 -158 84 C-159.44761553 88.63940673 -160.75912981 93.30053419 -162 98 C-167.625 98.25 -167.625 98.25 -171 96 C-168.85178 85.60693565 -166.63773948 75.23002105 -164.3125 64.875 C-163.99116089 63.42649658 -163.99116089 63.42649658 -163.66333008 61.94873047 C-163.36011841 60.6089917 -163.36011841 60.6089917 -163.05078125 59.2421875 C-162.87200439 58.4466748 -162.69322754 57.65116211 -162.5090332 56.83154297 C-162 55 -162 55 -161 54 C-157.5 53.875 -157.5 53.875 -154 54 C-153.505 54.495 -153.505 54.495 -153 55 C-153.27780619 57.68545988 -153.60862456 60.33110245 -154 63 C-154.14501953 64.03253906 -154.14501953 64.03253906 -154.29296875 65.0859375 C-154.52372742 66.72465846 -154.76118818 68.36243325 -155 70 C-154.45472656 69.23816406 -154.45472656 69.23816406 -153.8984375 68.4609375 C-150.56982531 63.90329927 -147.38486208 59.57947925 -143 56 C-138.2352034 55.34278668 -136.34773107 55.82613447 -132 58 C-132.33 61.63 -132.66 65.26 -133 69 C-132.13375 67.80375 -131.2675 66.6075 -130.375 65.375 C-127.44909646 61.52404498 -124.75908318 58.06863933 -121 55 C-116.51464241 54.39181592 -114.78435205 54.47709863 -111 57 C-111.2637269 62.84155074 -112.2120205 68.0045227 -114.0625 73.5625 C-115.836534 79.02007369 -116.56217343 83.28457017 -116 89 C-115.01 89.99 -115.01 89.99 -114 91 C-107.52791939 90.63365581 -103.95634866 88.90976893 -99.375 84.4375 C-94.1114411 77.71001379 -93.34573081 68.14857597 -91.84375 60.00390625 C-91.00356094 57.01267759 -90.51032442 55.76721844 -88 54 C-85.375 53.75 -85.375 53.75 -83 54 C-82.67 54.33 -82.34 54.66 -82 55 C-82.04574177 61.52963741 -83.10669534 67.83991571 -84.5625 74.1875 C-85.80371241 79.64883462 -86.37874134 84.41356526 -86 90 C-85.67 90.33 -85.34 90.66 -85 91 C-77.78264291 90.87111862 -72.15015004 88.15015004 -67 83 C-66.33986624 79.72950877 -65.75876888 76.45376717 -65.19335938 73.16601562 C-64.44400187 68.96107169 -63.46585849 65.02952443 -62 61 C-62.9590625 61.2475 -62.9590625 61.2475 -63.9375 61.5 C-67.97586652 62.15932515 -71.91807258 62.08003779 -76 62 C-74.125 56.125 -74.125 56.125 -73 55 C-70.98405418 54.76572222 -68.961526 54.58663876 -66.9375 54.4375 C-65.83277344 54.35371094 -64.72804688 54.26992187 -63.58984375 54.18359375 C-62.73519531 54.12300781 -61.88054687 54.06242187 -61 54 C-60.74605469 52.85402344 -60.49210938 51.70804688 -60.23046875 50.52734375 C-59.88316194 48.99731647 -59.53548599 47.46737295 -59.1875 45.9375 C-59.02185547 45.18533203 -58.85621094 44.43316406 -58.68554688 43.65820312 C-55.91945645 31.60222411 -55.91945645 31.60222411 -52.1328125 28.44140625 C-48.30332951 26.76507615 -45.28308314 25.46461461 -41 26 C-41 26.66 -41 27.32 -41 28 C-41.61617187 28.57234375 -42.23234375 29.1446875 -42.8671875 29.734375 C-45.44353831 32.47115791 -46.10963294 34.64928656 -47.125 38.25 C-47.43695312 39.32765625 -47.74890625 40.4053125 -48.0703125 41.515625 C-49.08922432 45.33440374 -50.05325006 49.16273033 -51 53 C-48.04569256 52.40070624 -45.12148899 51.74955921 -42.1875 51.0625 C-41.35412109 50.89943359 -40.52074219 50.73636719 -39.66210938 50.56835938 C-37.16584505 49.95682474 -35.19698264 49.33991645 -33 48 C-31.28542599 45.16905532 -30.72432253 42.20436337 -30 39 C-29.43796111 37.3194856 -28.84998022 35.64745669 -28.23828125 33.984375 C-27.92810059 33.13166016 -27.61791992 32.27894531 -27.29833984 31.40039062 C-14.73465909 -2.37655792 -14.73465909 -2.37655792 0 0 Z " fill="#A206B8" transform="translate(736,40)"/>
<path d="M0 0 C2.31 0 4.62 0 7 0 C8 3 8 3 7.875 6.9375 C7.83833822 9.78664367 7.92472377 10.86020129 9.3125 13.4375 C12.84131966 16.70492561 17.02923675 16.22785925 21.5546875 16.12890625 C25.60229348 15.99882893 25.60229348 15.99882893 29 14 C30.03041215 10.70704267 30.57728631 7.41956445 31 4 C35.7109375 2.8828125 35.7109375 2.8828125 38.3125 3.9375 C39.1478125 4.4634375 39.1478125 4.4634375 40 5 C39.28529307 11.61291994 37.94741926 17.92148157 36.37304688 24.37695312 C35.28219628 29.04803133 34.80249706 33.20258981 35 38 C37.24875747 38.86850174 37.24875747 38.86850174 40 39 C45.6161489 35.84947745 48.05014997 30.29283344 49.77319336 24.31958008 C50.46037861 21.42962985 51.08827392 18.53442565 51.6875 15.625 C52.10600401 13.65841275 52.52647737 11.69224323 52.94921875 9.7265625 C53.12799561 8.86627441 53.30677246 8.00598633 53.4909668 7.11962891 C54 5 54 5 55 3 C60.75 3.875 60.75 3.875 63 5 C62.39960611 10.62474279 61.35247299 15.90606679 59.9375 21.375 C58.35243456 27.74242238 57.58100335 33.40080281 58 40 C63.80585217 39.64453966 67.78721795 38.12385789 72 34 C73.91830542 30.76003109 74.58503788 27.64433946 75.25390625 23.95703125 C75.46853516 22.80138672 75.68316406 21.64574219 75.90429688 20.45507812 C76.12150391 19.25302734 76.33871094 18.05097656 76.5625 16.8125 C76.997845 14.42254477 77.43646435 12.03318284 77.87890625 9.64453125 C78.0704126 8.58596924 78.26191895 7.52740723 78.45922852 6.43676758 C79 4 79 4 80 3 C82.69082872 3.17635452 85.32851446 3.61835921 88 4 C87.9278125 4.67546875 87.855625 5.3509375 87.78125 6.046875 C87.6884375 6.93890625 87.595625 7.8309375 87.5 8.75 C87.4071875 9.63171875 87.314375 10.5134375 87.21875 11.421875 C86.94363687 14.23304835 86.94363687 14.23304835 87 18 C87.91523438 17.07316406 88.83046875 16.14632812 89.7734375 15.19140625 C90.9738261 13.98163961 92.17435417 12.77201135 93.375 11.5625 C93.97828125 10.95083984 94.5815625 10.33917969 95.203125 9.70898438 C95.78320312 9.12568359 96.36328125 8.54238281 96.9609375 7.94140625 C97.49509277 7.40201416 98.02924805 6.86262207 98.57958984 6.30688477 C100.49357202 4.54587642 101.50389039 3.97997356 104.12890625 4.0859375 C104.93199219 4.18132812 105.73507812 4.27671875 106.5625 4.375 C107.36816406 4.46523437 108.17382812 4.55546875 109.00390625 4.6484375 C111 5 111 5 112 6 C111.67650262 12.0386178 110.39275523 17.65670802 108.9375 23.5 C107.45088741 29.48493661 106.54872359 34.79494938 107 41 C113.48462882 42.02388876 117.83877972 38.42721347 123 35 C123 35.99 123 36.98 123 38 C123.99 38.33 124.98 38.66 126 39 C124.42210402 40.15330947 122.8374518 41.29737927 121.25 42.4375 C119.92742187 43.39462891 119.92742187 43.39462891 118.578125 44.37109375 C113.50348097 47.57734612 107.87808323 47.71335962 102 47 C99.06576805 45.20353146 97.52794645 44.0558929 96 41 C95.23624677 33.48975995 97.28723578 27.4146618 99.80859375 20.453125 C100.78884257 17.61201039 101.50920159 14.9560732 102 12 C93.92528306 17.47620431 84.57162847 25.1219181 82.3046875 35.04296875 C82.16289062 36.08066406 82.02109375 37.11835938 81.875 38.1875 C81.0806175 43.83876501 81.0806175 43.83876501 80 46 C77.36 46 74.72 46 72 46 C72 44.35 72 42.7 72 41 C71.5153125 41.34933594 71.030625 41.69867188 70.53125 42.05859375 C65.59520048 45.40941198 62.02587699 47.09719156 56 47 C52.25377327 45.19626121 50.4894785 43.978957 48.625 40.25 C48.315625 39.13625 48.315625 39.13625 48 38 C47.2575 38.94875 46.515 39.8975 45.75 40.875 C43.23871921 44.08385879 40.85483049 45.65491526 36.81640625 46.40625 C32.3630601 46.5914845 30.53715031 46.40823423 26.875 43.625 C24.40365823 40.00715947 24.80671883 36.86830781 25.46875 32.6796875 C25.6440625 31.79539062 25.819375 30.91109375 26 30 C26.1753125 29.05382812 26.350625 28.10765625 26.53125 27.1328125 C26.99074433 24.74749637 27.48001488 22.37274763 28 20 C27.48953125 20.32742187 26.9790625 20.65484375 26.453125 20.9921875 C23.13227963 22.35648384 20.32627432 22.1912273 16.75 22.125 C15.48671875 22.10695313 14.2234375 22.08890625 12.921875 22.0703125 C11.95765625 22.04710938 10.9934375 22.02390625 10 22 C9.76925781 23.09699219 9.53851563 24.19398437 9.30078125 25.32421875 C8.97231325 26.77886273 8.64283235 28.23327826 8.3125 29.6875 C8.16361328 30.40873047 8.01472656 31.12996094 7.86132812 31.87304688 C6.33506569 38.42699734 3.23231563 41.41162157 -2.25 45.3125 C-6.41228952 47.53420138 -10.38450887 47.83382048 -15 47 C-19.40312815 44.75689698 -22.26284984 42.09402802 -25 38 C-25.8326155 29.26340072 -24.11794366 17.04489989 -18.6875 10 C-17.800625 9.34 -16.91375 8.68 -16 8 C-14.63875 6.9171875 -14.63875 6.9171875 -13.25 5.8125 C-9.74134661 3.85575099 -6.78180537 3.13671177 -2.85546875 2.4921875 C-2.24316406 2.32976562 -1.63085938 2.16734375 -1 2 C-0.67 1.34 -0.34 0.68 0 0 Z M119 39 C119.33 39.66 119.66 40.32 120 41 C120.33 40.34 120.66 39.68 121 39 C120.34 39 119.68 39 119 39 Z " fill="#F3F3F2" transform="translate(264,91)"/>
<path d="M0 0 C2.5 1.75 2.5 1.75 4 5 C5.32847969 15.50567844 2.90483916 24.10784576 -3.13671875 32.66796875 C-7.76005856 38.45441291 -12.63258886 44.06701589 -19.4375 47.1875 C-22.58917836 48.93206539 -22.98918975 49.96746005 -24.16015625 53.4921875 C-25.32356865 58.64265243 -26 63.71558797 -26 69 C-25.43152344 68.33613281 -24.86304688 67.67226562 -24.27734375 66.98828125 C-15.50486773 56.95631786 -15.50486773 56.95631786 -10 54 C-3.9 54.1 -3.9 54.1 -1 57 C-1.26525354 61.77456377 -2.27260744 66.03052554 -3.5625 70.625 C-5.33361316 77.38978831 -5.51625364 84.04050382 -5 91 C-4.67 91.33 -4.34 91.66 -4 92 C2.80268531 91.59183888 7.56095205 89.66897669 12.11328125 84.6875 C15.41926245 80.62603864 18.37235162 76.53350445 21 72 C22.485 72.495 22.485 72.495 24 73 C23.24833593 82.39580094 17.89279047 88.05575868 11 94 C5.17440131 98.26495773 -0.90870274 99.09180034 -8 98 C-10.61535154 96.95283776 -11.87816215 95.95432433 -14 94 C-17.52750416 83.41748752 -14.20302262 72.20963459 -11 62 C-19.16982879 67.14959953 -25.94150006 74.71069553 -29 84 C-29.40278645 86.07448183 -29.75607662 88.15911107 -30.0625 90.25 C-30.89556509 95.89556509 -30.89556509 95.89556509 -32 97 C-35.00003445 97.14177857 -37.99757235 97.04228771 -41 97 C-40.55882194 87.31020925 -38.65850633 78.14748963 -36.4375 68.75 C-36.10404943 67.31137578 -35.77136232 65.87257437 -35.43945312 64.43359375 C-34.63506814 60.95364812 -33.82046616 57.476194 -33 54 C-34.04800781 54.34224609 -34.04800781 54.34224609 -35.1171875 54.69140625 C-36.02726563 54.97886719 -36.93734375 55.26632813 -37.875 55.5625 C-38.77992188 55.85253906 -39.68484375 56.14257812 -40.6171875 56.44140625 C-43 57 -43 57 -45 56 C-45 55.34 -45 54.68 -45 54 C-47.31 54 -49.62 54 -52 54 C-51.67 53.01 -51.34 52.02 -51 51 C-51 51.66 -51 52.32 -51 53 C-48.04569256 52.40070624 -45.12148899 51.74955921 -42.1875 51.0625 C-41.35412109 50.89943359 -40.52074219 50.73636719 -39.66210938 50.56835938 C-37.16584505 49.95682474 -35.19698264 49.33991645 -33 48 C-31.28542599 45.16905532 -30.72432253 42.20436337 -30 39 C-29.43796111 37.3194856 -28.84998022 35.64745669 -28.23828125 33.984375 C-27.92810059 33.13166016 -27.61791992 32.27894531 -27.29833984 31.40039062 C-14.73465909 -2.37655792 -14.73465909 -2.37655792 0 0 Z " fill="#A006B7" transform="translate(736,40)"/>
<path d="M0 0 C3.15887025 1.72482246 4.92085024 3.19377536 6.9296875 6.20703125 C7.60656127 9.44098372 7.42351804 11.38292176 5.71484375 14.234375 C0.49071218 20.83521889 -5.61152337 23.28452315 -13.6953125 24.95703125 C-14.8709375 25.08078125 -14.8709375 25.08078125 -16.0703125 25.20703125 C-16.51325501 29.78151742 -16.51325501 29.78151742 -14.9375 33.90625 C-10.74283339 36.8284759 -4.91400165 35.79732139 -0.0703125 35.20703125 C3.60418633 33.99054186 6.73766301 32.3870817 9.9296875 30.20703125 C10.95707031 29.56378906 11.98445313 28.92054687 13.04296875 28.2578125 C17.43344272 24.51994829 17.74837935 18.99567865 18.6796875 13.58203125 C19.06489215 11.5054976 19.45528938 9.42991861 19.8515625 7.35546875 C20.09277832 5.98140869 20.09277832 5.98140869 20.33886719 4.57958984 C20.9296875 2.20703125 20.9296875 2.20703125 22.9296875 -0.79296875 C29.0546875 -1.23046875 29.0546875 -1.23046875 31.9296875 0.20703125 C31.5996875 2.18703125 31.2696875 4.16703125 30.9296875 6.20703125 C31.8784375 5.40265625 32.8271875 4.59828125 33.8046875 3.76953125 C38.31680804 -0.05596225 41.09344415 0.11289829 46.9296875 0.20703125 C47.20683594 0.91730469 47.48398437 1.62757812 47.76953125 2.359375 C48.31287109 3.73802734 48.31287109 3.73802734 48.8671875 5.14453125 C49.40666016 6.51931641 49.40666016 6.51931641 49.95703125 7.921875 C50.7293093 10.13121658 50.7293093 10.13121658 51.9296875 11.20703125 C53.61152698 11.43990133 55.3009291 11.61967291 56.9921875 11.76953125 C57.91128906 11.85332031 58.83039063 11.93710938 59.77734375 12.0234375 C60.48761719 12.08402344 61.19789063 12.14460938 61.9296875 12.20703125 C61.9296875 12.86703125 61.9296875 13.52703125 61.9296875 14.20703125 C57.15780346 16.75203607 52.20202732 16.90827842 46.9296875 16.20703125 C43.43326685 14.28043212 42.24737544 13.28228274 41.1171875 9.45703125 C41.0553125 8.71453125 40.9934375 7.97203125 40.9296875 7.20703125 C36.40529396 8.43398543 32.97136285 9.42893656 30.1796875 13.33203125 C26.82851946 19.39121387 25.79382452 26.45337661 24.38916016 33.16455078 C23.70154646 36.22117999 22.82509519 39.20524598 21.9296875 42.20703125 C19.6196875 42.20703125 17.3096875 42.20703125 14.9296875 42.20703125 C14.4346875 38.24703125 14.4346875 38.24703125 13.9296875 34.20703125 C13.45660156 34.53316406 12.98351562 34.85929687 12.49609375 35.1953125 C2.7701957 41.62236794 -6.32393331 43.65720152 -18.0703125 42.20703125 C-21.83881204 40.5842324 -24.18576143 38.09158232 -27.0703125 35.20703125 C-30.0403125 37.18703125 -33.0103125 39.16703125 -36.0703125 41.20703125 C-36.5653125 39.72203125 -36.5653125 39.72203125 -37.0703125 38.20703125 C-39.0503125 37.87703125 -41.0303125 37.54703125 -43.0703125 37.20703125 C-43.0703125 36.87703125 -43.0703125 36.54703125 -43.0703125 36.20703125 C-41.8946875 36.00078125 -40.7190625 35.79453125 -39.5078125 35.58203125 C-34.6440435 34.33801218 -31.21391252 32.14092178 -28.0703125 28.20703125 C-27.09686946 25.38404643 -26.52562432 23.10843319 -26.0703125 20.20703125 C-24.76598834 12.43284517 -23.48897014 7.45616491 -17.10546875 2.51171875 C-11.63955438 -0.99234152 -6.31337822 -2.41814298 0 0 Z " fill="#F3F3F3" transform="translate(470.0703125,94.79296875)"/>
<path d="M0 0 C2.31 0 4.62 0 7 0 C8 3 8 3 7.875 6.9375 C7.83833822 9.78664367 7.92472377 10.86020129 9.3125 13.4375 C12.83070607 16.69509821 16.97142166 16.20097788 21.48046875 16.16796875 C24.55827223 15.96278185 27.16362026 15.19426515 30 14 C30 14.66 30 15.32 30 16 C29.01 16.66 28.02 17.32 27 18 C26.505 19.485 26.505 19.485 26 21 C22.99686252 22.50156874 20.20932478 22.09281204 16.875 22.0625 C15.59367187 22.05347656 14.31234375 22.04445313 12.9921875 22.03515625 C11.51105469 22.01775391 11.51105469 22.01775391 10 22 C9.76925781 23.09699219 9.53851563 24.19398437 9.30078125 25.32421875 C8.97231325 26.77886273 8.64283235 28.23327826 8.3125 29.6875 C8.16361328 30.40873047 8.01472656 31.12996094 7.86132812 31.87304688 C6.33506569 38.42699734 3.23231563 41.41162157 -2.25 45.3125 C-6.41228952 47.53420138 -10.38450887 47.83382048 -15 47 C-19.40312815 44.75689698 -22.26284984 42.09402802 -25 38 C-25.8326155 29.26340072 -24.11794366 17.04489989 -18.6875 10 C-17.800625 9.34 -16.91375 8.68 -16 8 C-14.63875 6.9171875 -14.63875 6.9171875 -13.25 5.8125 C-9.74134661 3.85575099 -6.78180537 3.13671177 -2.85546875 2.4921875 C-2.24316406 2.32976562 -1.63085938 2.16734375 -1 2 C-0.67 1.34 -0.34 0.68 0 0 Z " fill="#F3F2F1" transform="translate(264,91)"/>
<path d="M0 0 C-0.66 3.3 -1.32 6.6 -2 10 C-12.56 9.67 -23.12 9.34 -34 9 C-35.60245321 16.76289596 -35.60245321 16.76289596 -37.20092773 24.52661133 C-37.40145752 25.4936499 -37.6019873 26.46068848 -37.80859375 27.45703125 C-38.11494751 28.9416687 -38.11494751 28.9416687 -38.42749023 30.45629883 C-39 33 -39 33 -40 36 C-23.39781118 35.47112089 -23.39781118 35.47112089 -7 33 C-7.66 35.64 -8.32 38.28 -9 41 C-19.56 41 -30.12 41 -41 41 C-41.33 43.64 -41.66 46.28 -42 49 C-42.60236501 53.15301031 -43.26819981 57.29480553 -43.9375 61.4375 C-44.10701172 62.53771484 -44.27652344 63.63792969 -44.45117188 64.77148438 C-44.62068359 65.81498047 -44.79019531 66.85847656 -44.96484375 67.93359375 C-45.1155835 68.88290771 -45.26632324 69.83222168 -45.42163086 70.81030273 C-45.61249268 71.53290283 -45.80335449 72.25550293 -46 73 C-48.98594424 74.49297212 -51.70853624 74.11755228 -55 74 C-55.66 73.67 -56.32 73.34 -57 73 C-55.68594148 62.6982675 -53.77216683 52.63847134 -51.5625 42.5 C-51.25932295 41.0925432 -50.95658746 39.68499121 -50.65429688 38.27734375 C-50.06119021 35.51899893 -49.465681 32.76119318 -48.86767578 30.00390625 C-48.0204986 26.09732652 -47.17887316 22.18958858 -46.33984375 18.28125 C-46.10515381 17.18876953 -45.87046387 16.09628906 -45.62866211 14.97070312 C-45.06722347 12.31766025 -44.5318274 9.65913698 -44 7 C-47.63 7 -51.26 7 -55 7 C-54.67 5.35 -54.34 3.7 -54 2 C-53.1300943 1.9845388 -53.1300943 1.9845388 -52.24261475 1.96876526 C-46.20801737 1.86060631 -40.17356647 1.74601586 -34.13916016 1.62768555 C-31.88691268 1.58436686 -29.63463301 1.54268958 -27.38232422 1.50268555 C-24.14540911 1.44490897 -20.90865558 1.38123548 -17.671875 1.31640625 C-16.16074127 1.29133751 -16.16074127 1.29133751 -14.61907959 1.26576233 C-13.67840637 1.24581711 -12.73773315 1.22587189 -11.76855469 1.20532227 C-10.94248718 1.18977798 -10.11641968 1.1742337 -9.26531982 1.15821838 C-6.05521879 0.93401296 -3.24129026 0 0 0 Z " fill="#F2F3F3" transform="translate(235,63)"/>
<path d="M0 0 C0.82593155 -0.00619858 1.6518631 -0.01239716 2.50282288 -0.01878357 C4.24690575 -0.02587664 5.99105641 -0.02271658 7.73510742 -0.01000977 C10.39824626 0.00384429 13.05786171 -0.03020273 15.72070312 -0.06835938 C17.41796961 -0.06931075 19.11524047 -0.06745075 20.8125 -0.0625 C21.60534897 -0.07575821 22.39819794 -0.08901642 23.21507263 -0.10267639 C27.21732019 -0.0355719 29.0750364 0.2978447 32.47460938 2.59399414 C34.99725872 6.34683576 35.17934194 9.37769753 35.1015625 13.75390625 C35.10397446 14.53403076 35.10638641 15.31415527 35.10887146 16.11791992 C35.10789503 17.76193339 35.09454997 19.40598057 35.06958008 21.04980469 C35.0352564 23.55908449 35.04893162 26.06484203 35.06835938 28.57421875 C35.06146051 30.17579616 35.05178775 31.77736453 35.0390625 33.37890625 C35.04402237 34.12487061 35.04898224 34.87083496 35.05409241 35.6394043 C34.9435857 40.55356201 33.98353463 43.12074923 30.47265625 46.56640625 C25.70792377 48.94877249 18.51207027 47.87866085 13.21557617 47.91650391 C11.51719451 47.93305449 9.81888224 47.9603331 8.12084961 47.99853516 C5.66874162 48.05340283 3.21826478 48.07519138 0.765625 48.08984375 C0.01024948 48.11251312 -0.74512604 48.1351825 -1.52339172 48.15853882 C-5.28377073 48.1435269 -7.36076457 47.67776393 -10.50634766 45.57495117 C-13.20631338 41.55566177 -13.2355199 38.64663807 -13.15625 33.90625 C-13.15866196 33.07936172 -13.16107391 32.25247345 -13.16355896 31.40052795 C-13.1625823 29.65816435 -13.14923186 27.91576902 -13.12426758 26.17358398 C-13.08990338 23.50853099 -13.10362914 20.84678584 -13.12304688 18.18164062 C-13.11614944 16.48566299 -13.10647798 14.7896939 -13.09375 13.09375 C-13.09870987 12.2988768 -13.10366974 11.5040036 -13.10877991 10.68504333 C-13.03744547 7.33214343 -12.76759374 4.96578184 -11.02490234 2.06884766 C-7.44310767 -0.08583117 -4.06183035 -0.02534511 0 0 Z M-7.52734375 6.56640625 C-7.62821587 9.07564778 -7.66706407 11.55677009 -7.66015625 14.06640625 C-7.66111298 14.81728516 -7.6620697 15.56816406 -7.66305542 16.34179688 C-7.66373713 17.93229252 -7.66188347 19.52279092 -7.65771484 21.11328125 C-7.65236642 23.5560528 -7.65766009 25.99864046 -7.6640625 28.44140625 C-7.66340172 29.98307332 -7.66212055 31.52474028 -7.66015625 33.06640625 C-7.66218048 33.80181641 -7.66420471 34.53722656 -7.66629028 35.29492188 C-7.95790888 38.71886967 -7.95790888 38.71886967 -6.52734375 41.56640625 C-3.93400227 41.65491295 -1.36671796 41.68173795 1.2265625 41.6640625 C1.91359253 41.66305542 2.60062256 41.66204834 3.30847168 41.66101074 C5.88405009 41.65576401 8.45960478 41.64180284 11.03515625 41.62890625 C16.78953125 41.60828125 22.54390625 41.58765625 28.47265625 41.56640625 C28.47265625 29.68640625 28.47265625 17.80640625 28.47265625 5.56640625 C22.71828125 5.54578125 16.96390625 5.52515625 11.03515625 5.50390625 C8.30794312 5.49025024 8.30794312 5.49025024 5.52563477 5.47631836 C4.09261143 5.47339914 2.65958727 5.47085059 1.2265625 5.46875 C0.47596558 5.46363403 -0.27463135 5.45851807 -1.04797363 5.45324707 C-4.58077961 5.1241773 -4.58077961 5.1241773 -7.52734375 6.56640625 Z " fill="#9D0BAC" transform="translate(21.52734375,116.43359375)"/>
<path d="M0 0 C0.85049927 -0.00619858 1.70099854 -0.01239716 2.57727051 -0.01878357 C4.37262834 -0.02587679 6.16805202 -0.02271634 7.96337891 -0.01000977 C10.70988947 0.0038615 13.45299569 -0.03022422 16.19921875 -0.06835938 C17.94531333 -0.06931056 19.69141218 -0.06745178 21.4375 -0.0625 C22.25738403 -0.07575821 23.07726807 -0.08901642 23.92199707 -0.10267639 C27.81849097 -0.03905547 29.63046343 0.09224865 32.734375 2.59399414 C34.61442454 6.35873149 34.79470513 9.63525129 34.75 13.75390625 C34.7538269 14.53403076 34.75765381 15.31415527 34.76159668 16.11791992 C34.76431005 17.76189469 34.75698905 19.40591306 34.74023438 21.04980469 C34.71881386 23.55892648 34.74005273 26.06518547 34.765625 28.57421875 C34.76298162 30.17578754 34.75785642 31.77735455 34.75 33.37890625 C34.75809692 34.12487061 34.76619385 34.87083496 34.77453613 35.6394043 C34.71334325 39.05721252 34.26623693 41.47131523 32.734375 44.53881836 C29.06694252 47.49476039 26.02488926 47.26949441 21.4375 47.1953125 C20.58700073 47.19772446 19.73650146 47.20013641 18.86022949 47.20262146 C17.06481252 47.20164341 15.26936525 47.18825956 13.47412109 47.16333008 C10.72779787 47.12901929 7.98469257 47.14267142 5.23828125 47.16210938 C3.49217382 47.15521073 1.74607469 47.14553818 0 47.1328125 C-0.81988403 47.13777237 -1.63976807 47.14273224 -2.48449707 47.14784241 C-6.03030908 47.07468852 -8.21272045 46.90546041 -11.296875 45.06616211 C-13.43339641 41.46816166 -13.35376025 38.07040144 -13.3125 34.00390625 C-13.3163269 33.17560303 -13.32015381 32.3472998 -13.32409668 31.49389648 C-13.32681425 29.74559308 -13.31946381 27.99724891 -13.30273438 26.24902344 C-13.28132082 23.57524848 -13.30253944 20.90416029 -13.328125 18.23046875 C-13.32548169 16.529942 -13.32035665 14.82941691 -13.3125 13.12890625 C-13.32464539 11.93189087 -13.32464539 11.93189087 -13.33703613 10.71069336 C-13.2804608 7.35630045 -13.02368694 4.97468123 -11.296875 2.06665039 C-7.57419391 -0.1534462 -4.26396051 -0.02579473 0 0 Z M-7.78125 6.56640625 C-7.88212212 9.07564778 -7.92097032 11.55677009 -7.9140625 14.06640625 C-7.91501923 14.81728516 -7.91597595 15.56816406 -7.91696167 16.34179688 C-7.91764338 17.93229252 -7.91578972 19.52279092 -7.91162109 21.11328125 C-7.90627267 23.5560528 -7.91156634 25.99864046 -7.91796875 28.44140625 C-7.91730797 29.98307332 -7.9160268 31.52474028 -7.9140625 33.06640625 C-7.91608673 33.80181641 -7.91811096 34.53722656 -7.92019653 35.29492188 C-8.21181513 38.71886967 -8.21181513 38.71886967 -6.78125 41.56640625 C-4.19935554 41.667321 -1.644785 41.70612124 0.9375 41.69921875 C2.09711243 41.70065384 2.09711243 41.70065384 3.28015137 41.70211792 C4.91772544 41.70279966 6.55530219 41.70094582 8.19287109 41.69677734 C10.70806921 41.69142896 13.22308873 41.69672251 15.73828125 41.703125 C17.32552123 41.70246422 18.9127611 41.70118305 20.5 41.69921875 C21.25728394 41.70124298 22.01456787 41.70326721 22.7947998 41.70535278 C26.29890563 42.01094309 26.29890563 42.01094309 29.21875 40.56640625 C29.31962212 38.05716472 29.35847032 35.57604241 29.3515625 33.06640625 C29.35251923 32.31552734 29.35347595 31.56464844 29.35446167 30.79101562 C29.35514338 29.20051998 29.35328972 27.61002158 29.34912109 26.01953125 C29.34377267 23.5767597 29.34906634 21.13417204 29.35546875 18.69140625 C29.35480797 17.14973918 29.3535268 15.60807222 29.3515625 14.06640625 C29.35358673 13.33099609 29.35561096 12.59558594 29.35769653 11.83789062 C29.64931513 8.41394283 29.64931513 8.41394283 28.21875 5.56640625 C25.63685554 5.4654915 23.082285 5.42669126 20.5 5.43359375 C19.72692505 5.43263702 18.9538501 5.4316803 18.15734863 5.43069458 C16.51977456 5.43001284 14.88219781 5.43186668 13.24462891 5.43603516 C10.72943079 5.44138354 8.21441127 5.43608999 5.69921875 5.4296875 C4.11197877 5.43034828 2.5247389 5.43162945 0.9375 5.43359375 C0.18021606 5.43156952 -0.57706787 5.42954529 -1.3572998 5.42745972 C-4.86140563 5.12186941 -4.86140563 5.12186941 -7.78125 6.56640625 Z " fill="#A30BB2" transform="translate(104.78125,33.43359375)"/>
<path d="M0 0 C6.125 -0.4375 6.125 -0.4375 9 1 C8.67 2.98 8.34 4.96 8 7 C8.94875 6.195625 9.8975 5.39125 10.875 4.5625 C15.38712054 0.7370065 18.16375665 0.90586704 24 1 C24.27714844 1.71027344 24.55429687 2.42054687 24.83984375 3.15234375 C25.38318359 4.53099609 25.38318359 4.53099609 25.9375 5.9375 C26.47697266 7.31228516 26.47697266 7.31228516 27.02734375 8.71484375 C27.7996218 10.92418533 27.7996218 10.92418533 29 12 C30.68183948 12.23287008 32.3712416 12.41264166 34.0625 12.5625 C34.98160156 12.64628906 35.90070312 12.73007813 36.84765625 12.81640625 C37.55792969 12.87699219 38.26820313 12.93757813 39 13 C39 13.66 39 14.32 39 15 C34.22811596 17.54500482 29.27233982 17.70124717 24 17 C20.50357935 15.07340087 19.31768794 14.07525149 18.1875 10.25 C18.125625 9.5075 18.06375 8.765 18 8 C13.47560646 9.22695418 10.04167535 10.22190531 7.25 14.125 C3.89883196 20.18418262 2.86413702 27.24634536 1.45947266 33.95751953 C0.77185896 37.01414874 -0.10459231 39.99821473 -1 43 C-3.31 43 -5.62 43 -8 43 C-7.67 39.7 -7.34 36.4 -7 33 C-9.475 33.495 -9.475 33.495 -12 34 C-9.25 28.25 -9.25 28.25 -7 26 C-6.29125605 23.63611036 -6.29125605 23.63611036 -5.78125 20.87890625 C-5.57113281 19.86119141 -5.36101562 18.84347656 -5.14453125 17.79492188 C-4.93183594 16.72822266 -4.71914063 15.66152344 -4.5 14.5625 C-4.07892944 12.45842319 -3.65209358 10.35548969 -3.21875 8.25390625 C-3.03248047 7.31877197 -2.84621094 6.3836377 -2.65429688 5.42016602 C-2 3 -2 3 0 0 Z " fill="#F3F3F3" transform="translate(493,94)"/>
<path d="M0 0 C2.5625 1.8125 2.5625 1.8125 3.5 4.375 C3.5625 6.8125 3.5625 6.8125 2.5625 8.8125 C0.06888429 7.60868552 -2.11893083 6.35821278 -4.4375 4.8125 C-6.97957971 4.47906449 -6.97957971 4.47906449 -9.4375 4.8125 C-10.0975 5.4725 -10.7575 6.1325 -11.4375 6.8125 C-11.3960901 11.20194938 -11.01035864 13.20338449 -7.96875 16.4375 C-6.9684375 17.22125 -5.968125 18.005 -4.9375 18.8125 C0.33519987 22.94368753 0.33519987 22.94368753 1.5078125 27.42578125 C1.57902913 31.83612553 0.38047384 33.47542571 -2.4375 36.8125 C-8.37456551 42.15585896 -12.61204615 43.26201939 -20.515625 43.13671875 C-24.64744802 42.67824106 -26.4020962 41.60826666 -29.4375 38.8125 C-31.4375 35.8125 -31.4375 35.8125 -31.0625 33.125 C-30.85625 32.361875 -30.65 31.59875 -30.4375 30.8125 C-28.7875 30.4825 -27.1375 30.1525 -25.4375 29.8125 C-24.98375 30.781875 -24.53 31.75125 -24.0625 32.75 C-22.77963779 35.88329582 -22.77963779 35.88329582 -20.4375 36.8125 C-15.23583553 37.27990945 -15.23583553 37.27990945 -10.4375 35.75 C-8.81480728 32.60603286 -9.03262234 30.29955442 -9.4375 26.8125 C-11.40307591 24.57417449 -13.07920229 22.93610035 -15.375 21.125 C-21.3205732 16.28020721 -21.3205732 16.28020721 -22.4375 11.8125 C-25.7375 11.8125 -29.0375 11.8125 -32.4375 11.8125 C-32.4375 11.4825 -32.4375 11.1525 -32.4375 10.8125 C-31.47650391 10.73515625 -31.47650391 10.73515625 -30.49609375 10.65625 C-25.12422903 9.95174315 -22.09182027 9.0569113 -18.5625 4.8125 C-17.79292969 3.760625 -17.79292969 3.760625 -17.0078125 2.6875 C-12.55226267 -2.6325595 -6.04299347 -2.08757956 0 0 Z " fill="#A30EB4" transform="translate(554.4375,95.1875)"/>
<path d="M0 0 C6.6 0.6 6.6 0.6 9 3 C8.73474646 7.77456377 7.72739256 12.03052554 6.4375 16.625 C4.66638684 23.38978831 4.48374636 30.04050382 5 37 C5.33 37.33 5.66 37.66 6 38 C12.80268531 37.59183888 17.56095205 35.66897669 22.11328125 30.6875 C25.41926245 26.62603864 28.37235162 22.53350445 31 18 C31.99 18.33 32.98 18.66 34 19 C33.24833593 28.39580094 27.89279047 34.05575868 21 40 C15.17440131 44.26495773 9.09129726 45.09180034 2 44 C-0.61535154 42.95283776 -1.87816215 41.95432433 -4 40 C-7.52750416 29.41748752 -4.20302262 18.20963459 -1 8 C-2.32 8.33 -3.64 8.66 -5 9 C-5.33 8.01 -5.66 7.02 -6 6 C-4 4 -2 2 0 0 Z " fill="#A508BC" transform="translate(726,94)"/>
<path d="M0 0 C0 1.98 0 3.96 0 6 C-0.78375 6.268125 -1.5675 6.53625 -2.375 6.8125 C-5.28114923 7.84814432 -5.28114923 7.84814432 -7 11 C-7.29598292 14.09335346 -7.29598292 14.09335346 -7.23950195 17.67114258 C-7.24151611 18.34469284 -7.24353027 19.0182431 -7.24560547 19.71220398 C-7.24914905 21.17396954 -7.24838623 22.63575044 -7.24382973 24.0975132 C-7.23823393 26.41412111 -7.24739975 28.73022878 -7.2610321 31.04679871 C-7.29814545 37.63286522 -7.31671446 44.21876349 -7.30541992 50.80493164 C-7.29955636 54.83517335 -7.317891 58.86471305 -7.35130882 62.89481163 C-7.35924607 64.42772141 -7.3580085 65.96070803 -7.34728432 67.49360085 C-7.33289497 69.64339586 -7.34928797 71.79099865 -7.37231445 73.94067383 C-7.37294388 75.16184402 -7.3735733 76.38301422 -7.3742218 77.64118958 C-8.21235175 82.13977965 -9.79522729 83.77093361 -13 87 C-15.99686799 88.56978799 -17.61244725 89 -21 89 C-21 87.02 -21 85.04 -21 83 C-20.030625 82.525625 -19.06125 82.05125 -18.0625 81.5625 C-15.19522563 80.29806053 -15.19522563 80.29806053 -14 79 C-13.89705929 76.85391653 -13.86426582 74.70445043 -13.8581543 72.5559082 C-13.85467987 71.88264999 -13.85120544 71.20939178 -13.84762573 70.51573181 C-13.8402558 69.04847864 -13.83491704 67.58121422 -13.83133507 66.11394691 C-13.82418307 63.789185 -13.80852443 61.46463584 -13.78999329 59.13993835 C-13.7374773 52.52829994 -13.68958051 45.91677392 -13.67407227 39.30493164 C-13.6639716 35.26406358 -13.63458919 31.22372428 -13.59275246 27.18306541 C-13.58046098 25.64459426 -13.57531783 24.10604831 -13.57755089 22.56752968 C-13.5799128 20.40813808 -13.55767174 18.25025204 -13.5300293 16.09106445 C-13.52416306 14.86386185 -13.51829681 13.63665924 -13.51225281 12.37226868 C-12.7477718 7.33952839 -10.54233762 4.15675322 -6.5 1.125 C-4 0 -4 0 0 0 Z " fill="#F5F6F8" transform="translate(84,54)"/>
<path d="M0 0 C3.4375 0.6875 3.4375 0.6875 5.4375 1.6875 C5.0117033 12.6943447 2.5325013 22.09881421 -4.5625 30.6875 C-7.35113007 32.08181504 -9.48328868 31.94410094 -12.5625 31.6875 C-15.50995371 27.26631943 -14.41937408 23.772556 -13.5625 18.6875 C-9.5000553 -0.83333818 -9.5000553 -0.83333818 0 0 Z " fill="#090909" transform="translate(412.5625,99.3125)"/>
<path d="M0 0 C5.75 0.875 5.75 0.875 8 2 C7.28529307 8.61291994 5.94741926 14.92148157 4.37304688 21.37695312 C3.04567815 27.06081409 2.10727313 32.32181939 4 38 C6.31 38 8.62 38 11 38 C11 38.99 11 39.98 11 41 C6.69028141 43.42360592 2.86046947 43.94964768 -2 43 C-5.83971425 40.08181717 -5.83971425 40.08181717 -7 37 C-7.21947168 33.54776987 -6.67033227 30.38123484 -6 27 C-5.8246875 26.05382812 -5.649375 25.10765625 -5.46875 24.1328125 C-5.00925567 21.74749637 -4.51998512 19.37274763 -4 17 C-4.66 17 -5.32 17 -6 17 C-5.34 15.68 -4.68 14.36 -4 13 C-3.34 13 -2.68 13 -2 13 C-2.02320313 12.39671875 -2.04640625 11.7934375 -2.0703125 11.171875 C-2.08835937 10.37265625 -2.10640625 9.5734375 -2.125 8.75 C-2.14820313 7.96109375 -2.17140625 7.1721875 -2.1953125 6.359375 C-1.9828378 3.79268059 -1.28654105 2.2083933 0 0 Z " fill="#F5F4F3" transform="translate(296,94)"/>
<path d="M0 0 C2.25 1.125 2.25 1.125 3.5625 3.125 C5.60943148 12.05706463 3.7382749 20.74883374 0.25 29.125 C-2.24470122 31.5397108 -3.34052866 32.06650409 -6.8125 32.5625 C-9.75 32.125 -9.75 32.125 -11.6875 30.6875 C-13.33517381 26.71369847 -12.49474995 23.22401138 -11.75 19.125 C-11.57339844 17.96226563 -11.39679688 16.79953125 -11.21484375 15.6015625 C-9.33501218 4.86288392 -9.33501218 4.86288392 -5.875 1.6875 C-2.75 0.125 -2.75 0.125 0 0 Z " fill="#080808" transform="translate(260.75,99.875)"/>
<path d="M0 0 C2.61761884 5.23523768 0.68565819 11.26547424 -1.03125 16.51953125 C-3.9463736 23.98365821 -8.88245825 29.86791999 -15 35 C-16.485 35.495 -16.485 35.495 -18 36 C-17.43959838 29.35924083 -15.18015061 23.6072513 -12.75 17.4375 C-12.36714844 16.42236328 -11.98429688 15.40722656 -11.58984375 14.36132812 C-5.98038966 0 -5.98038966 0 0 0 Z " fill="#0A030D" transform="translate(733,46)"/>
<path d="M0 0 C0.76978683 0.00424484 1.53957367 0.00848969 2.33268738 0.01286316 C4.77814521 0.02958278 7.22276232 0.06722105 9.66796875 0.10546875 C11.33136826 0.12052434 12.99478076 0.13421121 14.65820312 0.14648438 C18.72427957 0.1794641 22.78973188 0.23119869 26.85546875 0.29296875 C27.35046875 1.28296875 27.35046875 1.28296875 27.85546875 2.29296875 C24.22283356 3.41439657 20.75973663 3.46497721 16.97265625 3.5390625 C15.62759696 3.5719724 14.28254504 3.60518449 12.9375 3.63867188 C10.82638135 3.68623735 8.71529846 3.73074917 6.60400391 3.76977539 C4.55992617 3.80938562 2.51642055 3.86091902 0.47265625 3.9140625 C-0.74824707 3.93911865 -1.96915039 3.9641748 -3.22705078 3.98999023 C-6.26773673 3.99598451 -6.26773673 3.99598451 -8.14453125 6.29296875 C-8.51692352 9.10699558 -8.51692352 9.10699558 -8.55859375 12.39453125 C-8.59726563 13.60625 -8.6359375 14.81796875 -8.67578125 16.06640625 C-8.70671875 17.33742187 -8.73765625 18.6084375 -8.76953125 19.91796875 C-8.80820313 21.19671875 -8.846875 22.47546875 -8.88671875 23.79296875 C-8.98124174 26.95948892 -9.06679482 30.12599915 -9.14453125 33.29296875 C-10.46453125 33.95296875 -11.78453125 34.61296875 -13.14453125 35.29296875 C-13.26814651 30.79071084 -13.35887188 26.28944026 -13.41918945 21.78588867 C-13.44433203 20.25413814 -13.47845172 18.72250758 -13.52172852 17.19116211 C-13.58240067 14.98911991 -13.61074016 12.78866301 -13.6328125 10.5859375 C-13.65861893 9.90146042 -13.68442535 9.21698334 -13.71101379 8.51176453 C-13.7121582 6.57104492 -13.7121582 6.57104492 -13.14453125 3.29296875 C-9.34287662 -0.35074274 -4.99166061 -0.1044778 0 0 Z " fill="#B00BC1" transform="translate(22.14453125,117.70703125)"/>
<path d="M0 0 C2.475 0.99 2.475 0.99 5 2 C5.07413521 7.07198888 5.12859451 12.14366268 5.16479492 17.21606445 C5.17988516 18.94170627 5.20035975 20.66730972 5.22631836 22.39282227 C5.26269209 24.87265488 5.27972359 27.35198064 5.29296875 29.83203125 C5.30845261 30.60400345 5.32393646 31.37597565 5.33988953 32.17134094 C5.34158031 37.54769033 5.34158031 37.54769033 3.48168945 40.01049805 C2.99273193 40.33703369 2.50377441 40.66356934 2 41 C1.34 40.67 0.68 40.34 0 40 C0 26.8 0 13.6 0 0 Z " fill="#A711B9" transform="translate(51,120)"/>
<path d="M0 0 C2.875 0.6875 2.875 0.6875 3.875 1.6875 C4.22511141 4.68845498 4.43964264 6.78205727 3.875 9.6875 C-0.23400281 14.41285323 -4.07247519 15.53960736 -10.125 16.6875 C-9.76379592 11.08260915 -9.20525232 6.54482096 -6.125 1.6875 C-3.125 -0.3125 -3.125 -0.3125 0 0 Z " fill="#0E0F0F" transform="translate(464.125,98.3125)"/>
<path d="M0 0 C2.35171131 0.59861742 4.6859378 1.26924352 7 2 C8.50889469 5.01778937 8.50026276 6.62322637 8 10 C5.38295787 13.96610892 2.42816974 17.16966876 -1.6875 19.5625 C-4.19595613 20.03707278 -5.58198241 19.68722605 -8 19 C-7.57847656 18.52691406 -7.15695312 18.05382812 -6.72265625 17.56640625 C-2.96461533 13.03022979 -1.32191204 9.79892923 -1.10546875 3.8828125 C-1 2 -1 2 0 0 Z " fill="#F5F4F4" transform="translate(469,97)"/>
<path d="M0 0 C1.20475731 0.01214539 1.20475731 0.01214539 2.43385315 0.02453613 C3.26357132 0.02070923 4.09328949 0.01688232 4.94815063 0.01293945 C6.70243035 0.01021835 8.4567505 0.01759354 10.21095276 0.03430176 C12.89359822 0.05568323 15.57355747 0.03452266 18.25611877 0.00891113 C19.9612028 0.01155491 21.66628516 0.01668092 23.37135315 0.02453613 C24.57307411 0.01239075 24.57307411 0.01239075 25.79907227 0 C29.53148214 0.06268035 31.54631837 0.21708019 34.50636292 2.58898926 C35.23037292 3.56255371 35.23037292 3.56255371 35.9690094 4.55578613 C34.9790094 4.88578613 33.9890094 5.21578613 32.9690094 5.55578613 C32.6390094 17.10578613 32.3090094 28.65578613 31.9690094 40.55578613 C31.6390094 40.55578613 31.3090094 40.55578613 30.9690094 40.55578613 C30.9690094 29.00578613 30.9690094 17.45578613 30.9690094 5.55578613 C19.7490094 5.55578613 8.5290094 5.55578613 -3.0309906 5.55578613 C-3.0309906 5.22578613 -3.0309906 4.89578613 -3.0309906 4.55578613 C-2.13791199 4.53072998 -1.24483337 4.50567383 -0.32469177 4.4798584 C2.99086394 4.38468427 6.30624669 4.2854533 9.62159729 4.18347168 C11.05611943 4.1401782 12.49069124 4.09849914 13.92530823 4.05847168 C15.9882046 4.00063346 18.05085223 3.9369786 20.11354065 3.87219238 C21.35466614 3.83553467 22.59579163 3.79887695 23.87452698 3.7611084 C27.00454287 3.68434492 27.00454287 3.68434492 29.9690094 2.55578613 C25.05772873 2.50629261 20.14659374 2.47002232 15.23512268 2.44592285 C13.56484955 2.43587463 11.89459397 2.42223377 10.22438049 2.40490723 C7.82150436 2.38060687 5.41886113 2.36929126 3.0158844 2.36047363 C2.27094727 2.35015106 1.52601013 2.33982849 0.75849915 2.32919312 C-3.00026702 2.32838245 -5.84272771 2.45211496 -9.0309906 4.55578613 C-6.91972358 0.27910342 -4.56434594 0.07697467 0 0 Z " fill="#8A0A98" transform="translate(19.030990600585938,116.4442138671875)"/>
<path d="M0 0 C2.4375 0.5 2.4375 0.5 4.3125 1.5625 C6.13773223 4.70595551 5.29096115 7.08615541 4.4375 10.5 C3.25 12.4375 3.25 12.4375 1.4375 13.5 C-1.625 13.8125 -1.625 13.8125 -4.5625 13.5 C-6.5625 11.5 -6.5625 11.5 -6.9375 8.6875 C-6.39561938 4.08151474 -4.77246586 0.93121285 0 0 Z " fill="#A30BB8" transform="translate(653.5625,69.5)"/>
<path d="M0 0 C0.33 0 0.66 0 1 0 C1.33 10.89 1.66 21.78 2 33 C13.22 33.33 24.44 33.66 36 34 C36 34.33 36 34.66 36 35 C24.78 35.33 13.56 35.66 2 36 C1.67 36.99 1.34 37.98 1 39 C-2.875 37.25 -2.875 37.25 -4 35 C-4.039992 33.00039988 -4.04346799 30.99952758 -4 29 C-3.34 29 -2.68 29 -2 29 C-0.94163339 25.82490018 -0.79756211 23.35717617 -0.68359375 20.01953125 C-0.62075195 18.27446289 -0.62075195 18.27446289 -0.55664062 16.49414062 C-0.51732422 15.27919922 -0.47800781 14.06425781 -0.4375 12.8125 C-0.39431641 11.58595703 -0.35113281 10.35941406 -0.30664062 9.09570312 C-0.2004691 6.06391619 -0.09842048 3.03204685 0 0 Z " fill="#890D9A" transform="translate(13,124)"/>
<path d="M0 0 C1.39850246 2.79700492 1.0101384 4.98115359 0.87890625 8.1015625 C0.83056641 9.31328125 0.78222656 10.525 0.73242188 11.7734375 C0.67634766 13.04445312 0.62027344 14.31546875 0.5625 15.625 C0.51029297 16.90375 0.45808594 18.1825 0.40429688 19.5 C0.2743123 22.666897 0.13933598 25.83350287 0 29 C-1.98 29.99 -1.98 29.99 -4 31 C-4.09895097 27.06745992 -4.1715042 23.13540254 -4.21972656 19.2019043 C-4.24971281 17.20660986 -4.30053786 15.21166418 -4.3515625 13.21679688 C-4.37089844 11.33637695 -4.37089844 11.33637695 -4.390625 9.41796875 C-4.41157227 8.26063232 -4.43251953 7.1032959 -4.45410156 5.91088867 C-4 3 -4 3 -1.97558594 1.09887695 C-1.32364258 0.73624756 -0.67169922 0.37361816 0 0 Z " fill="#B311CB" transform="translate(13,122)"/>
<path d="M0 0 C1.32 0 2.64 0 4 0 C4.45375 0.969375 4.9075 1.93875 5.375 2.9375 C6.65786221 6.07079582 6.65786221 6.07079582 9 7 C10.91500303 7.15898854 10.91500303 7.15898854 13 7.125 C13.70125 7.12757813 14.4025 7.13015625 15.125 7.1328125 C17.09153775 7.11377236 17.09153775 7.11377236 19 6 C18.34 7.32 17.68 8.64 17 10 C15.02 10 13.04 10 11 10 C11 10.33 11 10.66 11 11 C4.83087028 12.45155993 4.83087028 12.45155993 1.125 10.4375 C-1.3970408 7.54457085 -1.91714201 5.81146743 -2 2 C-1.34 1.34 -0.68 0.68 0 0 Z " fill="#980DA8" transform="translate(525,125)"/>
<path d="M0 0 C0.66 0.33 1.32 0.66 2 1 C2 1.66 2 2.32 2 3 C2.99 3 3.98 3 5 3 C4.67 4.32 4.34 5.64 4 7 C3.67 6.34 3.34 5.68 3 5 C2.25556641 5.50660156 2.25556641 5.50660156 1.49609375 6.0234375 C-2.95534637 8.94601488 -6.80822254 10.81021767 -12 12 C-12 10.68 -12 9.36 -12 8 C-15.63 8 -19.26 8 -23 8 C-23 7.67 -23 7.34 -23 7 C-21.87464844 6.97873047 -21.87464844 6.97873047 -20.7265625 6.95703125 C-13.39311525 6.6152963 -5.47268518 5.47268518 0 0 Z " fill="#D6D7DB" transform="translate(481,124)"/>
<path d="M0 0 C2 3 2 3 1.8125 5.3125 C0.87052587 8.4282606 -0.49755296 11.11530169 -2 14 C-2.226875 14.86625 -2.45375 15.7325 -2.6875 16.625 C-4.73547682 20.33086283 -8.19777353 21.4172127 -12 23 C-12.12375 22.360625 -12.2475 21.72125 -12.375 21.0625 C-12.58125 20.381875 -12.7875 19.70125 -13 19 C-13.66 18.67 -14.32 18.34 -15 18 C-13.96939453 17.51080078 -13.96939453 17.51080078 -12.91796875 17.01171875 C-11.56638672 16.35623047 -11.56638672 16.35623047 -10.1875 15.6875 C-9.29417969 15.25824219 -8.40085937 14.82898438 -7.48046875 14.38671875 C-4.08105303 12.48625799 -2.38805113 11.31771375 -1.26953125 7.51953125 C-1.04330078 6.17955078 -1.04330078 6.17955078 -0.8125 4.8125 C-0.57466797 3.46091797 -0.57466797 3.46091797 -0.33203125 2.08203125 C-0.22246094 1.39496094 -0.11289062 0.70789063 0 0 Z " fill="#9604AE" transform="translate(671,113)"/>
<path d="M0 0 C1.49789402 2.99578804 1.00082655 5.64407419 0.87890625 8.9765625 C0.85529526 9.66181 0.83168427 10.3470575 0.80735779 11.05307007 C0.73072143 13.24392416 0.64669754 15.43442472 0.5625 17.625 C0.50927924 19.10935764 0.45653884 20.59373259 0.40429688 22.078125 C0.2751067 25.71896737 0.13928926 29.35952844 0 33 C-1.32 33 -2.64 33 -4 33 C-4.05410687 31.22950311 -4.09284119 29.45853151 -4.125 27.6875 C-4.14820312 26.70136719 -4.17140625 25.71523437 -4.1953125 24.69921875 C-4 22 -4 22 -2 19 C-1.6523888 16.99045135 -1.6523888 16.99045135 -1.62109375 14.8046875 C-1.58693359 14.00675781 -1.55277344 13.20882812 -1.51757812 12.38671875 C-1.49115234 11.55785156 -1.46472656 10.72898437 -1.4375 9.875 C-1.1205036 1.1205036 -1.1205036 1.1205036 0 0 Z " fill="#B30BC6" transform="translate(96,39)"/>
<path d="M0 0 C2.475 0.99 2.475 0.99 5 2 C3.60186993 5.37881434 2.17112209 7.15017878 -1 9 C-4.25 9.6875 -4.25 9.6875 -7 10 C-7 8.02 -7 6.04 -7 4 C-6.030625 3.525625 -5.06125 3.05125 -4.0625 2.5625 C-1.19522563 1.29806053 -1.19522563 1.29806053 0 0 Z " fill="#ECECEE" transform="translate(70,133)"/>
<path d="M0 0 C0.33 0.66 0.66 1.32 1 2 C0.01 2.66 -0.98 3.32 -2 4 C-2.33 4.99 -2.66 5.98 -3 7 C-5.52475462 8.26237731 -7.31200466 8.09856404 -10.125 8.0625 C-11.03507812 8.05347656 -11.94515625 8.04445313 -12.8828125 8.03515625 C-13.58148438 8.02355469 -14.28015625 8.01195313 -15 8 C-14.67 6.68 -14.34 5.36 -14 4 C-15.32 3.34 -16.64 2.68 -18 2 C-16.67935547 2.03480469 -16.67935547 2.03480469 -15.33203125 2.0703125 C-13.58986328 2.09738281 -13.58986328 2.09738281 -11.8125 2.125 C-10.66394531 2.14820312 -9.51539063 2.17140625 -8.33203125 2.1953125 C-5.08259628 2.00484152 -2.91339479 1.39360127 0 0 Z " fill="#F3F0ED" transform="translate(293,105)"/>
<path d="M0 0 C5.50263621 -0.28461911 9.32125724 -0.30935464 14 3 C14.9375 5.5625 14.9375 5.5625 15 8 C14.67 8.66 14.34 9.32 14 10 C10.66666667 8.33333333 7.33333333 6.66666667 4 5 C4 4.01 4 3.02 4 2 C2.68 1.34 1.36 0.68 0 0 Z " fill="#930AA5" transform="translate(543,94)"/>
<path d="M0 0 C0.66 0.33 1.32 0.66 2 1 C0.02 3.97 0.02 3.97 -2 7 C-1.67 7.66 -1.34 8.32 -1 9 C-2.28716647 10.00578589 -3.57988658 11.00446798 -4.875 12 C-5.59429687 12.556875 -6.31359375 13.11375 -7.0546875 13.6875 C-9 15 -9 15 -11 15 C-11.66 15.66 -12.32 16.32 -13 17 C-13.99 17 -14.98 17 -16 17 C-14.54991051 14.09982103 -12.31443152 12.26220175 -10 10 C-9.11699219 9.11699219 -8.23398437 8.23398438 -7.32421875 7.32421875 C-4.8828125 4.8828125 -2.44140625 2.44140625 0 0 Z " fill="#EBE9E7" transform="translate(364,96)"/>
<path d="M0 0 C6.27 0 12.54 0 19 0 C19 0.33 19 0.66 19 1 C21.31 1.33 23.62 1.66 26 2 C26 2.33 26 2.66 26 3 C17.09 3 8.18 3 -1 3 C-0.67 2.01 -0.34 1.02 0 0 Z " fill="#AF07C5" transform="translate(106,35)"/>
<path d="M0 0 C0.66 0.66 1.32 1.32 2 2 C0 5 0 5 -3 6 C-3.33 6.99 -3.66 7.98 -4 9 C-6.64458379 10.32229189 -8.67761301 10.09677194 -11.625 10.0625 C-12.62789062 10.05347656 -13.63078125 10.04445312 -14.6640625 10.03515625 C-15.43492187 10.02355469 -16.20578125 10.01195312 -17 10 C-17 9.67 -17 9.34 -17 9 C-14.36 9 -11.72 9 -9 9 C-9 8.2575 -9 7.515 -9 6.75 C-7.79334286 3.43169286 -7.01007481 3.19940189 -3.9375 1.6875 C-2.63271056 1.10733879 -1.32226452 0.53914658 0 0 Z " fill="#9C06B1" transform="translate(745,128)"/>
<path d="M0 0 C2.71486934 3.97610786 2.22440753 8.13901977 2.125 12.75 C2.11597656 13.54277344 2.10695313 14.33554687 2.09765625 15.15234375 C2.07417012 17.10169281 2.03830137 19.05088575 2 21 C1.01 21.33 0.02 21.66 -1 22 C-1.02903577 18.89585298 -1.0468107 15.79174091 -1.0625 12.6875 C-1.07087891 11.80642578 -1.07925781 10.92535156 -1.08789062 10.01757812 C-1.09111328 9.17001953 -1.09433594 8.32246094 -1.09765625 7.44921875 C-1.10289307 6.66893311 -1.10812988 5.88864746 -1.11352539 5.0847168 C-1 3 -1 3 0 0 Z " fill="#A70AB7" transform="translate(93,39)"/>
<path d="M0 0 C-1.59231949 4.29926263 -4.39313359 6.35005733 -8 9 C-8.99 9 -9.98 9 -11 9 C-11.5 6.8125 -11.5 6.8125 -11 4 C-7.51647946 0.92248418 -4.58519608 -1.52839869 0 0 Z " fill="#A907BE" transform="translate(727,77)"/>
<path d="M0 0 C0.66 0.33 1.32 0.66 2 1 C1.52949219 1.51949219 1.05898438 2.03898437 0.57421875 2.57421875 C-2.70444665 6.24659552 -5.48191494 9.75901463 -8 14 C-8.66 14 -9.32 14 -10 14 C-10.05794427 11.16073075 -10.04896278 9.58744151 -9 7 C-6.24024505 4.30273007 -3.20907393 2.13289964 0 0 Z " fill="#AA07BF" transform="translate(591,101)"/>
<path d="M0 0 C0.33 0.99 0.66 1.98 1 3 C1.66 3.33 2.32 3.66 3 4 C1.35 5.98 -0.3 7.96 -2 10 C-2.33 9.34 -2.66 8.68 -3 8 C-5.31 8 -7.62 8 -10 8 C-9.443125 7.7525 -8.88625 7.505 -8.3125 7.25 C-4.95956419 5.43760226 -1.73442754 3.46885508 0 0 Z " fill="#E3E3E5" transform="translate(310,124)"/>
<path d="M0 0 C0 0.66 0 1.32 0 2 C-1.32 2 -2.64 2 -4 2 C-4.33 2.99 -4.66 3.98 -5 5 C-5.99 5.33 -6.98 5.66 -8 6 C-9.20882096 8.00016466 -9.20882096 8.00016466 -10 10 C-10.33 7.69 -10.66 5.38 -11 3 C-7.16674383 0.29417212 -4.67461851 -0.32613618 0 0 Z " fill="#A60EB7" transform="translate(20,118)"/>
<path d="M0 0 C4.94708064 0.08004985 7.76824743 1.62146634 11.8125 4.375 C10.4925 4.705 9.1725 5.035 7.8125 5.375 C7.8125 4.715 7.8125 4.055 7.8125 3.375 C7.1525 3.375 6.4925 3.375 5.8125 3.375 C5.4825 4.365 5.1525 5.355 4.8125 6.375 C3.8225 6.045 2.8325 5.715 1.8125 5.375 C1.8125 4.715 1.8125 4.055 1.8125 3.375 C2.4725 3.375 3.1325 3.375 3.8125 3.375 C3.8125 2.715 3.8125 2.055 3.8125 1.375 C0.5125 1.705 -2.7875 2.035 -6.1875 2.375 C-3.82657851 0.01407851 -3.22499516 0.05550766 0 0 Z " fill="#D8D7D8" transform="translate(463.1875,93.625)"/>
<path d="M0 0 C-0.598125 0.2475 -1.19625 0.495 -1.8125 0.75 C-4.11134072 1.86269289 -4.11134072 1.86269289 -5.4375 4 C-7.38545609 6.4933838 -9.03850144 6.98875659 -12 8 C-13.339572 8.65404058 -14.67406641 9.31873476 -16 10 C-15.06409496 8.8944811 -14.12620142 7.79064547 -13.1875 6.6875 C-12.66542969 6.07261719 -12.14335938 5.45773438 -11.60546875 4.82421875 C-11.07566406 4.22222656 -10.54585937 3.62023437 -10 3 C-9.5153125 2.4328125 -9.030625 1.865625 -8.53125 1.28125 C-5.97112734 -0.86089345 -3.18686303 -0.18038847 0 0 Z " fill="#9706AA" transform="translate(600,96)"/>
<path d="M0 0 C1.51400391 0.01740234 1.51400391 0.01740234 3.05859375 0.03515625 C4.07050781 0.04417969 5.08242188 0.05320312 6.125 0.0625 C7.29869141 0.07990234 7.29869141 0.07990234 8.49609375 0.09765625 C8.49609375 0.42765625 8.49609375 0.75765625 8.49609375 1.09765625 C4.04109375 1.59265625 4.04109375 1.59265625 -0.50390625 2.09765625 C-0.50390625 3.08765625 -0.50390625 4.07765625 -0.50390625 5.09765625 C0.81609375 5.75765625 2.13609375 6.41765625 3.49609375 7.09765625 C0.52609375 7.09765625 -2.44390625 7.09765625 -5.50390625 7.09765625 C-3.27951797 0.12790632 -3.27951797 0.12790632 0 0 Z " fill="#7E0796" transform="translate(665.50390625,94.90234375)"/>
<path d="M0 0 C-1.07924279 3.23772838 -1.75143068 3.86999864 -4.3125 5.9375 C-7.02171682 8.1728826 -9.56215658 10.46464284 -12 13 C-12.66 12.67 -13.32 12.34 -14 12 C-12.75479583 10.55834372 -11.50362077 9.12184348 -10.25 7.6875 C-9.55390625 6.88699219 -8.8578125 6.08648437 -8.140625 5.26171875 C-3.16062176 0 -3.16062176 0 0 0 Z " fill="#1A061F" transform="translate(725,102)"/>
<path d="M0 0 C0.66 0.33 1.32 0.66 2 1 C-2.29 5.29 -6.58 9.58 -11 14 C-11 10.30159372 -10.17133056 9.68584567 -7.75 7 C-7.14671875 6.319375 -6.5434375 5.63875 -5.921875 4.9375 C-4.06233388 3.06284066 -2.15205789 1.52358081 0 0 Z " fill="#DDDDDE" transform="translate(448,34)"/>
<path d="M0 0 C1 3 1 3 -0.43359375 5.91796875 C-1.09488281 6.99691406 -1.75617187 8.07585937 -2.4375 9.1875 C-3.09621094 10.27417969 -3.75492188 11.36085938 -4.43359375 12.48046875 C-5.20896484 13.72763672 -5.20896484 13.72763672 -6 15 C-7 12 -7 12 -5.8125 9.1875 C-4.00217277 6.00382108 -2.07965607 3.01191568 0 0 Z " fill="#A804BF" transform="translate(605,108)"/>
<path d="M0 0 C0.66 0.33 1.32 0.66 2 1 C1.67 3.97 1.34 6.94 1 10 C0.01 9.67 -0.98 9.34 -2 9 C-2 7.02 -2 5.04 -2 3 C-1.34 3 -0.68 3 0 3 C0 2.01 0 1.02 0 0 Z " fill="#A30FB5" transform="translate(11,150)"/>
<path d="M0 0 C0.33 0.66 0.66 1.32 1 2 C0.01 2.66 -0.98 3.32 -2 4 C-2.99 5.485 -2.99 5.485 -4 7 C-4 6.01 -4 5.02 -4 4 C-4.84304688 4.02320312 -5.68609375 4.04640625 -6.5546875 4.0703125 C-8.19824219 4.09738281 -8.19824219 4.09738281 -9.875 4.125 C-10.96554687 4.14820312 -12.05609375 4.17140625 -13.1796875 4.1953125 C-16 4 -16 4 -18 2 C-16.67935547 2.03480469 -16.67935547 2.03480469 -15.33203125 2.0703125 C-13.58986328 2.09738281 -13.58986328 2.09738281 -11.8125 2.125 C-10.66394531 2.14820312 -9.51539063 2.17140625 -8.33203125 2.1953125 C-5.08259628 2.00484152 -2.91339479 1.39360127 0 0 Z " fill="#CFCED0" transform="translate(293,105)"/>
<path d="M0 0 C1.258125 -0.020625 2.51625 -0.04125 3.8125 -0.0625 C4.52019531 -0.07410156 5.22789062 -0.08570312 5.95703125 -0.09765625 C8 0 8 0 11 1 C10.67 1.99 10.34 2.98 10 4 C8.02 4.33 6.04 4.66 4 5 C4 4.01 4 3.02 4 2 C2.68 1.34 1.36 0.68 0 0 Z " fill="#88089C" transform="translate(543,94)"/>
<path d="M0 0 C-0.33 1.32 -0.66 2.64 -1 4 C-1.66 4 -2.32 4 -3 4 C-4.70680947 5.62553283 -6.37660195 7.29115995 -8 9 C-8.66 8.67 -9.32 8.34 -10 8 C-8.90653119 6.65787938 -7.7998425 5.32652025 -6.6875 4 C-5.76517578 2.88625 -5.76517578 2.88625 -4.82421875 1.75 C-3 0 -3 0 0 0 Z " fill="#24092A" transform="translate(595,102)"/>
<path d="M0 0 C0.66 0.33 1.32 0.66 2 1 C2.625 3.0625 2.625 3.0625 3 5 C1.25 6.125 1.25 6.125 -1 7 C-3.25 6.125 -3.25 6.125 -5 5 C-3.35 3.35 -1.7 1.7 0 0 Z " fill="#8A04A2" transform="translate(719,99)"/>
<path d="M0 0 C0.66 0.33 1.32 0.66 2 1 C1.67 1.61875 1.34 2.2375 1 2.875 C-0.14193235 4.91018344 -0.14193235 4.91018344 0 7 C-0.99 7.33 -1.98 7.66 -3 8 C-3 7.01 -3 6.02 -3 5 C-5.97 4.505 -5.97 4.505 -9 4 C-9 3.67 -9 3.34 -9 3 C-8.43410156 2.86722656 -7.86820312 2.73445312 -7.28515625 2.59765625 C-6.18494141 2.33275391 -6.18494141 2.33275391 -5.0625 2.0625 C-4.33160156 1.88847656 -3.60070312 1.71445313 -2.84765625 1.53515625 C-1.00030102 1.16112431 -1.00030102 1.16112431 0 0 Z " fill="#D0D0D3" transform="translate(436,128)"/>
<path d="M0 0 C0 0.99 0 1.98 0 3 C-0.33 3.33 -0.66 3.66 -1 4 C-0.01 4.66 0.98 5.32 2 6 C0.25 7.0625 0.25 7.0625 -2 8 C-3.32 7.67 -4.64 7.34 -6 7 C-4.02 4.69 -2.04 2.38 0 0 Z " fill="#9107A9" transform="translate(638,123)"/>
<path d="M0 0 C2.64 0.33 5.28 0.66 8 1 C8 2.65 8 4.3 8 6 C7.34 4.68 6.68 3.36 6 2 C2.06924356 2.57452746 2.06924356 2.57452746 -1 5 C-0.67 3.35 -0.34 1.7 0 0 Z " fill="#D0D0CF" transform="translate(344,94)"/>
<path d="M0 0 C0.99 0.33 1.98 0.66 3 1 C2.67 1.99 2.34 2.98 2 4 C1.34 4 0.68 4 0 4 C-1.69774938 5.29352333 -3.36739286 6.62517293 -5 8 C-5 5 -5 5 -2.5 2.3125 C-1.675 1.549375 -0.85 0.78625 0 0 Z " fill="#E4E5E6" transform="translate(413,127)"/>
<path d="M0 0 C-0.99 1.485 -0.99 1.485 -2 3 C-2 3.66 -2 4.32 -2 5 C-3.32 5.33 -4.64 5.66 -6 6 C-6 5.01 -6 4.02 -6 3 C-6.66 2.34 -7.32 1.68 -8 1 C-2.25 -1.125 -2.25 -1.125 0 0 Z " fill="#DDDDDF" transform="translate(464,113)"/>
<path d="M0 0 C0 2 0 2 -1.875 4.125 C-4 6 -4 6 -6 6 C-6.33 4.35 -6.66 2.7 -7 1 C-4.53721199 -0.231394 -2.7204945 -0.07159196 0 0 Z " fill="#9108A6" transform="translate(695,66)"/>
<path d="M0 0 C1.134375 0.020625 2.26875 0.04125 3.4375 0.0625 C3.1075 1.0525 2.7775 2.0425 2.4375 3.0625 C0.1275 3.3925 -2.1825 3.7225 -4.5625 4.0625 C-4.5625 -0.28271095 -4.43767807 0.077854 0 0 Z " fill="#A907BB" transform="translate(102.5625,34.9375)"/>
<path d="M0 0 C1.11375 0.3403125 1.11375 0.3403125 2.25 0.6875 C2.25 1.3475 2.25 2.0075 2.25 2.6875 C0.9196875 2.56375 0.9196875 2.56375 -0.4375 2.4375 C-4.44008159 2.73958163 -5.87835434 3.98477467 -8.75 6.6875 C-6.97710463 2.40300285 -4.94524284 -0.56195941 0 0 Z " fill="#282A29" transform="translate(260.75,100.3125)"/>
<path d="M0 0 C2.31 0 4.62 0 7 0 C6.75 1.875 6.75 1.875 6 4 C3.9375 5.25 3.9375 5.25 2 6 C2 4.35 2 2.7 2 1 C1.34 0.67 0.68 0.34 0 0 Z " fill="#9B06AF" transform="translate(541,95)"/>
<path d="M0 0 C0.66 0.33 1.32 0.66 2 1 C-0.64 3.64 -3.28 6.28 -6 9 C-6.33 8.34 -6.66 7.68 -7 7 C-4.66666667 4.66666667 -2.33333333 2.33333333 0 0 Z " fill="#D2D2D2" transform="translate(250,97)"/>
<path d="M0 0 C2.31 0 4.62 0 7 0 C7.33 0.66 7.66 1.32 8 2 C5.69 2.33 3.38 2.66 1 3 C0.67 2.01 0.34 1.02 0 0 Z " fill="#A90CB8" transform="translate(42,118)"/>
<path d="M0 0 C-0.33 1.32 -0.66 2.64 -1 4 C-1.33 3.34 -1.66 2.68 -2 2 C-4.475 3.485 -4.475 3.485 -7 5 C-6.6875 3.0625 -6.6875 3.0625 -6 1 C-3 0 -3 0 0 0 Z " fill="#DFE0E4" transform="translate(486,127)"/>
</svg>
