<?xml version="1.0" encoding="UTF-8"?>
<svg version="1.1" xmlns="http://www.w3.org/2000/svg" width="2000" height="430">
<path d="M0 0 C6.96130875 5.72374275 11.16758535 12.11564125 14.8125 20.3125 C15.34037109 19.24322266 15.34037109 19.24322266 15.87890625 18.15234375 C21.66659643 6.92452702 27.91628807 0.98321298 39.8125 -3.6875 C51.24979397 -6.29047035 65.34038637 -6.2205272 75.8125 -0.6875 C85.69868855 5.87305938 89.52346075 14.4522981 91.82243061 25.79496098 C93.47275854 34.87737005 93.18320843 44.05009422 93.10546875 53.24609375 C93.09985925 55.22005386 93.09559557 57.1940182 93.09260559 59.16798401 C93.08126329 64.31194 93.05189009 69.45563355 93.01849365 74.5994873 C92.98756124 79.86902315 92.9740512 85.13860226 92.95898438 90.40820312 C92.92700804 100.70976807 92.8743295 111.01107094 92.8125 121.3125 C85.8825 121.3125 78.9525 121.3125 71.8125 121.3125 C71.79062622 117.63528809 71.79062622 117.63528809 71.76831055 113.88378906 C71.71776564 105.74529461 71.65113651 97.60698751 71.57678509 89.46867752 C71.53223276 84.53886835 71.49294403 79.60913894 71.46606445 74.67919922 C71.43987951 69.91334311 71.39937191 65.14779649 71.34931374 60.38213348 C71.33274706 58.57230252 71.32116976 56.76241815 71.31488609 54.95252228 C71.38081001 36.13060441 71.38081001 36.13060441 63.8125 19.3125 C56.37663204 13.76537653 48.7683368 13.62285267 39.8125 14.3125 C32.76568538 16.0390165 26.37464491 19.30218623 22.375 25.5625 C21.12092247 27.78563743 19.94120887 30.02360432 18.8125 32.3125 C18.3175 33.3025 18.3175 33.3025 17.8125 34.3125 C17.68991736 37.05778831 17.62678213 39.77936032 17.60717773 42.52587891 C17.59727814 43.3747316 17.58737854 44.22358429 17.57717896 45.09815979 C17.54552083 47.91176538 17.52078951 50.72538788 17.49609375 53.5390625 C17.47552794 55.48677008 17.45453157 57.43447316 17.43312073 59.38217163 C17.37786148 64.5146521 17.32846921 69.64717311 17.28027344 74.77972412 C17.23008652 80.01464455 17.17438581 85.24950594 17.11914062 90.484375 C17.01151192 100.76036816 16.91058678 111.03641132 16.8125 121.3125 C9.8825 121.3125 2.9525 121.3125 -4.1875 121.3125 C-4.217229 117.72616699 -4.217229 117.72616699 -4.24755859 114.06738281 C-4.3147529 106.12849112 -4.39238653 98.18972553 -4.47502708 90.25098038 C-4.52476944 85.44225139 -4.5710997 80.63354205 -4.609375 75.82470703 C-4.64650864 71.17561974 -4.69294094 66.52670632 -4.74556351 61.87776947 C-4.76395947 60.11258778 -4.77912072 58.34736904 -4.79084396 56.58213043 C-4.36478721 36.83070779 -4.36478721 36.83070779 -12.1875 19.3125 C-19.01374646 13.91151379 -26.85772695 13.48759957 -35.22607422 14.05175781 C-42.68946231 15.0439035 -48.6574589 19.14719222 -53.3125 24.875 C-57.50983023 30.7324683 -58.48695356 35.72413679 -58.50634766 42.86645508 C-58.51639328 43.71574585 -58.5264389 44.56503662 -58.53678894 45.44006348 C-58.56759252 48.23737941 -58.58464823 51.03459975 -58.6015625 53.83203125 C-58.62027642 55.77545492 -58.63985 57.71887049 -58.6602478 59.66227722 C-58.71155133 64.77004211 -58.75118664 69.87783333 -58.78839111 74.98571777 C-58.82844185 80.20083116 -58.87952934 85.41583514 -58.9296875 90.63085938 C-59.02642583 100.85800367 -59.10981706 111.08519319 -59.1875 121.3125 C-66.4475 121.3125 -73.7075 121.3125 -81.1875 121.3125 C-81.1875 80.7225 -81.1875 40.1325 -81.1875 -1.6875 C-73.9275 -1.6875 -66.6675 -1.6875 -59.1875 -1.6875 C-59.1875 5.2425 -59.1875 12.1725 -59.1875 19.3125 C-58.5275 17.8275 -57.8675 16.3425 -57.1875 14.8125 C-52.27285162 5.10675585 -45.39952439 -0.13084577 -35.1875 -3.6875 C-23.71210752 -6.72055828 -10.42283059 -5.51796914 0 0 Z " fill="#77028A" transform="translate(1596.1875,231.6875)"/>
<path d="M0 0 C1.00079086 -0.00335861 2.00158173 -0.00671722 3.03269958 -0.01017761 C6.33325449 -0.0196577 9.6337585 -0.02162927 12.93432617 -0.02270508 C15.235896 -0.02591978 17.53746563 -0.02928401 19.83903503 -0.03279114 C24.66157505 -0.0387751 29.48409716 -0.0406318 34.30664062 -0.04003906 C40.47338693 -0.0399375 46.64001795 -0.05358696 52.80673695 -0.07081127 C57.560364 -0.08195288 62.31396338 -0.0839576 67.06760216 -0.08342934 C69.34048548 -0.08460629 71.61336959 -0.08901207 73.88624001 -0.0967617 C77.07137657 -0.10660481 80.25626534 -0.1036664 83.44140625 -0.09765625 C84.3720993 -0.10327576 85.30279236 -0.10889526 86.26168823 -0.11468506 C95.60682994 -0.07007958 103.52785844 0.95637632 110.50854492 7.68041992 C117.28692885 14.97382812 118.36215052 22.4044499 118.30297852 32.02416992 C118.31086395 33.61598587 118.31086395 33.61598587 118.31890869 35.23995972 C118.33205538 38.72937977 118.32338921 42.2183394 118.31323242 45.70776367 C118.31525468 48.14339281 118.31816738 50.57902136 118.32192993 53.01464844 C118.32634608 58.1119566 118.31994488 63.20910673 118.3059082 68.30639648 C118.288817 74.82974325 118.29866195 81.35271967 118.3166256 87.87605286 C118.32748245 92.90330784 118.32400831 97.93047549 118.31624222 102.95773315 C118.31424548 105.36262049 118.31668092 107.76751583 118.32368088 110.1723938 C118.33132644 113.53726107 118.31964696 116.90153423 118.30297852 120.26635742 C118.30905121 121.25360809 118.3151239 122.24085876 118.32138062 123.25802612 C118.24270839 131.86036613 116.14087736 139.85799124 109.91479492 146.14526367 C104.31030257 150.02529684 99.16543133 152.25564151 92.32504272 152.29243469 C90.95013672 152.30316765 90.95013672 152.30316765 89.54745483 152.31411743 C88.04972031 152.31815079 88.04972031 152.31815079 86.52172852 152.32226562 C85.46431458 152.32883682 84.40690063 152.33540802 83.31744385 152.34217834 C79.8160393 152.36189707 76.31467765 152.37357179 72.81323242 152.38354492 C71.61580036 152.38762045 70.4183683 152.39169598 69.18465042 152.395895 C62.84486311 152.41675119 56.5050974 152.43105403 50.1652832 152.44042969 C43.62854058 152.45148382 37.09213931 152.48587404 30.5555172 152.52560139 C25.51961652 152.55179325 20.48379681 152.56012392 15.44783401 152.56371117 C13.03899458 152.56857163 10.63015864 152.58017008 8.22138596 152.59874916 C4.8420614 152.62319086 1.46361507 152.62216575 -1.91577148 152.61523438 C-3.39528793 152.63444946 -3.39528793 152.63444946 -4.9046936 152.65405273 C-12.6798932 152.59621852 -19.63475687 150.98173507 -25.74145508 145.96166992 C-26.34989258 145.21788086 -26.95833008 144.4740918 -27.58520508 143.70776367 C-28.21426758 142.96655273 -28.84333008 142.2253418 -29.49145508 141.46166992 C-34.40216825 134.32428534 -34.23449734 126.38551664 -34.23046875 118.04418945 C-34.23382736 117.0417923 -34.23718597 116.03939514 -34.24064636 115.00662231 C-34.25012564 111.70126091 -34.25209791 108.39595032 -34.25317383 105.09057617 C-34.25638833 102.78661071 -34.25975254 100.48264545 -34.26325989 98.17868042 C-34.26924346 93.35194424 -34.27110056 88.52522595 -34.27050781 83.69848633 C-34.27040619 77.52267357 -34.28406174 71.34697578 -34.30128002 65.17119026 C-34.31241398 60.41331458 -34.31442659 55.65546657 -34.31389809 50.89757919 C-34.31507596 48.62107827 -34.31948693 46.34457659 -34.32723045 44.06808853 C-34.3370591 40.88035336 -34.33414093 37.69286637 -34.328125 34.50512695 C-34.33374451 33.57083862 -34.33936401 32.63655029 -34.34515381 31.6739502 C-34.30222541 22.69423573 -32.64885157 15.36514019 -27.08520508 8.14526367 C-19.05539232 0.52723619 -10.49317906 -0.00507636 0 0 Z M-15.08520508 22.14526367 C-16.23445574 24.44376499 -16.21562299 25.74406727 -16.22564697 28.30036926 C-16.23135712 29.17096481 -16.23706726 30.04156036 -16.24295044 30.9385376 C-16.2440683 31.89596863 -16.24518616 32.85339966 -16.24633789 33.83984375 C-16.2513028 34.84647568 -16.2562677 35.8531076 -16.26138306 36.89024353 C-16.27602897 40.23176753 -16.2828109 43.57324405 -16.28833008 46.91479492 C-16.29407975 49.23166404 -16.2998375 51.54853314 -16.30560303 53.86540222 C-16.31612008 58.72862979 -16.32195807 63.59184078 -16.32543945 68.45507812 C-16.33092414 74.6896419 -16.35494884 80.92398728 -16.38341141 87.15848255 C-16.40202694 91.94627015 -16.40724283 96.73400505 -16.40877533 101.52182579 C-16.41180508 103.82035198 -16.4198444 106.11887717 -16.43296051 108.41736794 C-16.44999721 111.63258131 -16.44814631 114.84725992 -16.44165039 118.0625 C-16.45086517 119.01385834 -16.46007996 119.96521667 -16.46957397 120.94540405 C-16.4387646 125.8084662 -16.32905969 129.23429965 -13.08520508 133.14526367 C-10.77201371 134.30185936 -9.42935272 134.28060842 -6.85417175 134.29916382 C-5.52303596 134.31206451 -5.52303596 134.31206451 -4.16500854 134.32522583 C-3.18887604 134.32948578 -2.21274353 134.33374573 -1.20703125 134.33813477 C-0.18089218 134.34631226 0.84524689 134.35448975 1.90248108 134.36291504 C5.30892345 134.38779187 8.71532411 134.40429016 12.12182617 134.41870117 C13.86389123 134.42668669 13.86389123 134.42668669 15.64114952 134.43483353 C21.78712683 134.46157391 27.93308375 134.48094678 34.07910156 134.49536133 C40.43487581 134.51201942 46.79013256 134.55680505 53.14571095 134.60773277 C58.02614454 134.64134748 62.90645439 134.65293243 67.78699303 134.65858841 C70.13020474 134.66531587 72.47340789 134.6805764 74.81650734 134.70447922 C78.09424969 134.7360111 81.37058401 134.7361851 84.6484375 134.72875977 C85.61849731 134.7451651 86.58855713 134.76157043 87.5880127 134.7784729 C91.88147041 134.73860716 94.29829024 134.52209754 98.01799011 132.24845886 C100.74671012 127.78424052 100.60056447 124.05280346 100.5300293 118.91064453 C100.53835281 117.36836937 100.53835281 117.36836937 100.54684448 115.79493713 C100.55864633 112.39951847 100.53436034 109.00543255 100.50854492 105.61010742 C100.50683405 103.25029054 100.50689926 100.89047175 100.50866699 98.53065491 C100.50701348 93.58682049 100.48830751 88.64343937 100.45678711 83.69970703 C100.41708818 77.35856708 100.41274427 71.0180204 100.42024994 64.67677975 C100.42331727 59.804922 100.41120783 54.93319797 100.39411926 50.06137276 C100.38708205 47.72296551 100.3839656 45.3845431 100.3848114 43.04612541 C100.3830165 39.78063355 100.36166082 36.51585674 100.3347168 33.25048828 C100.3376474 32.28154633 100.340578 31.31260437 100.34359741 30.31430054 C100.33224762 29.42412735 100.32089783 28.53395416 100.3092041 27.61680603 C100.30547539 26.84530684 100.30174667 26.07380766 100.29790497 25.27892971 C99.80633619 22.54122129 98.80023198 21.16696699 96.91479492 19.14526367 C94.15148751 18.2241612 92.49035981 18.01417266 89.63943481 17.99809265 C88.7674646 17.99093735 87.89549438 17.98378204 86.99710083 17.97640991 C86.04326508 17.97372101 85.08942932 17.9710321 84.10668945 17.96826172 C83.0999115 17.96169052 82.09313354 17.95511932 81.05584717 17.948349 C77.71976652 17.9286162 74.38373085 17.91695474 71.04760742 17.90698242 C69.90921291 17.90290689 68.77081841 17.89883137 67.59792709 17.89463234 C61.57513358 17.87377386 55.55236284 17.85946992 49.52954102 17.85009766 C43.3027879 17.83902056 37.0763909 17.8046047 30.84976387 17.76492596 C26.06626714 17.73881202 21.28285603 17.73041056 16.49929428 17.72681618 C14.20354679 17.72193843 11.90780342 17.71029087 9.6121254 17.69177818 C6.40169051 17.66749355 3.1921876 17.66833227 -0.01831055 17.67529297 C-1.44299149 17.65607788 -1.44299149 17.65607788 -2.89645386 17.63647461 C-8.22067154 17.67860084 -11.27952754 18.02008848 -15.08520508 22.14526367 Z " fill="#770289" transform="translate(321.085205078125,4.854736328125)"/>
<path d="M0 0 C1.60403687 -0.01029488 1.60403687 -0.01029488 3.24047852 -0.02079773 C6.7575426 -0.03902323 10.27415882 -0.0352342 13.79125977 -0.02954102 C16.24691411 -0.03410475 18.70256717 -0.03941089 21.15821838 -0.04542542 C26.29840289 -0.05434814 31.43843195 -0.05194269 36.57861328 -0.04199219 C43.15350218 -0.03050225 49.72785402 -0.05071941 56.30267239 -0.07990932 C61.37200813 -0.09828753 66.44121554 -0.09797559 71.51057625 -0.0922718 C73.93418188 -0.0921188 76.35779633 -0.09814593 78.78137016 -0.11056328 C82.17489849 -0.12550189 85.56743929 -0.11477402 88.9609375 -0.09765625 C90.4504467 -0.1121582 90.4504467 -0.1121582 91.970047 -0.12695312 C99.97082452 -0.04278296 105.64391826 2.18015997 112.29516602 6.52905273 C119.15071594 13.69621856 120.7872546 21.21920224 120.67626953 30.87719727 C120.68700249 32.52797272 120.68700249 32.52797272 120.69795227 34.21209717 C120.71475077 37.82078577 120.69548949 41.42821675 120.67407227 45.03686523 C120.67490165 47.55931704 120.67736365 50.08176879 120.68138123 52.60421753 C120.68423303 57.87796405 120.67013125 63.15138902 120.64208984 68.42504883 C120.61001154 74.50443135 120.61007161 80.58317239 120.62730461 86.66260064 C120.64321643 92.53703906 120.63630815 98.41124259 120.6193676 104.28567123 C120.61419603 106.7742854 120.6146551 109.26291802 120.62091255 111.75152969 C120.62637946 115.23131957 120.60594143 118.71003043 120.57861328 122.18969727 C120.5884021 123.72196457 120.5884021 123.72196457 120.59838867 125.28518677 C120.4953176 133.02706004 118.74461596 138.27837385 113.67016602 144.15405273 C105.16056371 151.44799757 97.57099004 152.71004352 86.73291016 152.6628418 C85.73182724 152.66634644 84.73074432 152.66985107 83.69932556 152.67346191 C80.40958601 152.6822217 77.12006378 152.67644992 73.83032227 152.66967773 C71.53161071 152.67102614 69.23289943 152.67296814 66.93418884 152.67547607 C62.12357866 152.67841964 57.31304291 152.67415473 52.50244141 152.66479492 C46.35143378 152.65340737 40.20060085 152.65996043 34.04959965 152.67193985 C29.30454708 152.67918462 24.55953557 152.67685838 19.81448174 152.67168427 C17.54718441 152.67035468 15.27988331 152.67197117 13.01259041 152.67664337 C9.83723273 152.68175093 6.66215348 152.67393874 3.48681641 152.6628418 C2.55926544 152.66689026 1.63171448 152.67093872 0.67605591 152.67510986 C-9.183112 152.61162849 -17.39494251 151.08488706 -24.95483398 144.40405273 C-29.17969848 139.17326812 -31.0629109 134.41584436 -31.10873413 127.70040894 C-31.11733459 126.75856247 -31.12593506 125.816716 -31.13479614 124.84632874 C-31.13905609 123.81978683 -31.14331604 122.79324493 -31.14770508 121.7355957 C-31.15588257 120.64892105 -31.16406006 119.5622464 -31.17248535 118.44264221 C-31.19731108 114.84384712 -31.21384942 111.24509144 -31.22827148 107.64624023 C-31.23359516 106.41571049 -31.23891884 105.18518074 -31.24440384 103.91736221 C-31.2683708 98.0739663 -31.28761223 92.23058656 -31.30042589 86.38715541 C-31.3139737 80.33043663 -31.34025431 74.27408778 -31.38696289 68.2175293 C-31.43633517 61.7095106 -31.4610587 55.20183583 -31.46815872 48.69363785 C-31.47486241 46.21779756 -31.49006126 43.74196468 -31.51404953 41.26623154 C-31.545776 37.79337618 -31.54572564 34.32184004 -31.53833008 30.84887695 C-31.56293808 29.32728218 -31.56293808 29.32728218 -31.58804321 27.77494812 C-31.52040947 19.97966803 -29.53065138 13.37748126 -24.22859764 7.48586845 C-17.24200893 0.79414731 -9.24240361 -0.04181385 0 0 Z M-11.53262329 20.18441772 C-13.71336454 23.58788645 -14.07935228 26.65775653 -14.08854675 30.64781189 C-14.09281174 31.48750015 -14.09707672 32.32718842 -14.10147095 33.19232178 C-14.10101776 34.1051593 -14.10056458 35.01799683 -14.10009766 35.95849609 C-14.10345627 36.92640579 -14.10681488 37.89431549 -14.11027527 38.89155579 C-14.11977721 42.09234906 -14.12172793 45.29308999 -14.12280273 48.49389648 C-14.12601555 50.71822634 -14.12937964 52.94255597 -14.13288879 55.16688538 C-14.13887796 59.82984914 -14.14072888 64.49279438 -14.14013672 69.15576172 C-14.14003504 75.13239063 -14.15369391 81.10890089 -14.17090893 87.08550167 C-14.18202332 91.67941332 -14.18405611 96.27329621 -14.18352699 100.86721992 C-14.1847077 103.07084119 -14.18913452 105.27446318 -14.19685936 107.47807121 C-14.20664895 110.55887056 -14.20378532 113.6394114 -14.19775391 116.72021484 C-14.20337341 117.63102814 -14.20899292 118.54184143 -14.21478271 119.48025513 C-14.21290522 125.69448934 -14.21290522 125.69448934 -11.95483398 131.40405273 C-9.11450387 133.93800933 -7.3157098 134.77966653 -3.52125549 134.79173279 C-2.19861694 134.80658974 -2.19861694 134.80658974 -0.84925842 134.82174683 C0.11033279 134.81724518 1.06992401 134.81274353 2.05859375 134.80810547 C3.58361008 134.81840034 3.58361008 134.81840034 5.13943481 134.8289032 C8.5026849 134.84721574 11.86547049 134.84332721 15.22875977 134.83764648 C17.56519218 134.84220617 19.90162326 134.8475111 22.23805237 134.85353088 C27.1364588 134.86247079 32.03470228 134.8600288 36.93310547 134.85009766 C43.21256831 134.83860761 49.49146886 134.85881611 55.77085781 134.88801479 C60.59641599 134.90635479 65.42183889 134.90608867 70.24742317 134.90037727 C72.56269176 134.90022379 74.87796937 134.9062906 77.19320488 134.91866875 C80.42994402 134.93353469 83.66563749 134.92293313 86.90234375 134.90576172 C87.85991074 134.91542969 88.81747772 134.92509766 89.80406189 134.93505859 C93.99580371 134.8884577 96.43245155 134.75941306 100.11659241 132.62269592 C102.97230327 129.33746821 103.1683969 126.37278703 103.18560791 122.12232971 C103.19131805 121.27422729 103.1970282 120.42612488 103.20291138 119.55232239 C103.20402924 118.63013412 103.20514709 117.70794586 103.20629883 116.7578125 C103.21126373 115.78014923 103.21622864 114.80248596 103.22134399 113.79519653 C103.23594608 110.56194352 103.24276355 107.32873954 103.24829102 104.09545898 C103.25404303 101.84870909 103.25980076 99.60195921 103.26556396 97.35520935 C103.27606767 92.64516979 103.28191481 87.93514728 103.28540039 83.22509766 C103.29089098 77.18788502 103.31493388 71.15089725 103.34337234 65.11375523 C103.36198642 60.47351927 103.36720362 55.83333769 103.36873627 51.19306755 C103.3717649 48.96710922 103.37980049 46.7411519 103.39292145 44.51523018 C103.40995974 41.4032077 103.40810723 38.29173759 103.40161133 35.1796875 C103.41082611 34.25952347 103.42004089 33.33935944 103.42953491 32.39131165 C103.38970451 26.3055429 102.46510131 22.82398803 98.04516602 18.40405273 C96.0683147 18.095325 96.0683147 18.095325 93.7694397 18.1366272 C92.87215652 18.12809723 91.97487335 18.11956726 91.05039978 18.11077881 C89.56981834 18.11213837 89.56981834 18.11213837 88.05932617 18.11352539 C87.02182724 18.10680817 85.98432831 18.10009094 84.91539001 18.09317017 C81.47162134 18.07410845 78.02804672 18.07026179 74.58422852 18.06811523 C72.19770221 18.0616928 69.81117671 18.05496487 67.4246521 18.04794312 C62.41597671 18.03594974 57.40737039 18.03226439 52.39868164 18.03344727 C45.97336219 18.03365052 39.5484847 18.00634988 33.12327003 17.97190285 C28.19225013 17.9496896 23.2613375 17.94560802 18.33027267 17.94666672 C15.96113944 17.94430229 13.59200363 17.93543173 11.22291946 17.92000198 C7.91156127 17.90045599 4.6011679 17.90613583 1.28979492 17.91821289 C0.30678909 17.90697388 -0.67621674 17.89573486 -1.68901062 17.88415527 C-6.94169132 17.88516807 -6.94169132 17.88516807 -11.53262329 20.18441772 Z " fill="#770289" transform="translate(50.954833984375,272.595947265625)"/>
<path d="M0 0 C6.93 0 13.86 0 21 0 C21 55.11 21 110.22 21 167 C14.07 167 7.14 167 0 167 C0 159.41 0 151.82 0 144 C-1.65 147.3 -3.3 150.6 -5 154 C-11.59364098 162.75131617 -20.37677787 167.25715274 -31 169 C-44.84678359 170.33360114 -58.51581025 169.11782513 -70.0703125 160.6953125 C-80.66201038 151.39005566 -84.6701736 137.58976388 -86 124 C-86.14674547 121.24036941 -86.1866941 118.48587005 -86.203125 115.72265625 C-86.20882507 114.95304062 -86.21452515 114.18342499 -86.22039795 113.39048767 C-86.22978632 111.7677444 -86.23635718 110.14498259 -86.24023438 108.5222168 C-86.24985216 106.0997363 -86.28089754 103.67813841 -86.3125 101.25585938 C-86.36734938 93.31545056 -86.03763865 85.62141347 -84.6875 77.78515625 C-84.51556122 76.77522362 -84.51556122 76.77522362 -84.34014893 75.74488831 C-82.41261128 65.721238 -77.5411394 54.98843045 -69 49 C-55.76192175 41.1558901 -42.36660388 38.93120757 -27.22265625 41.6875 C-17.37646813 44.44489224 -9.85545094 49.57091428 -4 58 C-3.01 59.98 -2.02 61.96 -1 64 C-0.67 42.88 -0.34 21.76 0 0 Z M-57 67 C-65.72205398 77.97506536 -65.18093527 91.41047106 -65.1875 104.75 C-65.19974609 106.04421875 -65.21199219 107.3384375 -65.22460938 108.671875 C-65.24357382 121.21369617 -64.91813889 133.25108024 -56.2109375 143.00390625 C-48.78639722 150.08827835 -41.14477289 151.54546483 -31.09375 151.48803711 C-21.33524994 151.10470016 -13.67301451 147.46874618 -6.81640625 140.55078125 C-6.21699219 139.70902344 -5.61757812 138.86726563 -5 138 C-4.35019165 137.14498901 -4.35019165 137.14498901 -3.68725586 136.27270508 C1.55772629 127.98934045 0.71743478 118.49830646 0.59692383 109.05102539 C0.56261825 106.07276562 0.57629785 103.09748222 0.59570312 100.11914062 C0.5868757 86.74103963 -0.14966993 75.92975479 -9.86328125 65.875 C-16.62686677 59.93986097 -25.83170917 57.45062686 -34.76953125 57.75390625 C-43.32915481 58.69831305 -50.87948237 60.69487279 -57 67 Z " fill="#000000" transform="translate(1112,186)"/>
<path d="M0 0 C0.8971875 0.25007812 1.794375 0.50015625 2.71875 0.7578125 C5.0911234 1.5743903 6.34744457 2.10385981 8 4 C10.03018785 10.42892819 10.31196064 17.29284622 10 24 C5.55115271 22.5826081 1.2980602 20.88269144 -3 19.0625 C-14.46132318 14.45105898 -24.93095883 12.74331688 -37.25 12.625 C-38.75904907 12.60397217 -38.75904907 12.60397217 -40.29858398 12.58251953 C-49.38797339 12.64085676 -57.77563216 14.15170223 -65 20 C-70.42017701 26.00614209 -70.43537245 31.43971931 -70.26953125 39.2578125 C-69.85302184 45.04065323 -68.42020811 48.3950918 -64.515625 52.59765625 C-54.9613945 60.86248839 -40.7057732 63.41386715 -28.8125 66.5 C-14.04058743 70.33373834 2.69512869 75.23983567 11.26171875 89.03125 C17.4452456 101.72012294 17.48643009 117.53950444 14 131 C9.73951149 142.02440275 3.45418346 148.60260202 -7 154 C-31.56286882 163.28800962 -60.23624301 160.84045213 -84.30078125 151.24609375 C-85.19152344 150.83488281 -86.08226562 150.42367187 -87 150 C-87.91523437 149.67515625 -88.83046875 149.3503125 -89.7734375 149.015625 C-93.51686149 145.62684118 -93.04759449 141.14782344 -93.3125 136.3125 C-93.38533203 135.32443359 -93.45816406 134.33636719 -93.53320312 133.31835938 C-93.70992724 130.87956659 -93.86463194 128.44138035 -94 126 C-89.68642434 127.36423326 -85.62242749 129.01605489 -81.5 130.875 C-63.14961685 138.94156375 -39.8997505 143.51949755 -20.5390625 136.265625 C-15.5725086 133.7899889 -12.37907313 130.88473328 -9.125 126.4375 C-6.54723024 118.56098128 -5.5934902 108.77156132 -9 101 C-16.63787145 88.43741144 -32.28181453 86.34362775 -45.41992188 82.71435547 C-79.9152701 73.16350489 -79.9152701 73.16350489 -87.77734375 60.03125 C-94.20132831 47.57627758 -95.8781093 31.26205289 -91.5625 17.6875 C-87.22316533 8.30844683 -79.32458026 1.21560365 -70 -3 C-47.49906846 -10.98217404 -22.02192501 -7.70767375 0 0 Z " fill="#77028A" transform="translate(1473,196)"/>
<path d="M0 0 C6.93 0 13.86 0 21 0 C21.33 21.45 21.66 42.9 22 65 C23.98 61.7 25.96 58.4 28 55 C34.48801258 47.28452558 43.03728408 42.39176474 53 41 C66.33191708 39.99898902 79.13121639 40.30045387 90 49 C98.54490813 56.98573214 102.30609944 66.80150606 103.17789078 78.35815811 C103.24269525 80.73752658 103.24805109 83.10863114 103.22705078 85.48876953 C103.22734283 86.37780472 103.22763489 87.2668399 103.22793579 88.18281555 C103.22655709 91.08291845 103.21106561 93.98275522 103.1953125 96.8828125 C103.19157717 98.90876119 103.18873265 100.93471169 103.18673706 102.96066284 C103.17914158 108.26408982 103.15952861 113.56740531 103.1373291 118.87078857 C103.1167822 124.29405205 103.10771651 129.71733373 103.09765625 135.140625 C103.0762785 145.76047325 103.04113009 156.38020986 103 167 C96.07 167 89.14 167 82 167 C81.970271 163.25378296 81.970271 163.25378296 81.93994141 159.43188477 C81.87287724 151.15769767 81.79524037 142.88363373 81.71247292 134.60958958 C81.66263884 129.59562989 81.61630808 124.58168997 81.578125 119.56762695 C81.54110887 114.72404002 81.49470554 109.88062378 81.44193649 105.03718376 C81.42347899 103.19416247 81.40833953 101.35110471 81.39665604 99.50802803 C81.37964471 96.91606487 81.35057565 94.32448531 81.31884766 91.73266602 C81.31668747 90.97956146 81.31452728 90.22645691 81.31230164 89.45053101 C81.1548732 79.30885887 78.92377019 70.92377019 71.625 63.625 C63.55063314 58.62658242 52.87536723 58.72652139 43.828125 60.6875 C34.37552438 63.82095877 28.53927748 69.20280521 24 78 C22.74414679 81.76755962 22.82316447 85.30827447 22.79467773 89.23510742 C22.77982834 90.49397514 22.77982834 90.49397514 22.76467896 91.77827454 C22.73307604 94.55397718 22.70831126 97.32969695 22.68359375 100.10546875 C22.66302318 102.02932685 22.64202668 103.95318043 22.62062073 105.87702942 C22.56541068 110.94209136 22.51599666 116.00719402 22.46777344 121.07232666 C22.41755065 126.24031195 22.36186864 131.40823808 22.30664062 136.57617188 C22.19907207 146.71739926 22.0981286 156.85867687 22 167 C14.74 167 7.48 167 0 167 C0 111.89 0 56.78 0 0 Z " fill="#770289" transform="translate(1872,186)"/>
<path d="M0 0 C14.37557814 -0.57311275 27.99679288 3.05448164 39.0390625 12.34375 C48.83587691 21.63303713 53.41798346 33.44893291 53.88305664 46.8684082 C53.92325395 49.98584879 53.92544777 53.10108369 53.9140625 56.21875 C53.91792969 57.28158203 53.92179687 58.34441406 53.92578125 59.43945312 C53.92449219 60.47134766 53.92320313 61.50324219 53.921875 62.56640625 C53.92074707 63.49590088 53.91961914 64.42539551 53.91845703 65.38305664 C53.7890625 68.15625 53.7890625 68.15625 52.7890625 74.15625 C25.7290625 74.15625 -1.3309375 74.15625 -29.2109375 74.15625 C-27.04577303 91.43500168 -27.04577303 91.43500168 -17.2734375 103.83984375 C-4.51710334 111.98167066 12.94769198 112.13706041 27.37109375 109.02709961 C34.19754451 107.31796234 40.29590777 104.7482976 46.43359375 101.328125 C48.7890625 100.15625 48.7890625 100.15625 51.7890625 100.15625 C51.70160675 102.55374384 51.59469175 104.94773221 51.4765625 107.34375 C51.45400391 108.01728516 51.43144531 108.69082031 51.40820312 109.38476562 C51.17289023 113.77014225 50.63392098 116.76522671 47.7890625 120.15625 C29.86402882 130.76943502 4.88125613 132.49548859 -15.0859375 127.59375 C-28.5087641 123.56265877 -37.7362075 116.82947825 -44.4609375 104.59375 C-49.93332507 92.72003221 -50.70862798 80.39258544 -50.60205078 67.52270508 C-50.58597083 65.22351582 -50.60200159 62.92608966 -50.62109375 60.62695312 C-50.64678737 43.43402453 -48.56352769 25.93943444 -36.171875 12.8984375 C-26.00830817 3.86865502 -13.20300234 0.93307437 0 0 Z M-21.78125 27.24609375 C-28.89335676 36.74833474 -29.2109375 46.38079266 -29.2109375 58.15625 C-8.4209375 58.15625 12.3690625 58.15625 33.7890625 58.15625 C33.7890625 46.90910459 33.70688737 35.72764991 25.84375 26.99609375 C18.54147257 19.98641628 12.43064308 18.0533119 2.4140625 17.71875 C-7.18328088 17.94954784 -15.24131359 19.87693095 -21.78125 27.24609375 Z " fill="#000000" transform="translate(1210.2109375,225.84375)"/>
<path d="M0 0 C14.93334504 -0.46666703 30.18720328 2.88970829 41.65625 12.83203125 C52.42918896 23.94636616 55.98058123 38.28636404 56.11328125 53.33203125 C56.121353 54.21782867 56.12942474 55.1036261 56.13774109 56.01626587 C56.15153359 57.89054438 56.16227722 59.7648475 56.17016602 61.63916016 C56.18161384 63.52595563 56.20194953 65.4127206 56.23168945 67.29931641 C56.48532896 83.42738817 55.73696135 98.59982569 45.875 112.12109375 C44.7921875 113.69890625 44.7921875 113.69890625 43.6875 115.30859375 C34.1379605 124.85813325 21.26049326 129.58002812 7.875 130.12109375 C7.04871094 130.16105469 6.22242188 130.20101562 5.37109375 130.2421875 C-9.77753029 130.61704428 -24.31390929 127.93861573 -36.1640625 117.9921875 C-45.71291411 108.88083308 -50.99135931 96.20472383 -51.3996582 83.06713867 C-51.41935682 81.24536563 -51.42758201 79.42344114 -51.42578125 77.6015625 C-51.43006638 76.62173904 -51.4343515 75.64191559 -51.43876648 74.63240051 C-51.44447735 72.57094084 -51.44503415 70.50946102 -51.44067383 68.44799805 C-51.43751922 65.32760498 -51.46099602 62.20816652 -51.48632812 59.08789062 C-51.543412 41.52344461 -49.62132846 26.28229379 -37.0859375 12.8984375 C-26.76075314 3.53995367 -13.50026351 0.76931649 0 0 Z M-21.55859375 26.1484375 C-28.33445437 34.68162855 -30.27331658 43.46141354 -30.328125 54.0078125 C-30.33382507 54.86486282 -30.33952515 55.72191315 -30.34539795 56.60493469 C-30.35482297 58.4162168 -30.36137198 60.22751585 -30.36523438 62.03881836 C-30.37490641 64.78205068 -30.40593945 67.52452243 -30.4375 70.26757812 C-30.51549498 83.00051351 -29.94372226 94.11633943 -21.125 104.12109375 C-12.88018501 111.13444275 -4.57118737 112.59544371 6.07421875 112.4375 C14.2308921 111.75847581 21.2048742 109.06122554 26.875 103.12109375 C35.19906806 92.88892986 35.36753451 80.07037268 35.26611328 67.49414062 C35.25002255 65.12441465 35.26604597 62.75639344 35.28515625 60.38671875 C35.30303851 48.05134162 34.61255516 35.69260211 25.875 26.12109375 C12.88398903 15.11777845 -8.71288941 14.04561727 -21.55859375 26.1484375 Z " fill="#000000" transform="translate(681.125,225.87890625)"/>
<path d="M0 0 C32.01 0 64.02 0 97 0 C97 5.94 97 11.88 97 18 C72.25 18 47.5 18 22 18 C22 36.81 22 55.62 22 75 C46.09 75 70.18 75 95 75 C95 81.27 95 87.54 95 94 C70.91 94 46.82 94 22 94 C22 116.11 22 138.22 22 161 C14.74 161 7.48 161 0 161 C0 107.87 0 54.74 0 0 Z " fill="#000000" transform="translate(513,192)"/>
<path d="M0 0 C6.93 0 13.86 0 21 0 C21.01981934 2.46718506 21.03963867 4.93437012 21.06005859 7.47631836 C21.12712684 15.65072163 21.20476362 23.82500032 21.28752708 31.999259 C21.33735828 36.95268419 21.38368902 41.9060894 21.421875 46.85961914 C21.45889482 51.6448526 21.50529907 56.42991341 21.55806351 61.21499825 C21.57651908 63.03569049 21.59165923 64.85641961 21.60334396 66.67716789 C21.62035868 69.238 21.6494284 71.79844428 21.68115234 74.35913086 C21.68331253 75.10288467 21.68547272 75.84663849 21.68769836 76.6129303 C21.84628333 86.70957797 24.06177416 95.18839533 31.4375 102.375 C39.58378301 107.54093557 50.80947018 107.32371124 60.05078125 105.34765625 C65.89797936 103.22884263 71.01651723 99.79172565 75 95 C75.41353729 94.50562439 75.82707458 94.01124878 76.25314331 93.50189209 C81.85437395 85.38785461 80.72989383 75.74550161 80.70703125 66.30859375 C80.72016009 64.39329973 80.73546794 62.47801951 80.75285339 60.5627594 C80.79257749 55.54699344 80.80288572 50.53159073 80.80688477 45.51568604 C80.81623998 40.38729928 80.85366845 35.25912385 80.88867188 30.13085938 C80.9531198 20.08719937 80.98386707 10.04385393 81 0 C88.26 0 95.52 0 103 0 C103 40.59 103 81.18 103 123 C95.74 123 88.48 123 81 123 C81 115.74 81 108.48 81 101 C79.68 103.64 78.36 106.28 77 109 C71.81681065 117.28460593 62.53410767 122.4688467 53.1328125 124.671875 C40.26655276 126.0194633 26.27644672 126.58973224 15.16015625 119.08203125 C5.64011376 111.18361127 1.61301855 101.09166547 0 89 C-0.50525888 82.10153923 -0.3510682 75.17316531 -0.29296875 68.26171875 C-0.28736175 66.28490015 -0.28309688 64.30807734 -0.28010559 62.33125305 C-0.26874368 57.17082873 -0.23935263 52.01066454 -0.20599365 46.8503418 C-0.17510449 41.56758135 -0.16156028 36.28477818 -0.14648438 31.00195312 C-0.11447324 20.66783706 -0.06177768 10.33398103 0 0 Z " fill="#000000" transform="translate(763,230)"/>
<path d="M0 0 C8.73805046 6.25988205 12.31380219 14.37344358 14.91184998 24.52397156 C15.5583249 28.55008711 15.51352449 32.49063673 15.49633789 36.56176758 C15.49648392 37.46957977 15.49662994 38.37739197 15.4967804 39.31271362 C15.49608531 42.30485446 15.48831181 45.29693257 15.48046875 48.2890625 C15.47860314 50.36699896 15.47717991 52.44493587 15.47618103 54.52287292 C15.47236715 59.98580138 15.46254649 65.44870316 15.45147705 70.91162109 C15.44123866 76.4886031 15.43667821 82.06558943 15.43164062 87.64257812 C15.42092322 98.58074276 15.40333554 109.51888061 15.3828125 120.45703125 C8.4528125 120.45703125 1.5228125 120.45703125 -5.6171875 120.45703125 C-5.63177002 117.9042041 -5.64635254 115.35137695 -5.66137695 112.72119141 C-5.71185419 104.25938432 -5.77847215 95.79775872 -5.85290241 87.33613014 C-5.89751145 82.20896623 -5.93678825 77.08188004 -5.96362305 71.95458984 C-5.98975069 67.00071608 -6.03021943 62.04714297 -6.08037376 57.09345627 C-6.09697871 55.2094028 -6.10853247 53.3252974 -6.11480141 51.44118118 C-5.87689865 33.3030044 -5.87689865 33.3030044 -14.6953125 18.0859375 C-21.06492993 12.68729833 -28.6682749 12.82499361 -36.6328125 13.109375 C-45.3311023 13.86834342 -52.79870303 16.8051701 -58.6171875 23.45703125 C-63.28324308 29.86070649 -64.76494003 34.75627946 -64.82250977 42.69213867 C-64.83735916 43.95100639 -64.83735916 43.95100639 -64.85250854 45.23530579 C-64.88411146 48.01100843 -64.90887624 50.7867282 -64.93359375 53.5625 C-64.95416432 55.4863581 -64.97516082 57.41021168 -64.99656677 59.33406067 C-65.05177682 64.39912261 -65.10119084 69.46422527 -65.14941406 74.52935791 C-65.19963685 79.6973432 -65.25531886 84.86526933 -65.31054688 90.03320312 C-65.41811543 100.17443051 -65.5190589 110.31570812 -65.6171875 120.45703125 C-72.5471875 120.45703125 -79.4771875 120.45703125 -86.6171875 120.45703125 C-86.6171875 79.86703125 -86.6171875 39.27703125 -86.6171875 -2.54296875 C-79.6871875 -2.54296875 -72.7571875 -2.54296875 -65.6171875 -2.54296875 C-65.6171875 4.38703125 -65.6171875 11.31703125 -65.6171875 18.45703125 C-64.7715625 16.95140625 -63.9259375 15.44578125 -63.0546875 13.89453125 C-57.07900649 4.03256818 -49.96592024 -1.35675911 -38.875 -4.65625 C-26.2278402 -7.64347623 -11.25217802 -6.63374674 0 0 Z " fill="#000000" transform="translate(984.6171875,232.54296875)"/>
<path d="M0 0 C0 5.94 0 11.88 0 18 C-3.25520833 18.94401042 -6.51041667 19.88802083 -9.765625 20.83203125 C-12.74308739 21.907226 -14.56490159 23.05080425 -17 25 C-17.66 25 -18.32 25 -19 25 C-24.78129625 36.25543496 -24.425522 47.15582588 -24.38476562 59.52929688 C-24.38887499 61.61304521 -24.39433802 63.69679125 -24.40104675 65.78053284 C-24.41273868 70.25318528 -24.41526792 74.72571444 -24.41069031 79.19837952 C-24.40386186 86.27583067 -24.41978055 93.35312053 -24.43908691 100.43054199 C-24.47688952 115.45368602 -24.48973591 130.47681571 -24.5 145.5 C-24.51108221 161.72064161 -24.52646472 177.94120856 -24.57071257 194.16179895 C-24.58903666 201.19226978 -24.59297274 208.22255516 -24.58577728 215.25304413 C-24.58425228 219.63151839 -24.59505897 224.00990037 -24.60915565 228.38834953 C-24.61314798 230.41275115 -24.61205097 232.43717045 -24.60538292 234.46156502 C-24.56042996 249.24901674 -25.22081926 262.16645687 -35.59375 273.78515625 C-44.74424547 282.22346693 -55.93807476 285.1174201 -68 286 C-68 280.06 -68 274.12 -68 268 C-66.185 267.62875 -64.37 267.2575 -62.5 266.875 C-56.14245811 265.26312322 -50.5821383 263.12176178 -46.97492564 257.36371571 C-44.1692243 252.18186613 -43.42573712 248.08665586 -43.49447632 242.24241638 C-43.4883862 241.39678558 -43.48229608 240.55115478 -43.47602141 239.6798988 C-43.46048822 236.86500865 -43.47318307 234.05097758 -43.48583984 231.23608398 C-43.48037582 229.2100013 -43.47313253 227.18392275 -43.46424866 225.15785217 C-43.44893079 220.80245877 -43.44610189 216.44730088 -43.45301437 212.09188652 C-43.46382354 205.19381937 -43.44638961 198.29599696 -43.42520142 191.39796448 C-43.394951 180.47609684 -43.38324834 169.55430186 -43.37962496 158.6323958 C-43.37298286 139.10316601 -43.34378945 119.5739875 -43.2945286 100.04481941 C-43.2781086 93.19975021 -43.27259893 86.35478668 -43.27611899 79.5096997 C-43.27655888 75.23370564 -43.26894909 70.95775078 -43.25944328 66.68176842 C-43.25678118 64.71268117 -43.25747659 62.74358576 -43.26195335 60.7745018 C-43.33732152 25.13213799 -43.33732152 25.13213799 -32 12.1875 C-23.4107383 4.43436112 -11.49258552 0 0 0 Z " fill="#101010" transform="translate(263,72)"/>
<path d="M0 0 C0.02918634 4.35415244 0.04686145 8.70827948 0.0625 13.0625 C0.07087891 14.29162109 0.07925781 15.52074219 0.08789062 16.78710938 C0.09111328 17.98271484 0.09433594 19.17832031 0.09765625 20.41015625 C0.10289307 21.50465088 0.10812988 22.59914551 0.11352539 23.72680664 C-0.00586815 27.16919191 -0.51288048 30.59016338 -1 34 C15.5 34 32 34 49 34 C49 44 49 44 48 52 C32.16 52 16.32 52 0 52 C0.09091887 64.60173246 0.09091887 64.60173246 0.20898438 77.203125 C0.26319559 82.34697681 0.3143098 87.49072229 0.34643555 92.63476562 C0.37255317 96.78466397 0.4130145 100.9342028 0.46318626 105.08387756 C0.47979803 106.66255705 0.49134761 108.24129865 0.49761391 109.8200531 C0.13579795 123.14979456 0.13579795 123.14979456 6.375 134.375 C12.1265122 137.93545993 16.86280056 138.38556483 23.5 138.375 C24.38623047 138.37556396 25.27246094 138.37612793 26.18554688 138.37670898 C33.76078635 138.25086759 39.91872787 136.72104438 47 134 C48.32 133.67 49.64 133.34 51 133 C50.34 139.27 49.68 145.54 49 152 C32.60543984 158.30560006 13.96266568 161.56874612 -3 155 C-9.51911597 151.96811131 -15.06098227 147.40823563 -18 140.7265625 C-20.23450849 134.25937929 -21.14856612 128.20623213 -21.11352539 121.36401367 C-21.11367142 120.61225861 -21.11381744 119.86050354 -21.1139679 119.08596802 C-21.11327395 116.61327174 -21.1055059 114.14065179 -21.09765625 111.66796875 C-21.09579023 109.94875632 -21.09436719 108.22954335 -21.09336853 106.5103302 C-21.08955786 101.99433921 -21.07973997 97.47838058 -21.06866455 92.96240234 C-21.05841924 88.35059039 -21.05386423 83.73877319 -21.04882812 79.12695312 C-21.03811638 70.08461894 -21.02053134 61.04231723 -21 52 C-27.6 52 -34.2 52 -41 52 C-41 46.06 -41 40.12 -41 34 C-34.4 34 -27.8 34 -21 34 C-21 23.44 -21 12.88 -21 2 C-6.375 -0.25 -6.375 -0.25 0 0 Z " fill="#770289" transform="translate(1800,197)"/>
<path d="M0 0 C0.73283203 -0.00773438 1.46566406 -0.01546875 2.22070312 -0.0234375 C9.93764166 0.00439636 9.93764166 0.00439636 13.3125 2.25 C14.63803964 6.61723689 14.41781559 11.08654736 14.375 15.625 C14.36597656 16.87023437 14.35695313 18.11546875 14.34765625 19.3984375 C14.33605469 20.33945313 14.32445312 21.28046875 14.3125 22.25 C13.70664063 22.1778125 13.10078125 22.105625 12.4765625 22.03125 C-0.72120044 20.56934395 -13.45088156 20.29820114 -24.65625 28.51953125 C-31.45514029 34.31166279 -37.02081024 41.16142354 -38.20648193 50.21118164 C-38.23529503 51.610572 -38.24331575 53.01050442 -38.23339844 54.41015625 C-38.24373611 55.18185654 -38.25407379 55.95355682 -38.26472473 56.74864197 C-38.29395133 59.27014608 -38.29564756 61.79084049 -38.296875 64.3125 C-38.31187034 66.07228101 -38.32860032 67.83204801 -38.34698486 69.59179688 C-38.39051885 74.20144325 -38.41062639 78.81089981 -38.42572021 83.42071533 C-38.4453418 88.13345498 -38.48730604 92.84599115 -38.52734375 97.55859375 C-38.60249484 106.78903397 -38.6508101 116.01932669 -38.6875 125.25 C-45.6175 125.25 -52.5475 125.25 -59.6875 125.25 C-59.6875 84.66 -59.6875 44.07 -59.6875 2.25 C-52.7575 2.25 -45.8275 2.25 -38.6875 2.25 C-38.6875 10.5 -38.6875 18.75 -38.6875 27.25 C-37.0375 23.95 -35.3875 20.65 -33.6875 17.25 C-24.86203824 5.12885414 -14.87478709 -0.15951514 0 0 Z " fill="#000000" transform="translate(1349.6875,227.75)"/>
<path d="M0 0 C6.93 0 13.86 0 21 0 C21 40.59 21 81.18 21 123 C14.07 123 7.14 123 0 123 C0 82.41 0 41.82 0 0 Z " fill="#770289" transform="translate(1720,230)"/>
<path d="M0 0 C2.82853471 1.79997663 4.06181469 2.89419373 5.75 5.75 C6.18359375 8.80859375 6.18359375 8.80859375 6.1875 12.1875 C6.21650391 13.85619141 6.21650391 13.85619141 6.24609375 15.55859375 C5.64258011 19.44103974 4.57044372 21.04586324 1.75 23.75 C-2.81741122 25.70090429 -7.25554763 25.89435599 -12.125 25.1875 C-15.78177887 23.50538172 -17.06351999 22.10415338 -19.25 18.75 C-19.78125 15.59375 -19.78125 15.59375 -19.75 12.25 C-19.76546875 10.59484375 -19.76546875 10.59484375 -19.78125 8.90625 C-19.1447808 5.12487417 -17.89645571 3.47472427 -15.25 0.75 C-10.24834531 -2.08877699 -5.3064775 -2.04095289 0 0 Z " fill="#77028A" transform="translate(1737.25,185.25)"/>
</svg>
