<?xml version="1.0" encoding="UTF-8"?>
<svg version="1.1" xmlns="http://www.w3.org/2000/svg" width="815" height="815">
<path d="M0 0 C268.95 0 537.9 0 815 0 C815 268.95 815 537.9 815 815 C546.05 815 277.1 815 0 815 C0 546.05 0 277.1 0 0 Z " fill="#AF0E9E" transform="translate(0,0)"/>
<path d="M0 0 C0.82309733 -0.00453111 1.64619465 -0.00906223 2.49423432 -0.01373065 C5.23842195 -0.02633982 7.98241023 -0.02475653 10.72662354 -0.02310181 C12.69993341 -0.02908927 14.67324094 -0.03589531 16.64654541 -0.04345703 C21.99795104 -0.06110294 27.34929269 -0.06581185 32.7007246 -0.0670886 C36.04719645 -0.06851166 39.39365211 -0.07278421 42.74011993 -0.07808304 C54.42378266 -0.09657928 66.10739978 -0.10475423 77.79107666 -0.10317993 C88.66729566 -0.10197893 99.54331609 -0.12307422 110.41948485 -0.15466726 C119.76919921 -0.18085458 129.11884882 -0.19154618 138.46859956 -0.19026911 C144.04743322 -0.18976017 149.62609039 -0.19540614 155.20488739 -0.21662521 C160.45480721 -0.23604866 165.70438293 -0.23610389 170.95431519 -0.22159195 C172.87509923 -0.2195078 174.79590505 -0.22418115 176.71665192 -0.23631287 C192.08248758 -0.32703702 202.92359997 1.38115293 214.5635376 12.26742554 C219.5635376 17.40256067 219.5635376 17.40256067 219.5635376 20.26742554 C220.2235376 20.26742554 220.8835376 20.26742554 221.5635376 20.26742554 C226.56521702 31.44293607 227.28006817 41.16951151 227.19464111 53.27548218 C227.19979068 55.1480629 227.20707972 57.02063875 227.21632385 58.89320374 C227.23471272 63.93872672 227.22197938 68.98371583 227.20223355 74.02921605 C227.18574412 79.33221164 227.19467407 84.63517613 227.19975281 89.93818665 C227.20426192 98.83911583 227.18847642 107.73983405 227.16046143 116.64071655 C227.12840516 126.9041644 227.12843306 137.16723218 227.1456762 147.43070704 C227.16158608 157.34059121 227.15477969 167.25033718 227.13773918 177.16021538 C227.13089995 181.36125852 227.13186878 185.56218983 227.13928413 189.76323128 C227.14699294 194.71700649 227.13467198 199.67035347 227.10743523 204.62405586 C227.10059862 206.43272125 227.10040211 208.241427 227.10765076 210.05009079 C227.1913296 233.66536153 227.1913296 233.66536153 220.1885376 242.14242554 C219.3222876 242.84367554 218.4560376 243.54492554 217.5635376 244.26742554 C216.61180932 245.42251456 215.67526928 246.59021988 214.7510376 247.76742554 C209.47744564 253.97165137 201.60716074 258.4546063 193.47786057 259.54793251 C191.24822146 259.65358377 189.03562168 259.67239317 186.80354309 259.65510559 C185.53487212 259.6631839 185.53487212 259.6631839 184.24057144 259.6714254 C181.42563122 259.68565564 178.61116454 259.67861353 175.79620361 259.67147827 C173.7702395 259.6771844 171.7442786 259.6841496 169.71832275 259.692276 C164.22865135 259.71019521 158.73913991 259.70904136 153.24944806 259.70333362 C148.66196735 259.70024011 144.07451728 259.70633601 139.48704094 259.71237236 C128.66282306 259.72641181 117.83868412 259.72486099 107.01446533 259.71347046 C95.8569995 259.70198853 84.69977402 259.71606761 73.54233986 259.74286693 C63.95314041 259.76503497 54.36401634 259.77165884 44.77479309 259.76579052 C39.05185085 259.76242257 33.32906268 259.76482552 27.60614204 259.78204155 C22.22405764 259.79752618 16.84232892 259.79353805 11.46025848 259.7747364 C9.48865005 259.77105482 7.51701518 259.77414639 5.54543114 259.78462219 C2.84671876 259.79786334 0.14917858 259.78625727 -2.54948425 259.76863098 C-3.32323802 259.77823599 -4.09699179 259.78784099 -4.89419264 259.79773706 C-10.65402737 259.72072761 -15.47524924 258.24502446 -20.4364624 255.26742554 C-20.9314624 254.27742554 -20.9314624 254.27742554 -21.4364624 253.26742554 C-23.09925567 252.26099803 -24.76629724 251.26157146 -26.4364624 250.26742554 C-28.84525405 248.20274698 -29.39977793 247.37747895 -30.4364624 244.26742554 C-31.07197021 243.65769897 -31.70747803 243.04797241 -32.36224365 242.41976929 C-34.7187533 239.97450222 -35.53738622 238.02756402 -36.6239624 234.82992554 C-36.94751709 233.9030896 -37.27107178 232.97625366 -37.60443115 232.02133179 C-39.18412582 226.79276494 -39.58344074 221.92725105 -39.5769043 216.48234558 C-39.57987542 215.70517061 -39.58284654 214.92799565 -39.5859077 214.12726992 C-39.59456982 211.52659794 -39.59610084 208.92597212 -39.59759521 206.32528687 C-39.60222518 204.45902407 -39.60725008 202.59276222 -39.61264038 200.72650146 C-39.62574993 195.65810628 -39.63220663 190.58972434 -39.63665104 185.52131486 C-39.63958434 182.35276185 -39.64368966 179.18421244 -39.64815521 176.01566124 C-39.66182688 166.09619533 -39.67149493 156.17673768 -39.6753571 146.257263 C-39.67983595 134.81764854 -39.69737721 123.37815367 -39.7263577 111.93857557 C-39.747996 103.08913232 -39.75806255 94.23972266 -39.75939822 85.39025325 C-39.76044479 80.10822905 -39.76632096 74.82631733 -39.78421783 69.54432106 C-39.80073543 64.5727248 -39.80283611 59.60132513 -39.79407883 54.62971115 C-39.7933104 52.81009964 -39.79762535 50.9904774 -39.80753708 49.17089272 C-39.92257222 26.72756878 -39.92257222 26.72756878 -33.4364624 18.26742554 C-32.7764624 18.26742554 -32.1164624 18.26742554 -31.4364624 18.26742554 C-31.4364624 17.60742554 -31.4364624 16.94742554 -31.4364624 16.26742554 C-30.7764624 15.93742554 -30.1164624 15.60742554 -29.4364624 15.26742554 C-29.15673584 14.6499646 -28.87700928 14.03250366 -28.58880615 13.39633179 C-27.14015657 10.72001306 -25.57479169 9.79102732 -22.9989624 8.20492554 C-19.78932152 6.2594593 -19.78932152 6.2594593 -17.08880615 3.70883179 C-12.51641716 -0.27984797 -5.73987727 -0.02345084 0 0 Z " fill="#BD1CAE" transform="translate(84.43646240234375,528.7325744628906)"/>
<path d="M0 0 C25.7736502 -0.07012562 51.54728606 -0.12300563 77.3210125 -0.15543652 C89.28858507 -0.17089593 101.25609832 -0.19196784 113.22363281 -0.22631836 C123.65627461 -0.25624895 134.08887343 -0.27558173 144.52155697 -0.28226548 C150.0439957 -0.28617152 155.56631151 -0.29533212 161.08871078 -0.31719017 C166.29086478 -0.33761306 171.49284566 -0.34382205 176.69503593 -0.33932304 C178.60011296 -0.34014565 180.50519601 -0.34607658 182.41023827 -0.35761642 C200.90598935 -0.46412153 200.90598935 -0.46412153 209 3 C209 3.66 209 4.32 209 5 C210.32 5 211.64 5 213 5 C213 5.66 213 6.32 213 7 C213.5878125 7.26167969 214.175625 7.52335937 214.78125 7.79296875 C217.119138 9.06481275 218.64669784 10.41286528 220.5 12.3125 C221.0671875 12.88613281 221.634375 13.45976563 222.21875 14.05078125 C232.37485577 25.16458998 231.44726954 39.37756656 231.41992188 53.64086914 C231.42727817 55.47403983 231.43586889 57.30720591 231.44558716 59.1403656 C231.46764088 64.07831017 231.47074223 69.0160871 231.46883965 73.95407414 C231.46871926 78.09163761 231.4773104 82.22916642 231.48561716 86.36672014 C231.50479085 96.13260624 231.50775618 105.89840688 231.50097656 115.66430664 C231.49433105 125.70965753 231.51723471 135.75464169 231.55429029 145.79991823 C231.58505221 154.45597976 231.59634057 163.11192364 231.59245348 171.76803869 C231.59039375 176.92433501 231.59574581 182.08034534 231.62034607 187.23658943 C231.64272006 192.08533544 231.64064737 196.93348659 231.62041855 201.7822361 C231.61702797 203.5522178 231.62201253 205.32224044 231.63640213 207.0921669 C231.74570679 221.54341769 229.91429283 233.12387595 219.3203125 243.91015625 C207.54738524 254.51371869 194.52400424 254.4464043 179.48046875 254.41992188 C177.50509158 254.42726983 175.52971869 254.43585816 173.55435181 254.44558716 C168.21142942 254.46773152 162.86866158 254.47073751 157.52569962 254.46883965 C153.05750641 254.46871965 148.58934561 254.47729514 144.12116146 254.48561716 C133.57782246 254.5048245 123.03456263 254.50774424 112.49121094 254.50097656 C101.62905727 254.49433247 90.7672429 254.51722127 79.90515804 254.55429029 C70.56303169 254.58501053 61.22101438 254.59634495 51.87883854 254.59245348 C46.30619637 254.59038899 40.73381851 254.59581968 35.16122437 254.62034607 C29.9210449 254.64264988 24.68141684 254.64070491 19.44123459 254.62041855 C17.52325383 254.61701535 15.60523566 254.62206772 13.68730545 254.63640213 C1.09256311 254.72400749 -8.29370966 253.97069654 -17.9375 244.9375 C-19.00291016 243.96103516 -19.00291016 243.96103516 -20.08984375 242.96484375 C-23.41341243 239.54612177 -25.28361359 236.97802122 -26.1875 232.25 C-26.42533203 231.05117188 -26.42533203 231.05117188 -26.66796875 229.828125 C-26.77753906 229.22484375 -26.88710938 228.6215625 -27 228 C-27.66 228 -28.32 228 -29 228 C-30.51781774 222.59410846 -31.29143438 217.68745919 -31.26069641 212.05743408 C-31.26452196 211.29952473 -31.26834751 210.54161539 -31.27228898 209.76073909 C-31.2825361 207.24308965 -31.27864271 204.72567183 -31.2746582 202.20800781 C-31.27900935 200.39380687 -31.28419384 198.57960777 -31.29014587 196.76541138 C-31.30350583 191.85199213 -31.30411773 186.93864996 -31.30158257 182.0252161 C-31.30051052 177.91520662 -31.30540239 173.80521257 -31.310188 169.6952064 C-31.32127346 159.99275599 -31.32172642 150.2903443 -31.31567383 140.58789062 C-31.30963835 130.59954076 -31.32193647 120.61133191 -31.3432439 110.62300611 C-31.36089667 102.02993795 -31.36685534 93.43691452 -31.36360615 84.84382892 C-31.36179853 79.71940701 -31.36437705 74.59508563 -31.37832069 69.47068024 C-31.39095382 64.64758412 -31.38890332 59.82470662 -31.37590981 55.00161362 C-31.37355613 53.23928374 -31.37623496 51.47693822 -31.38453293 49.71462631 C-31.49743001 23.85718115 -31.49743001 23.85718115 -22 14 C-20.3603279 12.63360658 -18.69672386 11.29486821 -17 10 C-16.443125 9.154375 -15.88625 8.30875 -15.3125 7.4375 C-11.88773325 3.82761073 -7.79144323 2.98388567 -3 2 C-2.01 2 -1.02 2 0 2 C0 1.34 0 0.68 0 0 Z " fill="#BE1DB0" transform="translate(544,33)"/>
<path d="M0 0 C0.82309733 -0.00453111 1.64619465 -0.00906223 2.49423432 -0.01373065 C5.23842195 -0.02633982 7.98241023 -0.02475653 10.72662354 -0.02310181 C12.69993341 -0.02908927 14.67324094 -0.03589531 16.64654541 -0.04345703 C21.99795104 -0.06110294 27.34929269 -0.06581185 32.7007246 -0.0670886 C36.04719645 -0.06851166 39.39365211 -0.07278421 42.74011993 -0.07808304 C54.42378266 -0.09657928 66.10739978 -0.10475423 77.79107666 -0.10317993 C88.66729566 -0.10197893 99.54331609 -0.12307422 110.41948485 -0.15466726 C119.76919921 -0.18085458 129.11884882 -0.19154618 138.46859956 -0.19026911 C144.04743322 -0.18976017 149.62609039 -0.19540614 155.20488739 -0.21662521 C160.45480721 -0.23604866 165.70438293 -0.23610389 170.95431519 -0.22159195 C172.87509923 -0.2195078 174.79590505 -0.22418115 176.71665192 -0.23631287 C192.08248758 -0.32703702 202.92359997 1.38115293 214.5635376 12.26742554 C219.5635376 17.40256067 219.5635376 17.40256067 219.5635376 20.26742554 C220.2235376 20.26742554 220.8835376 20.26742554 221.5635376 20.26742554 C226.56521702 31.44293607 227.28006817 41.16951151 227.19464111 53.27548218 C227.19979068 55.1480629 227.20707972 57.02063875 227.21632385 58.89320374 C227.23471272 63.93872672 227.22197938 68.98371583 227.20223355 74.02921605 C227.18574412 79.33221164 227.19467407 84.63517613 227.19975281 89.93818665 C227.20426192 98.83911583 227.18847642 107.73983405 227.16046143 116.64071655 C227.12840516 126.9041644 227.12843306 137.16723218 227.1456762 147.43070704 C227.16158608 157.34059121 227.15477969 167.25033718 227.13773918 177.16021538 C227.13089995 181.36125852 227.13186878 185.56218983 227.13928413 189.76323128 C227.14699294 194.71700649 227.13467198 199.67035347 227.10743523 204.62405586 C227.10059862 206.43272125 227.10040211 208.241427 227.10765076 210.05009079 C227.1913296 233.66536153 227.1913296 233.66536153 220.1885376 242.14242554 C219.3222876 242.84367554 218.4560376 243.54492554 217.5635376 244.26742554 C216.61180932 245.42251456 215.67526928 246.59021988 214.7510376 247.76742554 C209.47744564 253.97165137 201.60716074 258.4546063 193.47786057 259.54793251 C191.24822146 259.65358377 189.03562168 259.67239317 186.80354309 259.65510559 C185.53487212 259.6631839 185.53487212 259.6631839 184.24057144 259.6714254 C181.42563122 259.68565564 178.61116454 259.67861353 175.79620361 259.67147827 C173.7702395 259.6771844 171.7442786 259.6841496 169.71832275 259.692276 C164.22865135 259.71019521 158.73913991 259.70904136 153.24944806 259.70333362 C148.66196735 259.70024011 144.07451728 259.70633601 139.48704094 259.71237236 C128.66282306 259.72641181 117.83868412 259.72486099 107.01446533 259.71347046 C95.8569995 259.70198853 84.69977402 259.71606761 73.54233986 259.74286693 C63.95314041 259.76503497 54.36401634 259.77165884 44.77479309 259.76579052 C39.05185085 259.76242257 33.32906268 259.76482552 27.60614204 259.78204155 C22.22405764 259.79752618 16.84232892 259.79353805 11.46025848 259.7747364 C9.48865005 259.77105482 7.51701518 259.77414639 5.54543114 259.78462219 C2.84671876 259.79786334 0.14917858 259.78625727 -2.54948425 259.76863098 C-3.32323802 259.77823599 -4.09699179 259.78784099 -4.89419264 259.79773706 C-10.65402737 259.72072761 -15.47524924 258.24502446 -20.4364624 255.26742554 C-20.9314624 254.27742554 -20.9314624 254.27742554 -21.4364624 253.26742554 C-23.09925567 252.26099803 -24.76629724 251.26157146 -26.4364624 250.26742554 C-28.84525405 248.20274698 -29.39977793 247.37747895 -30.4364624 244.26742554 C-31.07197021 243.65769897 -31.70747803 243.04797241 -32.36224365 242.41976929 C-34.7187533 239.97450222 -35.53738622 238.02756402 -36.6239624 234.82992554 C-36.94751709 233.9030896 -37.27107178 232.97625366 -37.60443115 232.02133179 C-39.18412582 226.79276494 -39.58344074 221.92725105 -39.5769043 216.48234558 C-39.57987542 215.70517061 -39.58284654 214.92799565 -39.5859077 214.12726992 C-39.59456982 211.52659794 -39.59610084 208.92597212 -39.59759521 206.32528687 C-39.60222518 204.45902407 -39.60725008 202.59276222 -39.61264038 200.72650146 C-39.62574993 195.65810628 -39.63220663 190.58972434 -39.63665104 185.52131486 C-39.63958434 182.35276185 -39.64368966 179.18421244 -39.64815521 176.01566124 C-39.66182688 166.09619533 -39.67149493 156.17673768 -39.6753571 146.257263 C-39.67983595 134.81764854 -39.69737721 123.37815367 -39.7263577 111.93857557 C-39.747996 103.08913232 -39.75806255 94.23972266 -39.75939822 85.39025325 C-39.76044479 80.10822905 -39.76632096 74.82631733 -39.78421783 69.54432106 C-39.80073543 64.5727248 -39.80283611 59.60132513 -39.79407883 54.62971115 C-39.7933104 52.81009964 -39.79762535 50.9904774 -39.80753708 49.17089272 C-39.92257222 26.72756878 -39.92257222 26.72756878 -33.4364624 18.26742554 C-32.7764624 18.26742554 -32.1164624 18.26742554 -31.4364624 18.26742554 C-31.4364624 17.60742554 -31.4364624 16.94742554 -31.4364624 16.26742554 C-30.7764624 15.93742554 -30.1164624 15.60742554 -29.4364624 15.26742554 C-29.15673584 14.6499646 -28.87700928 14.03250366 -28.58880615 13.39633179 C-27.14015657 10.72001306 -25.57479169 9.79102732 -22.9989624 8.20492554 C-19.78932152 6.2594593 -19.78932152 6.2594593 -17.08880615 3.70883179 C-12.51641716 -0.27984797 -5.73987727 -0.02345084 0 0 Z M-7.4364624 36.26742554 C-8.04251482 39.11727908 -8.2476896 41.12888568 -8.19163513 43.97225952 C-8.20028951 44.74071166 -8.20894389 45.5091638 -8.21786052 46.30090237 C-8.23942951 48.87250519 -8.2181684 51.44193999 -8.19696045 54.01351929 C-8.20345441 55.85834791 -8.21251597 57.70316903 -8.22395325 59.54797363 C-8.24704188 64.55638003 -8.23231081 69.56402477 -8.20948386 74.57240677 C-8.19057673 79.81247297 -8.2017248 85.05248776 -8.20838928 90.29257202 C-8.21473097 99.09258123 -8.1964542 107.89228507 -8.16375732 116.69223022 C-8.12626245 126.86766865 -8.12804119 137.04252854 -8.1507985 147.21799755 C-8.17174337 157.00457607 -8.16447591 166.79094067 -8.14447975 176.57751465 C-8.13649091 180.74332789 -8.13848866 184.90896032 -8.14850426 189.07476807 C-8.1590506 193.98006678 -8.1449423 198.88469087 -8.11176109 203.78988266 C-8.10354881 205.5906071 -8.10384384 207.39139331 -8.11323929 209.19211197 C-8.12465418 211.64969511 -8.10530935 214.10517608 -8.07810974 216.56259155 C-8.08858123 217.27611503 -8.09905272 217.9896385 -8.10984153 218.7247839 C-8.03493316 222.35488576 -7.4759051 224.21084632 -5.38502979 227.21013641 C-1.73222811 229.7587874 1.08093008 229.9631322 5.38226318 229.8888855 C6.16296598 229.89527432 6.94366878 229.90166314 7.74802923 229.90824556 C10.36088363 229.92349153 12.97222067 229.90303804 15.58502197 229.88265991 C17.45940147 229.88616124 19.333778 229.89181995 21.20814514 229.8994751 C26.2970626 229.91373101 31.38544025 229.89665354 36.47430611 229.87318993 C41.79844087 229.8530936 47.12255295 229.85895985 52.44671631 229.86129761 C61.38792837 229.86124402 70.32892921 229.8414792 79.27008057 229.80941772 C89.60900424 229.77252441 99.94765116 229.76374206 110.28663206 229.77071524 C120.23015298 229.77701932 130.17357893 229.76626768 140.11708069 229.74674988 C144.34983167 229.73857266 148.58253414 229.73586693 152.81529236 229.73744202 C157.79923592 229.73832062 162.78291626 229.72411122 167.76679039 229.69821548 C169.59654655 229.69105007 171.4263307 229.68897187 173.25609779 229.69233322 C175.75262194 229.6960448 178.24837657 229.6813121 180.74481201 229.66183472 C181.83260649 229.66982661 181.83260649 229.66982661 182.94237661 229.67797995 C187.27067225 229.61966427 190.36548052 229.30705652 193.5635376 226.26742554 C194.07752581 223.53830681 194.24014372 221.41730899 194.19845581 218.68247986 C194.20625576 217.90278035 194.21405572 217.12308083 194.22209203 216.31975406 C194.24208888 213.69840101 194.22621834 211.07848746 194.21051025 208.4571228 C194.21728305 206.58141225 194.22618427 204.70570834 194.23706055 202.83001709 C194.25990231 197.72868413 194.25099701 192.62785539 194.23516512 187.52651334 C194.2225295 182.19387504 194.23423989 176.86128069 194.24209595 171.52864075 C194.25120012 162.57129139 194.23918525 153.61414795 194.21539307 144.65682983 C194.18818869 134.2951117 194.19698798 123.93388555 194.22452509 113.57217938 C194.24720315 104.68376434 194.25042236 95.79549756 194.23733175 86.90706295 C194.22952902 81.59498367 194.22851809 76.28313574 194.24501419 70.97107124 C194.25944039 65.97636349 194.249471 60.98229084 194.22054291 55.98765182 C194.21392184 54.15263741 194.21584715 52.3175697 194.22685623 50.48257637 C194.24048381 47.98077695 194.22343201 45.48102323 194.19845581 42.97935486 C194.20960942 42.24988146 194.22076303 41.52040806 194.23225462 40.76882941 C194.16402925 37.25549629 193.78988248 35.53741523 191.50973225 32.81759644 C187.86414846 30.89943468 184.81186548 30.70676369 180.789505 30.75276184 C180.01359133 30.74581631 179.23767765 30.73887078 178.43825144 30.73171479 C175.84178049 30.71343802 173.24622255 30.72371062 170.64971924 30.73397827 C168.7868125 30.72692011 166.9239115 30.71817553 165.0610199 30.70787048 C160.00312933 30.68535491 154.94555137 30.68832134 149.88762975 30.69719195 C145.66535007 30.70229954 141.44312926 30.69501112 137.22085565 30.68771988 C127.2602423 30.6707139 117.29978211 30.6742937 107.33917236 30.69100952 C97.06266882 30.70793245 86.78659 30.69209544 76.51013285 30.65978664 C67.68704937 30.63309791 58.86409816 30.62581279 50.04097837 30.63430172 C44.7713287 30.63923291 39.50193461 30.63700483 34.23231697 30.61651421 C29.27699359 30.59816841 24.32228151 30.60410244 19.36699104 30.62871361 C17.54893296 30.63372496 15.73082839 30.63022332 13.91280746 30.61756516 C11.42935291 30.60164247 8.94791333 30.61657599 6.46455383 30.63923645 C5.7461613 30.62740072 5.02776878 30.61556499 4.28760678 30.60337061 C-1.35980378 30.70796508 -3.83501432 32.11744162 -7.4364624 36.26742554 Z " fill="#FDFAFD" transform="translate(84.43646240234375,528.7325744628906)"/>
<path d="M0 0 C25.7736502 -0.07012562 51.54728606 -0.12300563 77.3210125 -0.15543652 C89.28858507 -0.17089593 101.25609832 -0.19196784 113.22363281 -0.22631836 C123.65627461 -0.25624895 134.08887343 -0.27558173 144.52155697 -0.28226548 C150.0439957 -0.28617152 155.56631151 -0.29533212 161.08871078 -0.31719017 C166.29086478 -0.33761306 171.49284566 -0.34382205 176.69503593 -0.33932304 C178.60011296 -0.34014565 180.50519601 -0.34607658 182.41023827 -0.35761642 C200.90598935 -0.46412153 200.90598935 -0.46412153 209 3 C209 3.66 209 4.32 209 5 C210.32 5 211.64 5 213 5 C213 5.66 213 6.32 213 7 C213.5878125 7.26167969 214.175625 7.52335937 214.78125 7.79296875 C217.119138 9.06481275 218.64669784 10.41286528 220.5 12.3125 C221.0671875 12.88613281 221.634375 13.45976563 222.21875 14.05078125 C232.37485577 25.16458998 231.44726954 39.37756656 231.41992188 53.64086914 C231.42727817 55.47403983 231.43586889 57.30720591 231.44558716 59.1403656 C231.46764088 64.07831017 231.47074223 69.0160871 231.46883965 73.95407414 C231.46871926 78.09163761 231.4773104 82.22916642 231.48561716 86.36672014 C231.50479085 96.13260624 231.50775618 105.89840688 231.50097656 115.66430664 C231.49433105 125.70965753 231.51723471 135.75464169 231.55429029 145.79991823 C231.58505221 154.45597976 231.59634057 163.11192364 231.59245348 171.76803869 C231.59039375 176.92433501 231.59574581 182.08034534 231.62034607 187.23658943 C231.64272006 192.08533544 231.64064737 196.93348659 231.62041855 201.7822361 C231.61702797 203.5522178 231.62201253 205.32224044 231.63640213 207.0921669 C231.74570679 221.54341769 229.91429283 233.12387595 219.3203125 243.91015625 C207.54738524 254.51371869 194.52400424 254.4464043 179.48046875 254.41992188 C177.50509158 254.42726983 175.52971869 254.43585816 173.55435181 254.44558716 C168.21142942 254.46773152 162.86866158 254.47073751 157.52569962 254.46883965 C153.05750641 254.46871965 148.58934561 254.47729514 144.12116146 254.48561716 C133.57782246 254.5048245 123.03456263 254.50774424 112.49121094 254.50097656 C101.62905727 254.49433247 90.7672429 254.51722127 79.90515804 254.55429029 C70.56303169 254.58501053 61.22101438 254.59634495 51.87883854 254.59245348 C46.30619637 254.59038899 40.73381851 254.59581968 35.16122437 254.62034607 C29.9210449 254.64264988 24.68141684 254.64070491 19.44123459 254.62041855 C17.52325383 254.61701535 15.60523566 254.62206772 13.68730545 254.63640213 C1.09256311 254.72400749 -8.29370966 253.97069654 -17.9375 244.9375 C-19.00291016 243.96103516 -19.00291016 243.96103516 -20.08984375 242.96484375 C-23.41341243 239.54612177 -25.28361359 236.97802122 -26.1875 232.25 C-26.42533203 231.05117188 -26.42533203 231.05117188 -26.66796875 229.828125 C-26.77753906 229.22484375 -26.88710938 228.6215625 -27 228 C-27.66 228 -28.32 228 -29 228 C-30.51781774 222.59410846 -31.29143438 217.68745919 -31.26069641 212.05743408 C-31.26452196 211.29952473 -31.26834751 210.54161539 -31.27228898 209.76073909 C-31.2825361 207.24308965 -31.27864271 204.72567183 -31.2746582 202.20800781 C-31.27900935 200.39380687 -31.28419384 198.57960777 -31.29014587 196.76541138 C-31.30350583 191.85199213 -31.30411773 186.93864996 -31.30158257 182.0252161 C-31.30051052 177.91520662 -31.30540239 173.80521257 -31.310188 169.6952064 C-31.32127346 159.99275599 -31.32172642 150.2903443 -31.31567383 140.58789062 C-31.30963835 130.59954076 -31.32193647 120.61133191 -31.3432439 110.62300611 C-31.36089667 102.02993795 -31.36685534 93.43691452 -31.36360615 84.84382892 C-31.36179853 79.71940701 -31.36437705 74.59508563 -31.37832069 69.47068024 C-31.39095382 64.64758412 -31.38890332 59.82470662 -31.37590981 55.00161362 C-31.37355613 53.23928374 -31.37623496 51.47693822 -31.38453293 49.71462631 C-31.49743001 23.85718115 -31.49743001 23.85718115 -22 14 C-20.3603279 12.63360658 -18.69672386 11.29486821 -17 10 C-16.443125 9.154375 -15.88625 8.30875 -15.3125 7.4375 C-11.88773325 3.82761073 -7.79144323 2.98388567 -3 2 C-2.01 2 -1.02 2 0 2 C0 1.34 0 0.68 0 0 Z M1 35 C0.59824267 37.57925489 0.4593693 39.73781902 0.49206543 42.31919861 C0.48582547 43.07031325 0.4795855 43.8214279 0.47315645 44.5953036 C0.45716317 47.11976042 0.46985485 49.64326011 0.48242188 52.16772461 C0.4770035 53.97446762 0.46988245 55.78120622 0.46118164 57.5879364 C0.44291013 62.50120347 0.45003192 67.41413545 0.46269798 72.32740855 C0.47280741 77.46385159 0.46343789 82.60026546 0.45715332 87.73670959 C0.44987025 96.36448328 0.45948122 104.99212013 0.47851562 113.61987305 C0.50027872 123.5998138 0.49323971 133.57942763 0.47121 143.55936044 C0.45306657 152.12079989 0.45049272 160.68214082 0.46096468 169.24359328 C0.46720631 174.36002529 0.468017 179.47630357 0.45481873 184.59272575 C0.44327647 189.40350098 0.45125621 194.21385425 0.47439575 199.02458382 C0.47969184 200.79187443 0.47815372 202.55920046 0.46934509 204.32647705 C0.45844096 206.73607247 0.47208968 209.1443093 0.49206543 211.55381775 C0.48314254 212.25605451 0.47421966 212.95829127 0.46502638 213.68180794 C0.51560537 216.81934197 0.85344545 218.76984192 2.5501709 221.43448162 C5.89844726 223.57413625 8.85651002 223.54880183 12.7052002 223.49447632 C13.8760311 223.50171956 13.8760311 223.50171956 15.07051516 223.50910914 C17.68862559 223.52038982 20.30576139 223.50305413 22.92382812 223.48583984 C24.79968022 223.48798547 26.67553103 223.49186282 28.55137634 223.49734497 C33.64848358 223.50704834 38.74524118 223.49172255 43.84230614 223.47143888 C49.17225123 223.45388705 54.50218522 223.4573926 59.83215332 223.4581604 C68.78350687 223.45628662 77.73472492 223.43891237 86.68603516 223.41162109 C97.0402564 223.3801695 107.3943292 223.36962487 117.74859476 223.3710922 C127.70224477 223.37231235 137.65584635 223.36210523 147.60948181 223.34550858 C151.84863157 223.33844133 156.08776419 223.33478185 160.32691956 223.33372116 C165.31735745 223.33171401 170.30767042 223.31951844 175.29806709 223.29938889 C177.13147275 223.29354073 178.96489279 223.29108778 180.79830742 223.29224396 C183.29727159 223.2932236 185.79588451 223.28193173 188.2947998 223.26742554 C189.02359108 223.27052274 189.75238236 223.27361995 190.50325823 223.276811 C194.11508439 223.24208921 197.03307287 223.19721776 200 221 C201.16224161 217.51327517 201.15130872 214.38382028 201.15390015 210.75672913 C201.1582824 210.01378159 201.16266465 209.27083404 201.1671797 208.50537294 C201.1805645 206.00886912 201.18674575 203.51240059 201.19287109 201.01586914 C201.20077208 199.22883444 201.20904103 197.44180133 201.21765137 195.6547699 C201.24386368 189.78158084 201.25917446 183.90838466 201.2734375 178.03515625 C201.27879679 176.01476982 201.2841743 173.99438345 201.28956985 171.97399712 C201.31119405 163.57310256 201.32993295 155.17220993 201.34119225 146.77129459 C201.35744745 134.72148916 201.39066855 122.67200536 201.44759309 110.62232119 C201.48623806 102.15432762 201.50581825 93.68642028 201.51111281 85.21834081 C201.51477267 80.15770857 201.52686173 75.09741942 201.55921555 70.0368824 C201.58920186 65.2786333 201.59564193 60.52093662 201.58383179 55.7626133 C201.58361028 54.01464534 201.59197853 52.26665242 201.60948563 50.51877213 C201.63206354 48.13526137 201.62393764 45.75377338 201.60800171 43.37025452 C201.6218838 42.67579965 201.63576588 41.98134479 201.65006864 41.26584584 C201.59329143 37.82819481 201.18846958 36.22346138 198.95109081 33.57068443 C195.28702828 31.62052893 192.22480453 31.4452005 188.17454529 31.49879456 C187.39313693 31.49326016 186.61172856 31.48772576 185.80664116 31.48202366 C183.19165149 31.46842431 180.57761744 31.48338195 177.96264648 31.49829102 C176.08664545 31.4945076 174.21064721 31.48900738 172.33465576 31.48191833 C167.24175181 31.46795035 162.14918517 31.47914257 157.05629992 31.49562955 C151.72902325 31.50947238 146.40176631 31.50302092 141.07447815 31.49949646 C132.12910521 31.49679397 123.18386642 31.51027414 114.23852539 31.53344727 C103.89163524 31.56006534 93.5449693 31.56180165 83.19805664 31.5500589 C73.24920176 31.53928625 63.3004281 31.54546364 53.35157967 31.55961418 C49.11520534 31.56537761 44.87889039 31.56528851 40.64251518 31.56054878 C35.65612566 31.55578247 30.66998222 31.56586635 25.68363953 31.58750343 C23.85184624 31.59307589 22.02002932 31.59353241 20.18823433 31.58855057 C17.69137197 31.58261071 15.19526527 31.59507739 12.69847107 31.61231995 C11.97036191 31.6063099 11.24225275 31.60029986 10.49207968 31.59410769 C6.44682313 31.64504958 3.61603741 31.73842162 1 35 Z " fill="#FDFAFD" transform="translate(544,33)"/>
<path d="M0 0 C1.71869234 5.15607701 1.18460469 10.60313451 1.1875 16 C1.19974609 17.20140625 1.21199219 18.4028125 1.22460938 19.640625 C1.22654297 20.79046875 1.22847656 21.9403125 1.23046875 23.125 C1.23457764 24.17945313 1.23868652 25.23390625 1.24291992 26.3203125 C1 29 1 29 -1 32 C-2.90429688 32.46069336 -2.90429688 32.46069336 -5.21875 32.58984375 C-6.0638916 32.64922119 -6.9090332 32.70859863 -7.77978516 32.76977539 C-9.1262915 32.85279907 -9.1262915 32.85279907 -10.5 32.9375 C-24.87998361 34.14578454 -33.19799836 38.0482297 -42.85546875 49.12890625 C-50.54199053 59.43453916 -50.43831272 72.41735015 -50.35403442 84.74351501 C-50.35462784 86.29568299 -50.35654724 87.84785093 -50.35966384 89.40001589 C-50.36439649 93.63070043 -50.35057403 97.86114533 -50.33353782 102.09179056 C-50.31844521 106.66787276 -50.32088105 111.24395069 -50.32116699 115.8200531 C-50.31933405 123.74015138 -50.30665863 131.66017176 -50.28662491 139.58024406 C-50.25772781 151.04639635 -50.24651733 162.5125141 -50.23971556 173.97869832 C-50.2282842 192.60455455 -50.20419613 211.2303711 -50.17138672 229.85620117 C-50.1396283 247.90860599 -50.11128855 265.96100807 -50.08935547 284.01342773 C-50.08732511 285.68109667 -50.08732511 285.68109667 -50.08525373 287.38245588 C-50.0706013 299.53014648 -50.05736443 311.677838 -50.04582024 323.82553196 C-50.04480185 324.89437439 -50.04378347 325.96321681 -50.04273423 327.06444841 C-50.03868165 331.3383152 -50.0346451 335.612182 -50.03078984 339.88604898 C-50.01948936 352.37559653 -50.00381905 364.86512009 -49.98014401 377.35465062 C-49.96539641 385.19126207 -49.95394424 393.02787353 -49.94503821 400.86449378 C-49.93973842 405.38064789 -49.93272291 409.89678293 -49.92116928 414.41292572 C-49.91057846 418.55500539 -49.90472537 422.69706495 -49.90246294 426.83915729 C-49.9008165 428.32958972 -49.89746969 429.82002156 -49.89215316 431.31044542 C-49.80398342 456.87919141 -49.80398342 456.87919141 -52.875 465.9375 C-53.23335938 466.99710938 -53.59171875 468.05671875 -53.9609375 469.1484375 C-54.30382812 470.08945312 -54.64671875 471.03046875 -55 472 C-55.26039063 472.73476563 -55.52078125 473.46953125 -55.7890625 474.2265625 C-57.2602038 478.02566365 -59.11636136 480.19875103 -62 483 C-62.91678667 484.36111886 -63.80989838 485.73829247 -64.6875 487.125 C-75.5961454 503.62297609 -92.35500687 514.98221834 -111.65234375 519.5078125 C-118.11233228 520.45758911 -124.47752343 520.16868474 -131 520 C-131 509.77 -131 499.54 -131 489 C-127.04 488.34 -123.08 487.68 -119 487 C-107.76837416 484.59322304 -98.72745655 479.32117474 -92 470 C-91.47792969 469.12601563 -90.95585937 468.25203125 -90.41796875 467.3515625 C-89 465 -89 465 -86.875 462.9375 C-83.35683385 459.30206164 -83.87202676 455.14589978 -83.8613348 450.27647781 C-83.85849258 449.59820134 -83.85565036 448.91992486 -83.85272202 448.22109455 C-83.8443697 445.93785048 -83.84310639 443.65465711 -83.84178162 441.37139893 C-83.83721663 439.72215013 -83.8322167 438.0729025 -83.82681805 436.42365623 C-83.8132203 431.8834682 -83.80581385 427.34328768 -83.79939139 422.80308461 C-83.79139464 417.91012138 -83.77769437 413.01717379 -83.76467896 408.1242218 C-83.74290592 399.64412169 -83.72476445 391.16402001 -83.70907402 382.68390656 C-83.68638294 370.42301303 -83.65823905 358.16213681 -83.62875474 345.90125796 C-83.5810695 326.00986321 -83.53780784 306.11846138 -83.49731445 286.22705078 C-83.45796427 266.90184987 -83.41653919 247.57665524 -83.37231445 228.25146484 C-83.36959018 227.0607045 -83.36686591 225.86994416 -83.36405908 224.64310017 C-83.35037968 218.6695382 -83.33665939 212.69597632 -83.32291877 206.72241449 C-83.20893935 157.14828944 -83.10213323 107.57415077 -83 58 C-82.34 58 -81.68 58 -81 58 C-81.00902344 57.36835938 -81.01804687 56.73671875 -81.02734375 56.0859375 C-80.56870867 42.24712248 -72.81094795 32.01614231 -64 22 C-63.35417969 21.13503906 -62.70835937 20.27007812 -62.04296875 19.37890625 C-59.86612133 16.84410687 -57.90785146 15.60356171 -55 14 C-53.43081924 12.86333293 -51.86843357 11.71723417 -50.3125 10.5625 C-35.34736969 0.139572 -17.65319671 -0.55746937 0 0 Z " fill="#FDFAFD" transform="translate(478,142)"/>
<path d="M0 0 C0.33 0 0.66 0 1 0 C1 22.44 1 44.88 1 68 C-21.44 68 -43.88 68 -67 68 C-67 67.67 -67 67.34 -67 67 C-65.77925781 66.72027344 -64.55851563 66.44054687 -63.30078125 66.15234375 C-48.35365053 62.57581222 -36.64709509 57.34181719 -25 47 C-24.31421875 46.40832031 -23.6284375 45.81664062 -22.921875 45.20703125 C-9.98038861 33.25908417 -3.36104195 16.94183746 0 0 Z " fill="#000000" transform="translate(814,747)"/>
<path d="M0 0 C0.33 0 0.66 0 1 0 C1.27972656 1.22074219 1.55945313 2.44148437 1.84765625 3.69921875 C5.42418778 18.64634947 10.65818281 30.35290491 21 42 C21.59167969 42.68578125 22.18335937 43.3715625 22.79296875 44.078125 C34.74091583 57.01961139 51.05816254 63.63895805 68 67 C68 67.33 68 67.66 68 68 C45.56 68 23.12 68 0 68 C0 45.56 0 23.12 0 0 Z " fill="#000000" transform="translate(0,747)"/>
<path d="M0 0 C22.44 0 44.88 0 68 0 C68 22.44 68 44.88 68 68 C67.67 68 67.34 68 67 68 C66.72027344 66.77925781 66.44054687 65.55851562 66.15234375 64.30078125 C62.57581222 49.35365053 57.34181719 37.64709509 47 26 C46.40832031 25.31421875 45.81664062 24.6284375 45.20703125 23.921875 C33.25908417 10.98038861 16.94183746 4.36104195 0 1 C0 0.67 0 0.34 0 0 Z " fill="#000000" transform="translate(747,0)"/>
<path d="M0 0 C22.44 0 44.88 0 68 0 C68 0.33 68 0.66 68 1 C66.77925781 1.27972656 65.55851562 1.55945313 64.30078125 1.84765625 C49.35365053 5.42418778 37.64709509 10.65818281 26 21 C25.31421875 21.59167969 24.6284375 22.18335937 23.921875 22.79296875 C10.98038861 34.74091583 4.36104195 51.05816254 1 68 C0.67 68 0.34 68 0 68 C0 45.56 0 23.12 0 0 Z " fill="#000000" transform="translate(0,0)"/>
<path d="M0 0 C0.77959037 -0.00568326 1.55918073 -0.01136651 2.36239505 -0.01722199 C4.96535133 -0.03010449 7.56674615 -0.00735493 10.1696167 0.0153656 C12.03915736 0.01350118 13.90869694 0.00946376 15.77822876 0.00341797 C20.84830747 -0.00655431 25.9178269 0.0146073 30.98782444 0.04189801 C36.29065945 0.06572419 41.5934833 0.06278301 46.8963623 0.0632019 C55.79711381 0.06782899 64.69765129 0.09146883 73.59832764 0.12767029 C83.89923776 0.16945443 94.19995533 0.18698816 104.50094533 0.19029003 C115.45884096 0.19388456 126.416667 0.21274792 137.37453365 0.23741031 C140.53752356 0.24364813 143.70050817 0.24727856 146.8635025 0.25044441 C151.82442283 0.25632956 156.78520455 0.27259937 161.74606705 0.29704857 C163.57063603 0.30451071 165.39522249 0.30856192 167.21980667 0.30902863 C169.70185815 0.31027942 172.18353969 0.3237696 174.66552734 0.34057617 C175.39488912 0.33816109 176.12425089 0.335746 176.87571454 0.33325773 C181.8504085 0.38634294 181.8504085 0.38634294 184.07879639 2.61473083 C172.16231476 2.79567587 160.24562957 2.95880638 148.32879639 3.11473083 C147.41138546 3.12690266 146.49397453 3.13907448 145.54876328 3.15161514 C120.18429037 3.48649454 94.82447216 3.65254764 69.45770264 3.61082458 C67.60678701 3.60819799 67.60678701 3.60819799 65.71847916 3.60551834 C53.45269167 3.58772085 41.18704277 3.56016131 28.92136478 3.50454617 C24.33372881 3.48548741 19.74609441 3.47411913 15.1584301 3.46441841 C13.00666823 3.45789619 10.85491412 3.4477025 8.70318794 3.43369865 C5.75908494 3.41469169 2.81518838 3.40768803 -0.12896729 3.40354919 C-0.99829769 3.39479012 -1.8676281 3.38603104 -2.76330185 3.37700653 C-7.31875481 3.17597334 -7.31875481 3.17597334 -10.92120361 5.61473083 C-12.43006942 14.32571452 -12.09607002 23.25220257 -12.12652588 32.06809998 C-12.1361172 33.83295413 -12.14612799 35.59780605 -12.15652466 37.36265564 C-12.18344402 42.13261733 -12.20452339 46.90258878 -12.22452664 51.67258382 C-12.24646666 56.66539724 -12.27381596 61.65818101 -12.30058289 66.65097046 C-12.35040177 76.09609295 -12.39538048 85.541232 -12.43860525 94.98638672 C-12.48807023 105.7433632 -12.54295388 116.50030992 -12.59828484 127.25725758 C-12.71193894 149.37638758 -12.81881376 171.49554602 -12.92120361 193.61473083 C-13.25120361 193.61473083 -13.58120361 193.61473083 -13.92120361 193.61473083 C-14.06129875 169.18901514 -14.16713801 144.76335957 -14.23207664 120.33732319 C-14.26302882 108.99614351 -14.30523557 97.65521329 -14.37384033 86.31419373 C-14.4336004 76.43058378 -14.47234285 66.54715447 -14.48573458 56.66336888 C-14.49356406 51.42875668 -14.51199358 46.19466133 -14.55558395 40.96021461 C-14.59627123 36.03453053 -14.60888048 31.10957679 -14.5998497 26.18374062 C-14.60150208 24.37489861 -14.61346028 22.5660325 -14.63643646 20.75733566 C-14.66626472 18.28839425 -14.65912683 15.82221488 -14.64273071 13.35321045 C-14.66020776 12.63627638 -14.67768481 11.9193423 -14.69569147 11.18068296 C-14.62465985 7.22763936 -13.98483541 5.68822459 -11.3711834 2.66949654 C-7.80006281 0.13627792 -4.27343132 -0.07829832 0 0 Z " fill="#DE71D8" transform="translate(90.92120361328125,559.3852691650391)"/>
<path d="M0 0 C0.66 0.33 1.32 0.66 2 1 C1.34773438 1.54527344 0.69546875 2.09054688 0.0234375 2.65234375 C-11.06625293 12.22088196 -16.17345127 20.79960095 -17.269068 35.64608753 C-17.37275597 39.68198242 -17.38163405 43.70691734 -17.35403442 47.74351501 C-17.35462784 49.29568299 -17.35654724 50.84785093 -17.35966384 52.40001589 C-17.36439649 56.63070043 -17.35057403 60.86114533 -17.33353782 65.09179056 C-17.31844521 69.66787276 -17.32088105 74.24395069 -17.32116699 78.8200531 C-17.31933405 86.74015138 -17.30665863 94.66017176 -17.28662491 102.58024406 C-17.25772781 114.04639635 -17.24651733 125.5125141 -17.23971556 136.97869832 C-17.2282842 155.60455455 -17.20419613 174.2303711 -17.17138672 192.85620117 C-17.1396283 210.90860599 -17.11128855 228.96100807 -17.08935547 247.01342773 C-17.0880019 248.12520702 -17.08664832 249.23698631 -17.08525373 250.38245588 C-17.0706013 262.53014648 -17.05736443 274.677838 -17.04582024 286.82553196 C-17.04480185 287.89437439 -17.04378347 288.96321681 -17.04273423 290.06444841 C-17.03868165 294.3383152 -17.0346451 298.612182 -17.03078984 302.88604898 C-17.01948936 315.37559653 -17.00381905 327.86512009 -16.98014401 340.35465062 C-16.96539641 348.19126207 -16.95394424 356.02787353 -16.94503821 363.86449378 C-16.93973842 368.38064789 -16.93272291 372.89678293 -16.92116928 377.41292572 C-16.91057846 381.55500539 -16.90472537 385.69706495 -16.90246294 389.83915729 C-16.9008165 391.32958972 -16.89746969 392.82002156 -16.89215316 394.31044542 C-16.80398342 419.87919141 -16.80398342 419.87919141 -19.875 428.9375 C-20.40480469 430.51917969 -20.40480469 430.51917969 -20.9453125 432.1328125 C-22.18022359 435.48994116 -23.49153711 438.75680478 -25 442 C-26.10566993 439.21584319 -26.0284329 438.08298707 -25.0390625 435.1953125 C-24.57242187 434.18210937 -24.10578125 433.16890625 -23.625 432.125 C-20.68695972 425.70726955 -19.87541572 420.19376117 -19.87250805 413.15481281 C-19.87086422 412.48765445 -19.86922038 411.82049609 -19.86752674 411.13312081 C-19.86321815 408.89962377 -19.8659849 406.6661922 -19.86869812 404.43269348 C-19.86699538 402.81430771 -19.86484543 401.19592236 -19.86228687 399.57753772 C-19.85769354 396.05977723 -19.85626829 392.54203432 -19.85725212 389.02427101 C-19.858846 383.30034316 -19.85364036 377.57643275 -19.84762573 371.85250854 C-19.83951467 363.54161904 -19.83456956 355.23073259 -19.83133507 346.91983986 C-19.82583607 333.780994 -19.80893613 320.64217408 -19.78999329 307.50334167 C-19.78363661 303.00741677 -19.77732817 298.51149179 -19.77101612 294.01556683 C-19.76943236 292.89198527 -19.7678486 291.76840371 -19.76621684 290.61077422 C-19.74828145 277.82181684 -19.73205447 265.03285762 -19.71704102 252.24389648 C-19.71566514 251.0748633 -19.71428927 249.90583012 -19.71287171 248.70137169 C-19.6909439 229.75902984 -19.68018584 210.81669466 -19.67267027 191.87434236 C-19.66459713 172.42316586 -19.64130064 152.97204662 -19.6047166 133.52090281 C-19.58270067 121.52538632 -19.57302419 109.5299876 -19.57921693 97.53445192 C-19.58239336 89.31182675 -19.57104925 81.08930209 -19.54832252 72.86670802 C-19.53566518 68.12408276 -19.52947234 63.38168148 -19.54073906 58.63904762 C-19.5509305 54.29313982 -19.54261096 49.94766623 -19.5198761 45.60180958 C-19.51489479 44.03384256 -19.51658484 42.46583632 -19.52580877 40.89788852 C-19.59937482 27.31967735 -17.09453026 16.44321811 -8 6 C-5.46222708 3.77333759 -2.84369105 1.81700779 0 0 Z " fill="#E27CE1" transform="translate(445,179)"/>
<path d="M0 0 C6.94650376 8.23073135 6.19832323 20.12838869 6.1171875 30.30859375 C6.11239883 31.49283936 6.10761017 32.67708496 6.10267639 33.8972168 C6.04367676 44.33700578 5.8236222 54.7723415 5.59399414 65.20947266 C5.13056279 86.50558306 4.9356113 107.77036088 5.2265625 129.0703125 C5.23918436 130.00632545 5.25180622 130.94233841 5.26481056 131.90671539 C5.39271287 141.23354456 5.53906505 150.55985655 5.71875 159.88583565 C5.78440961 163.38121609 5.84188279 166.87670545 5.89806747 170.3722496 C5.92647539 171.99740195 5.95892562 173.62248978 5.99585342 175.24747086 C6.3721117 191.80574563 5.26713968 206.99020938 -6 220 C-6.98846711 221.01140139 -7.98505485 222.01517192 -9 223 C-9.66 222.67 -10.32 222.34 -11 222 C-10.22076172 221.25169922 -10.22076172 221.25169922 -9.42578125 220.48828125 C1.77311013 208.95818421 2.73636722 196.60562871 2.59936523 181.39331055 C2.60123283 179.55217661 2.60527706 177.71104381 2.61131287 175.86991882 C2.62122444 170.90727928 2.60022391 165.94521782 2.57283282 160.98266196 C2.54887418 155.77343165 2.5519468 150.56421028 2.55152893 145.35493469 C2.54691266 136.61534936 2.52334581 127.87598306 2.48706055 119.13647461 C2.44526858 109.04400665 2.4277412 98.9517354 2.4244408 88.85918587 C2.42083752 78.08897498 2.40196569 67.31883437 2.37732053 56.54865289 C2.37110378 53.45421015 2.36746013 50.35977276 2.36428642 47.26532555 C2.35837158 42.40032407 2.34201886 37.53546198 2.31768227 32.67051888 C2.31026441 30.88877821 2.30617177 29.10702002 2.30570221 27.32526398 C2.30443713 24.88728874 2.29083489 22.44967633 2.27415466 20.01176453 C2.27656975 19.31243653 2.27898483 18.61310854 2.2814731 17.89258879 C2.22865514 12.93798586 1.24611402 8.75346028 0 4 C0 2.68 0 1.36 0 0 Z " fill="#DA63D7" transform="translate(772,56)"/>
<path d="M0 0 C67.32 0 134.64 0 204 0 C198.81580565 2.59209717 195.10058976 3.14573976 189.42851257 3.13371277 C188.65022419 3.13597833 187.87193581 3.13824388 187.07006294 3.14057809 C184.45383885 3.14692427 181.83766649 3.14608833 179.22143555 3.14526367 C177.34897799 3.14825481 175.47652106 3.15165723 173.60406494 3.15544128 C168.51102366 3.16429083 163.41799916 3.16661982 158.32495093 3.16725707 C154.07545284 3.16820565 149.82595867 3.17188341 145.57646209 3.17542917 C135.55072857 3.1835776 125.52500403 3.18601307 115.49926758 3.18530273 C105.15364048 3.18470205 94.80806554 3.19525116 84.46245164 3.2110464 C75.58423672 3.22411878 66.70603886 3.22948675 57.8278144 3.22884732 C52.52355957 3.22859222 47.21935107 3.23145027 41.91510582 3.24202538 C36.92552194 3.25170108 31.93602871 3.25178913 26.94644165 3.24450874 C25.11548035 3.2434622 23.28451342 3.24582992 21.45356178 3.2518692 C18.95308052 3.25958235 16.45291283 3.2549488 13.95243835 3.24723816 C12.86696678 3.2549535 12.86696678 3.2549535 11.75956649 3.26282471 C7.46952558 3.23361491 3.99054121 2.56968471 0 1 C0 0.67 0 0.34 0 0 Z " fill="#DC63D6" transform="translate(76,788)"/>
<path d="M0 0 C0.33 0 0.66 0 1 0 C1.06864064 49.81931982 1.12151584 99.63863486 1.15319599 149.45799265 C1.15694819 155.33731093 1.16083115 161.21662912 1.16479492 167.09594727 C1.16558185 168.26643208 1.16636878 169.4369169 1.16717956 170.64287096 C1.18023964 189.60447856 1.20389681 208.56605893 1.23145839 227.52765036 C1.25949582 246.97858591 1.27617274 266.42950718 1.28226548 285.88046211 C1.28638537 297.88634082 1.29940586 309.89214254 1.3237494 321.89799755 C1.33958606 330.12668979 1.34440505 338.35534214 1.34050413 346.58404852 C1.33857937 351.33421858 1.34156588 356.08425395 1.35761642 360.83440018 C1.3722021 365.1827152 1.37296102 369.53080478 1.36269668 373.87913012 C1.36142784 375.45260006 1.3652447 377.026084 1.37464955 378.59952635 C1.38669374 380.7388447 1.38019747 382.8773499 1.36914349 385.01665592 C1.37028265 386.20480084 1.37142181 387.39294575 1.37259549 388.61709505 C0.9234876 392.69467878 -0.13257688 395.35586663 -2 399 C-2.66 399.33 -3.32 399.66 -4 400 C-3.5359375 398.39125 -3.5359375 398.39125 -3.0625 396.75 C-2.711875 395.5125 -2.36125 394.275 -2 393 C-1.72391886 392.09716172 -1.72391886 392.09716172 -1.44226032 391.17608428 C-0.84468964 388.23581564 -0.86809336 385.43345043 -0.8613348 382.43265152 C-0.85707147 381.44056241 -0.85707147 381.44056241 -0.85272202 380.42843109 C-0.84437149 378.20262074 -0.84310653 375.97686242 -0.84178162 373.7510376 C-0.83721651 372.14303678 -0.83221656 370.53503714 -0.82681805 368.92703891 C-0.81322169 364.50086669 -0.80581425 360.07470216 -0.79939139 355.64851451 C-0.79139403 350.87825158 -0.77769397 346.10800469 -0.76467896 341.3377533 C-0.74290678 333.07046256 -0.724765 324.80317021 -0.70907402 316.53586578 C-0.68638215 304.58266288 -0.65823837 292.62947774 -0.62875474 280.67628989 C-0.58107046 261.28403833 -0.53780854 241.89177952 -0.49731445 222.49951172 C-0.45796378 203.6593367 -0.41653858 184.81916814 -0.37231445 165.97900391 C-0.36822804 164.23766833 -0.36822804 164.23766833 -0.36405908 162.46115425 C-0.35037968 156.63743299 -0.33665939 150.81371183 -0.32291877 144.98999071 C-0.20894086 96.66000726 -0.10213441 48.33000983 0 0 Z " fill="#D950D2" transform="translate(394,207)"/>
<path d="M0 0 C0.33 0 0.66 0 1 0 C1.25 5.625 1.25 5.625 -1 9 C-1.18920346 11.66118308 -1.26086185 14.21661455 -1.24050903 16.87760925 C-1.24221788 17.68871589 -1.24392673 18.49982254 -1.24568737 19.33550817 C-1.24899046 22.06254684 -1.23796512 24.78934129 -1.22705078 27.51635742 C-1.22648684 29.46751398 -1.22680288 31.41867096 -1.22793579 33.36982727 C-1.22851099 38.67530251 -1.21672968 43.98068782 -1.20278788 49.28614211 C-1.19030831 54.82750098 -1.18911221 60.36886179 -1.18673706 65.91023254 C-1.18051412 76.40744529 -1.1640923 86.90461651 -1.14403808 97.40181094 C-1.12170438 109.3508614 -1.11069202 121.29991381 -1.10064721 133.24897993 C-1.07972678 157.83267633 -1.044535 182.41633584 -1 207 C-4.29943076 202.05085386 -4.14761473 197.22087443 -4.14044189 191.41819763 C-4.14341302 190.66285156 -4.14638414 189.90750548 -4.1494453 189.12927014 C-4.15810533 186.60236346 -4.15963828 184.07550431 -4.16113281 181.54858398 C-4.16576301 179.73482665 -4.17078794 177.92107029 -4.17617798 176.10731506 C-4.18928723 171.18134305 -4.19574442 166.25538465 -4.20018864 161.32939792 C-4.20312261 158.24860435 -4.2072281 155.16781448 -4.21169281 152.08702278 C-4.22536577 142.43879223 -4.2350326 132.79057016 -4.2388947 123.14233059 C-4.24337078 112.02251748 -4.26089862 100.90282757 -4.2898953 89.78305191 C-4.31155325 81.17731204 -4.32160123 72.57160673 -4.32293582 63.96583992 C-4.32398118 58.83130374 -4.32983133 53.6968834 -4.34775543 48.56237602 C-4.36430663 43.7270207 -4.36635756 38.89186742 -4.35761642 34.05649376 C-4.35684973 32.289324 -4.36113985 30.52214307 -4.37107468 28.75500107 C-4.42179122 19.16541237 -4.2719012 10.1676644 -1 1 C-0.67 0.67 -0.34 0.34 0 0 Z " fill="#DF75DC" transform="translate(517,54)"/>
<path d="M0 0 C0.75 1.5625 0.75 1.5625 1 4 C0.35507725 5.02817872 -0.2898455 6.05635744 -0.95431137 7.11569309 C-3.43192066 11.30482302 -3.55309197 14.80247962 -3.48101807 19.58641052 C-3.48443577 20.42543618 -3.48785347 21.26446183 -3.49137473 22.12891251 C-3.49793791 24.92670805 -3.47600372 27.72353381 -3.45410156 30.52124023 C-3.45297275 32.53209918 -3.45360761 34.54295977 -3.45587158 36.55381775 C-3.45701832 42.00378754 -3.43351529 47.45340454 -3.40557575 52.90329242 C-3.38055551 58.60210041 -3.3782196 64.30091667 -3.37347412 69.99977112 C-3.36104621 80.78731956 -3.32822697 91.57470568 -3.28807616 102.36218268 C-3.24335282 114.64503883 -3.22136997 126.92790276 -3.20129442 139.21082008 C-3.15949429 164.47397001 -3.08914568 189.73697591 -3 215 C-6.02269587 209.55914744 -6.14777831 204.32620707 -6.14044189 198.21492004 C-6.14341302 197.43774508 -6.14638414 196.66057011 -6.1494453 195.85984439 C-6.15810742 193.2591724 -6.15963844 190.65854659 -6.16113281 188.05786133 C-6.16576278 186.19159853 -6.17078768 184.32533668 -6.17617798 182.45907593 C-6.18928753 177.39068075 -6.19574422 172.32229881 -6.20018864 167.25388932 C-6.20312194 164.08533631 -6.20722726 160.9167869 -6.21169281 157.7482357 C-6.22536448 147.8287698 -6.23503253 137.90931214 -6.2388947 127.98983747 C-6.24337354 116.550223 -6.26091481 105.11072813 -6.2898953 93.67115003 C-6.31153359 84.82170678 -6.32160015 75.97229712 -6.32293582 67.12282771 C-6.32398238 61.84080352 -6.32985855 56.5588918 -6.34775543 51.27689552 C-6.36427303 46.30529927 -6.3663737 41.33389959 -6.35761642 36.36228561 C-6.356848 34.5426741 -6.36116295 32.72305186 -6.37107468 30.90346718 C-6.48201002 9.26001431 -6.48201002 9.26001431 0 0 Z " fill="#E176DD" transform="translate(51,547)"/>
<path d="M0 0 C0.66 0.33 1.32 0.66 2 1 C1.35033736 1.67299605 0.70067472 2.34599211 0.03132534 3.03938198 C-2.52021886 6.75820908 -2.50048905 8.88498444 -2.50120544 13.36988831 C-2.50673984 14.10229404 -2.51227424 14.83469977 -2.51797634 15.58929962 C-2.53156766 18.03847738 -2.51662279 20.48663337 -2.50170898 22.93579102 C-2.5054927 24.69356723 -2.51099317 26.45134046 -2.51808167 28.20910645 C-2.53204574 32.97971471 -2.52086028 37.7499627 -2.50437045 42.52055097 C-2.49052409 47.5115012 -2.49697948 52.50243044 -2.50050354 57.49339294 C-2.50320574 65.87382822 -2.48972835 74.25412028 -2.46655273 82.63452148 C-2.43993428 92.32703728 -2.43819862 102.01931373 -2.4499411 111.71185356 C-2.46071486 121.0328017 -2.45453553 130.35366316 -2.44038582 139.67460442 C-2.4346234 143.64303572 -2.43471069 147.61140365 -2.43945122 151.57983589 C-2.44421858 156.25105404 -2.43412933 160.92200961 -2.41249657 165.5931778 C-2.40692556 167.30886639 -2.40646627 169.02458021 -2.41144943 170.74027061 C-2.41739232 173.07950493 -2.40491713 175.41793367 -2.38768005 177.75709534 C-2.38525016 179.06692163 -2.38282026 180.37674791 -2.38031673 181.72626591 C-1.97463014 185.21838159 -1.4458282 186.5408661 1 189 C1.99 189.66 2.98 190.32 4 191 C1.125 190.6875 1.125 190.6875 -2 190 C-4.39721086 186.4041837 -4.28566205 183.82603272 -4.26742554 179.67407227 C-4.27195665 178.92225205 -4.27648776 178.17043184 -4.28115618 177.3958292 C-4.29384596 174.86929292 -4.2921769 172.34297093 -4.29052734 169.81640625 C-4.29650965 168.00804363 -4.3033145 166.19968358 -4.31088257 164.3913269 C-4.32857776 159.47409096 -4.33323936 154.55692458 -4.33451414 149.63965988 C-4.33641093 145.53899299 -4.34376572 141.4383424 -4.35085833 137.33768177 C-4.36715242 127.66684458 -4.37202626 117.99604465 -4.37060547 108.32519531 C-4.369403 98.33730364 -4.39052346 88.34962771 -4.4220928 78.36179066 C-4.44820824 69.79528946 -4.45897479 61.22885895 -4.45769465 52.66231823 C-4.45718372 47.54198313 -4.46293902 42.42183977 -4.48405075 37.30154419 C-4.50335422 32.48834452 -4.50361204 27.67552111 -4.48901749 22.8623085 C-4.4869186 21.0929726 -4.49169408 19.32361363 -4.5037384 17.55431747 C-4.51908495 15.14440598 -4.50995463 12.73580918 -4.49447632 10.32592773 C-4.50476344 9.62077813 -4.51505057 8.91562853 -4.52564943 8.18911076 C-4.49777794 6.23435974 -4.49777794 6.23435974 -4 3 C-1.96909523 1.04212952 -1.96909523 1.04212952 0 0 Z " fill="#DB6AD7" transform="translate(549,65)"/>
<path d="M0 0 C5.94 0 11.88 0 18 0 C19.71869234 5.15607701 19.18460469 10.60313451 19.1875 16 C19.19974609 17.20140625 19.21199219 18.4028125 19.22460938 19.640625 C19.22750977 21.36539063 19.22750977 21.36539063 19.23046875 23.125 C19.23457764 24.17945313 19.23868652 25.23390625 19.24291992 26.3203125 C19 29 19 29 17 32 C15.01635742 32.49243164 15.01635742 32.49243164 12.60546875 32.66015625 C11.73212891 32.73169922 10.85878906 32.80324219 9.95898438 32.87695312 C9.04439453 32.93818359 8.12980469 32.99941406 7.1875 33.0625 C1.70572221 33.45768883 -2.90568015 33.81672006 -8 36 C-8.99 35.67 -9.98 35.34 -11 35 C-9.25093469 34.35163958 -7.50070781 33.70641216 -5.75 33.0625 C-4.28820312 32.52302734 -4.28820312 32.52302734 -2.796875 31.97265625 C4.14427004 29.55876643 7.69638475 30 16 30 C16 20.43 16 10.86 16 1 C10.72 1 5.44 1 0 1 C0 0.67 0 0.34 0 0 Z " fill="#E692E2" transform="translate(460,142)"/>
<path d="M0 0 C0.33 0 0.66 0 1 0 C1.07468157 4.00178342 1.12885021 8.00329167 1.16479492 12.00561523 C1.17979409 13.36441117 1.20020038 14.72315941 1.22631836 16.08178711 C1.49277321 30.30838651 1.49277321 30.30838651 -2 36 C-2.99 36.495 -2.99 36.495 -4 37 C-3.5359375 35.39125 -3.5359375 35.39125 -3.0625 33.75 C-2.5365625 31.89375 -2.5365625 31.89375 -2 30 C-1.81961182 29.38801758 -1.63922363 28.77603516 -1.45336914 28.14550781 C-0.87128819 25.39088888 -0.78014297 22.73559519 -0.68359375 19.921875 C-0.64169922 18.76171875 -0.59980469 17.6015625 -0.55664062 16.40625 C-0.49766602 14.59640625 -0.49766602 14.59640625 -0.4375 12.75 C-0.39431641 11.52796875 -0.35113281 10.3059375 -0.30664062 9.046875 C-0.20062645 6.0313608 -0.09856064 3.01576552 0 0 Z " fill="#D956D1" transform="translate(394,570)"/>
<path d="M0 0 C1.06637695 -0.01160156 1.06637695 -0.01160156 2.15429688 -0.0234375 C5.91262031 -0.00929517 7.6114956 0.11599707 10.8125 2.25 C9.70132812 2.31058594 8.59015625 2.37117187 7.4453125 2.43359375 C-0.455387 2.87493888 -8.32026558 3.37586284 -16.1875 4.25 C-11.76140605 -0.17609395 -5.93528663 -0.06564372 0 0 Z " fill="#CE39C9" transform="translate(466.1875,139.75)"/>
<path d="M0 0 C0.66 0.33 1.32 0.66 2 1 C-2.79077028 5.9255107 -7.77674023 10.53648711 -13 15 C-13 10.90956139 -11.29516334 9.60346356 -8.66015625 6.64453125 C-6.64304206 4.64640167 -4.50393633 3.32152195 -2 2 C-1.34 1.34 -0.68 0.68 0 0 Z " fill="#E483E4" transform="translate(425,154)"/>
<path d="M0 0 C0.75 1.5625 0.75 1.5625 1 4 C0.03422338 5.77059047 -0.93888004 7.53970806 -2.0078125 9.25 C-3.24949666 11.44005711 -3.69858491 13.51332548 -4 16 C-4.66 15.67 -5.32 15.34 -6 15 C-3.10933941 4.44191344 -3.10933941 4.44191344 0 0 Z " fill="#DF6FDD" transform="translate(51,547)"/>
<path d="M0 0 C1.39864092 3.17872935 0.89282517 4.30111022 -0.3125 7.6875 C-2 11 -2 11 -4 12 C-2.87204037 7.89100419 -1.66489182 3.92438786 0 0 Z " fill="#E893E4" transform="translate(394,595)"/>
<path d="M0 0 C0.66 0.33 1.32 0.66 2 1 C-0.97 3.64 -3.94 6.28 -7 9 C-7.33 8.01 -7.66 7.02 -8 6 C-5.36 4.02 -2.72 2.04 0 0 Z " fill="#DA67D8" transform="translate(445,179)"/>
<path d="M0 0 C0.33 0 0.66 0 1 0 C1.34833144 4.87664009 0.41685712 7.77050005 -2 12 C-3.12377697 8.69564916 -2.89554742 6.9493138 -1.5625 3.75 C-1.27503906 3.04359375 -0.98757813 2.3371875 -0.69140625 1.609375 C-0.46324219 1.07828125 -0.23507812 0.5471875 0 0 Z " fill="#E588E1" transform="translate(517,54)"/>
<path d="M0 0 C0.79921875 0.01804687 1.5984375 0.03609375 2.421875 0.0546875 C3.02515625 0.07789063 3.6284375 0.10109375 4.25 0.125 C-0.57361952 2.61997561 -3.35776837 3.20344633 -8.75 2.125 C-5.68753253 0.34090198 -3.52920727 -0.10380021 0 0 Z " fill="#D147CA" transform="translate(275.75,787.875)"/>
</svg>
