<?xml version="1.0" encoding="UTF-8"?>
<svg version="1.1" xmlns="http://www.w3.org/2000/svg" width="360" height="360">
<path d="M0 0 C0.79757217 -0.00335861 1.59514435 -0.00671722 2.41688538 -0.01017761 C5.0404722 -0.01963783 7.66399487 -0.02162819 10.28759766 -0.02270508 C12.12073797 -0.02592092 13.95387804 -0.02928523 15.78701782 -0.03279114 C19.62510778 -0.03876996 23.46317525 -0.0406323 27.30126953 -0.04003906 C32.20587727 -0.03993747 37.11034014 -0.05359195 42.01491356 -0.07081127 C45.80000463 -0.08195935 49.58506097 -0.08395741 53.37016678 -0.08342934 C55.17776616 -0.08460513 56.98536656 -0.08900429 58.79294968 -0.0967617 C61.32691191 -0.10661909 63.86056343 -0.1036611 66.39453125 -0.09765625 C67.13245407 -0.10327576 67.87037689 -0.10889526 68.63066101 -0.11468506 C76.22878771 -0.06920168 82.74795476 1.28229935 88.82666016 6.14526367 C95.10923522 12.57062453 96.12953351 18.99543701 96.10131836 27.59985352 C96.10642929 28.41547256 96.11154022 29.23109161 96.11680603 30.07142639 C96.13062998 32.7497607 96.12975062 35.42783557 96.12744141 38.10620117 C96.13133245 39.98035781 96.13566796 41.85451358 96.14042664 43.72866821 C96.1478735 47.65076561 96.14760882 51.57277296 96.14233398 55.49487305 C96.13654321 60.50369084 96.15346839 65.51213838 96.17667866 70.520895 C96.19146069 74.39010752 96.19228159 78.2592318 96.18916893 82.12846756 C96.18967995 83.97431801 96.19487631 85.82017369 96.20498085 87.66599655 C96.21741421 90.25486574 96.21051262 92.84302565 96.19897461 95.43188477 C96.20661835 96.18334274 96.21426208 96.93480072 96.22213745 97.70903015 C96.15426182 104.65168935 94.47551393 110.64842796 90.63916016 116.45776367 C84.58729755 122.24065461 78.71501761 123.74306649 70.50830078 123.6628418 C69.61290085 123.66985107 68.71750092 123.67686035 67.79496765 123.68408203 C64.85729263 123.70157915 61.92059369 123.69006876 58.98291016 123.67651367 C56.92842424 123.67921096 54.87393957 123.68309536 52.81945801 123.68811035 C48.52241817 123.69399419 44.22571188 123.68547827 39.92871094 123.66674805 C34.43430274 123.64395938 28.94067624 123.65708842 23.44629669 123.6810379 C19.20650393 123.69552593 14.966895 123.69087609 10.72709656 123.68052673 C8.70179653 123.67786776 6.67647955 123.68109988 4.65119934 123.69044495 C1.81535952 123.70066003 -1.019233 123.6850403 -3.85498047 123.6628418 C-5.09741264 123.67498718 -5.09741264 123.67498718 -6.36494446 123.68737793 C-12.06566205 123.60514775 -16.39547705 122.31467565 -21.17333984 119.14526367 C-23.23193359 116.89135742 -23.23193359 116.89135742 -24.61083984 114.58276367 C-25.08392578 113.81834961 -25.55701172 113.05393555 -26.04443359 112.26635742 C-28.43716918 107.77066392 -28.32770821 103.61476716 -28.33447266 98.65405273 C-28.33943756 97.78703735 -28.34440247 96.92002197 -28.34951782 96.0267334 C-28.36413733 93.15477711 -28.37094169 90.28287608 -28.37646484 87.41088867 C-28.3822172 85.41412352 -28.38797493 83.41735838 -28.39373779 81.42059326 C-28.40424768 77.23083234 -28.41009019 73.04109061 -28.41357422 68.85131836 C-28.41905383 63.49022591 -28.4430706 58.12938808 -28.47154617 52.7683754 C-28.49019868 48.64189928 -28.49537959 44.51548413 -28.4969101 40.38896942 C-28.49993208 38.41306926 -28.50794527 36.43717006 -28.52109528 34.46131134 C-28.5382076 31.69203008 -28.53626267 28.92336586 -28.52978516 26.15405273 C-28.53899994 25.34236633 -28.54821472 24.53067993 -28.55770874 23.69439697 C-28.49879503 15.62758594 -25.90646571 10.01171804 -20.17333984 4.14526367 C-13.7666372 0.19219183 -7.35857677 -0.00449452 0 0 Z M-12.17333984 17.14526367 C-13.40421294 20.83788296 -13.34483902 24.27033464 -13.36621094 28.11743164 C-13.37438843 28.92913818 -13.38256592 29.74084473 -13.39099121 30.57714844 C-13.41580904 33.26390854 -13.43235011 35.95061601 -13.44677734 38.63745117 C-13.45210102 39.55519444 -13.4574247 40.4729377 -13.4629097 41.41849136 C-13.48962293 46.27418431 -13.50900547 51.12985168 -13.5234375 55.9855957 C-13.53679003 60.00535775 -13.56466916 64.02461377 -13.60546875 68.04418945 C-13.65473235 72.89766795 -13.67955045 77.75068659 -13.68666458 82.60440445 C-13.69338402 84.45360458 -13.7086241 86.30279417 -13.73255539 88.15185165 C-13.76414536 90.73988245 -13.76425374 93.32613399 -13.75683594 95.91430664 C-13.77324127 96.67707916 -13.78964661 97.43985168 -13.80654907 98.22573853 C-13.76256012 101.97672897 -13.27145902 104.00128515 -11.14457703 107.12223816 C-7.39897866 109.67250278 -4.42919905 109.83103114 -0.05004883 109.74462891 C0.75380249 109.74857162 1.55765381 109.75251434 2.38586426 109.75657654 C5.03473864 109.76327259 7.68187736 109.73415716 10.33056641 109.70385742 C12.17471482 109.69960576 14.0188686 109.69727857 15.86302185 109.6967926 C19.72411424 109.69063151 23.58462553 109.66795141 27.44555664 109.63232422 C32.39435921 109.58702043 37.34263614 109.5722963 42.29162693 109.5685873 C46.09804974 109.5641585 49.90436229 109.54885476 53.71073723 109.52971077 C55.53558381 109.52083305 57.36044214 109.51410087 59.18530464 109.50955009 C61.73465875 109.50050559 64.28353825 109.4781139 66.83276367 109.45166016 C67.96357613 109.45066315 67.96357613 109.45066315 69.11723328 109.449646 C72.80589725 109.39682891 75.75486797 109.31877595 78.82666016 107.14526367 C80.42327744 103.95202911 79.99189409 100.48775009 80.00366211 96.97949219 C80.01023331 96.13545837 80.0168045 95.29142456 80.02357483 94.42181396 C80.04332216 91.62259845 80.05497186 88.82343654 80.06494141 86.02416992 C80.06901693 85.0699156 80.07309246 84.11566128 80.07729149 83.13249016 C80.09815553 78.08458547 80.1124574 73.03670802 80.12182617 67.98876953 C80.13290844 62.76505757 80.16732822 57.54176951 80.20699787 52.31820774 C80.23308814 48.30941452 80.24151109 44.30072362 80.24510765 40.29185295 C80.24999108 38.36566228 80.26165464 36.43947671 80.28014565 34.51336861 C80.30438256 31.82204237 80.30360099 29.13183065 80.29663086 26.44042969 C80.30944092 25.64084335 80.32225098 24.84125702 80.33544922 24.0174408 C80.30556769 20.86195962 80.25513642 18.70906275 78.31036377 16.15008545 C74.76129098 14.71425164 71.38476162 14.73582688 67.61743164 14.77294922 C66.79261292 14.76929855 65.96779419 14.76564789 65.11798096 14.7618866 C62.39436185 14.75378723 59.67133878 14.76738485 56.94775391 14.78198242 C55.05493673 14.78250105 53.16211901 14.78198324 51.26930237 14.7804718 C47.30404613 14.78056149 43.33899333 14.79098587 39.3737793 14.80908203 C34.28699183 14.83178454 29.20050123 14.83231018 24.11367702 14.82556438 C20.20609389 14.8222259 16.29857865 14.82885196 12.39100838 14.83869362 C10.5150901 14.84254683 8.63916428 14.84369334 6.76324272 14.84210777 C4.1441796 14.84173763 1.52549978 14.85434243 -1.09350586 14.87060547 C-1.87124863 14.86812805 -2.64899139 14.86565063 -3.45030212 14.86309814 C-7.22921173 14.90061897 -8.94989243 14.99629873 -12.17333984 17.14526367 Z " fill="#AD0CC5" transform="translate(40.17333984375,232.854736328125)"/>
<path d="M0 0 C0.88520828 -0.00671722 1.77041656 -0.01343445 2.68244934 -0.02035522 C5.60370526 -0.03932524 8.52473127 -0.04325903 11.44604492 -0.04541016 C13.4823974 -0.05183915 15.51874895 -0.05856759 17.55509949 -0.06558228 C21.82288758 -0.07755282 26.09059474 -0.08126336 30.35839844 -0.08007812 C35.81584457 -0.07987504 41.27276937 -0.10716779 46.73009205 -0.14162254 C50.93639998 -0.16390717 55.1425828 -0.16791517 59.34894371 -0.16685867 C61.36030561 -0.16921263 63.37167106 -0.17802454 65.38297462 -0.19352341 C68.20229762 -0.21321329 71.02050108 -0.20733338 73.83984375 -0.1953125 C74.66349426 -0.20655151 75.48714478 -0.21779053 76.33575439 -0.22937012 C82.9233548 -0.15832616 88.11667518 1.70402096 93.13745117 6.03662109 C93.80647461 6.87386719 93.80647461 6.87386719 94.48901367 7.72802734 C95.18124023 8.56140625 95.18124023 8.56140625 95.88745117 9.41162109 C99.24300765 14.55182067 99.41111795 19.13182099 99.40454102 25.0847168 C99.41125824 25.96017151 99.41797546 26.83562622 99.42489624 27.73760986 C99.44386473 30.62640082 99.44779997 33.51495926 99.44995117 36.40380859 C99.45638028 38.41774083 99.46310873 40.43167213 99.47012329 42.44560242 C99.48209346 46.6663123 99.48580442 50.88694036 99.48461914 55.10766602 C99.48441606 60.50458041 99.51170851 65.9009676 99.54616356 71.29775715 C99.5684496 75.4577422 99.57245614 79.61760076 99.57139969 83.77763939 C99.57375344 85.7666728 99.58256422 87.75570981 99.59806442 89.74468422 C99.61775718 92.53287818 99.61187333 95.31994039 99.59985352 98.1081543 C99.61109253 98.92245407 99.62233154 99.73675385 99.63391113 100.57572937 C99.55583941 107.73667781 97.37967056 112.91949107 92.42651367 118.10302734 C85.81091148 122.47182124 79.16332269 123.7414102 71.34057617 123.67871094 C70.5149115 123.6839679 69.68924683 123.68922485 68.83856201 123.69464111 C66.13851392 123.70772864 63.43906663 123.69914333 60.73901367 123.68896484 C58.84529509 123.69098881 56.95157726 123.69390294 55.05786133 123.69766235 C51.10059138 123.70207048 47.14352542 123.6957035 43.1862793 123.68164062 C38.13265747 123.66454971 33.07951375 123.67439901 28.02590942 123.69235802 C24.11894171 123.70323679 20.21208597 123.69973078 16.30511475 123.69197464 C14.44252464 123.68998394 12.57992413 123.69239187 10.71734619 123.6994133 C8.10711012 123.70709554 5.49763134 123.6953298 2.88745117 123.67871094 C2.12978455 123.68478363 1.37211792 123.69085632 0.5914917 123.69711304 C-6.0503041 123.61939875 -11.98563074 122.0307407 -17.69848633 118.60302734 C-23.22050159 112.76546835 -24.48039929 106.70571302 -24.41943359 98.88037109 C-24.42804916 97.97521759 -24.43666473 97.07006409 -24.44554138 96.13748169 C-24.46810782 93.16736657 -24.46148017 90.19820205 -24.45239258 87.22802734 C-24.45763192 85.15112022 -24.46390954 83.07421548 -24.47117615 80.99731445 C-24.48156289 76.65320607 -24.47704303 72.30942562 -24.46240234 67.96533203 C-24.44520875 62.41027676 -24.46872651 56.8562553 -24.50389194 51.30131531 C-24.52589534 47.01518964 -24.52441743 42.72931029 -24.51612663 38.44314575 C-24.5153089 36.39550644 -24.52213815 34.34784873 -24.53689766 32.30026245 C-24.55439987 29.433097 -24.53975442 26.56777627 -24.51708984 23.70068359 C-24.52878204 22.86304474 -24.54047424 22.02540588 -24.55252075 21.16238403 C-24.45481429 15.05963734 -22.68436308 11.05720156 -18.88598633 6.29052734 C-13.02765505 0.72511263 -7.74618317 -0.00846177 0 0 Z M-7.88598633 16.29052734 C-9.48286065 19.48427599 -9.0422267 22.94795721 -9.04711914 26.45629883 C-9.05208405 27.30033264 -9.05704895 28.14436646 -9.06216431 29.01397705 C-9.07680023 31.81319994 -9.08358975 34.61236619 -9.08911133 37.41162109 C-9.09486092 39.35213727 -9.10061867 41.29265343 -9.10638428 43.23316956 C-9.11689787 47.30445623 -9.12273842 51.37572314 -9.1262207 55.44702148 C-9.13171092 60.67065594 -9.15574869 65.89403045 -9.18419266 71.11758327 C-9.20278974 75.12637605 -9.20802304 79.13510579 -9.20955658 83.14393806 C-9.21258949 85.070114 -9.22063939 86.99628865 -9.23374176 88.92242241 C-9.25074371 91.61360511 -9.24893665 94.30414713 -9.24243164 96.99536133 C-9.25164642 97.79494766 -9.26086121 98.594534 -9.27035522 99.41835022 C-9.24850525 102.29523691 -9.19154909 104.68843601 -7.87443542 107.28372192 C-4.62543046 108.92878079 -1.27438744 108.71494108 2.28564453 108.69458008 C3.11846451 108.70144333 3.95128448 108.70830658 4.80934143 108.71537781 C7.56601954 108.73369924 10.32213141 108.72980068 13.07885742 108.72412109 C14.99313035 108.72868046 16.90740164 108.73398529 18.82167053 108.74000549 C22.83577113 108.74894718 26.84967289 108.74650159 30.86376953 108.73657227 C36.01007243 108.72508339 41.1556891 108.74528743 46.30190182 108.7744894 C50.25586819 108.79282855 54.20966945 108.79256347 58.16366768 108.78685188 C60.06110153 108.78669838 61.95854637 108.79276688 63.85593987 108.80514336 C66.50872811 108.82000792 69.1602402 108.8094101 71.81298828 108.79223633 C72.59805756 108.8019043 73.38312683 108.81157227 74.19198608 108.8215332 C77.50410994 108.77659286 79.75158239 108.5118906 82.60147095 106.77125549 C84.73235133 103.27638896 84.66532926 100.06933939 84.61572266 96.09716797 C84.62112564 95.27395554 84.62652863 94.4507431 84.63209534 93.60258484 C84.64459445 90.88361571 84.62808414 88.16570302 84.61010742 85.44677734 C84.61026238 83.55635523 84.61175088 81.66593279 84.61451721 79.7755127 C84.61590173 75.81439156 84.60333425 71.85363229 84.58056641 67.89257812 C84.55218165 62.81475835 84.5549184 57.73753987 84.56765652 52.6596756 C84.574611 48.75631575 84.56682705 44.85309491 84.55439949 40.94975281 C84.54988275 39.07745395 84.54955014 37.20514018 84.55346489 35.33283997 C84.55637484 32.71621095 84.53988078 30.10041098 84.51806641 27.48388672 C84.52256805 26.70973923 84.5270697 25.93559174 84.53170776 25.13798523 C84.48761412 21.95528465 84.31587912 19.66016693 82.77626038 16.84094238 C79.22893619 13.532273 74.85652538 14.14251505 70.30957031 14.14526367 C69.51576462 14.14190506 68.72195892 14.13854645 67.90409851 14.13508606 C65.27743977 14.1255794 62.6508448 14.12363315 60.02416992 14.12255859 C58.19957961 14.11934602 56.37498955 14.11598195 54.55039978 14.11247253 C50.72467451 14.10648212 46.89897182 14.10463257 43.07324219 14.10522461 C38.16927508 14.10532627 33.26545262 14.09166928 28.36151981 14.0744524 C24.59288364 14.06333862 20.82428252 14.0613052 17.05563164 14.06183434 C15.24751728 14.06065346 13.43940204 14.0562257 11.63130379 14.04850197 C9.103383 14.03871385 6.57577733 14.04157533 4.04785156 14.04760742 C3.30018524 14.04198792 2.55251892 14.03636841 1.78219604 14.03057861 C-1.90362773 14.05294819 -4.81766567 14.11690318 -7.88598633 16.29052734 Z " fill="#AB0CC2" transform="translate(252.885986328125,16.70947265625)"/>
<path d="M0 0 C0 4.62 0 9.24 0 14 C-1.03125 14.268125 -2.0625 14.53625 -3.125 14.8125 C-6.65257232 15.81221685 -9.74780415 17.29998853 -13 19 C-13.99 19.33 -14.98 19.66 -16 20 C-17.18391223 22.37625345 -17.18391223 22.37625345 -18 25 C-18.495 26.485 -18.495 26.485 -19 28 C-19.09995251 30.28764275 -19.1377618 32.57813584 -19.14476013 34.86795044 C-19.14828698 35.57061818 -19.15181382 36.27328592 -19.15544754 36.99724662 C-19.16614325 39.3577088 -19.16981709 41.71813063 -19.17358398 44.07861328 C-19.1798888 45.76886669 -19.18665452 47.45911843 -19.19384766 49.14936829 C-19.20852561 52.79324116 -19.22024733 56.43710759 -19.22979546 60.08099747 C-19.24524471 65.84698748 -19.26919549 71.61292254 -19.29469299 77.37887573 C-19.36589864 93.77663702 -19.42560725 110.17443011 -19.47680664 126.57226562 C-19.50514982 135.62571865 -19.54055525 144.67911733 -19.58346039 153.73251331 C-19.61017551 159.45943168 -19.62811629 165.18628855 -19.63949764 170.91325688 C-19.64865373 174.48536437 -19.66603021 178.05739755 -19.68567657 181.62946129 C-19.69312104 183.28015532 -19.69723126 184.93086845 -19.69767189 186.58157921 C-19.70410831 199.92749091 -20.16625195 211.87151687 -29.97265625 222.046875 C-37.69561882 228.60648749 -45.9848763 231 -56 231 C-56 226.38 -56 221.76 -56 217 C-53.958125 216.38125 -53.958125 216.38125 -51.875 215.75 C-46.10289173 213.81688827 -41.26385111 211.32523075 -38 206 C-36.85282806 202.55848418 -36.86657259 199.89764229 -36.85523987 196.26612854 C-36.85171302 195.57782815 -36.84818618 194.88952777 -36.84455246 194.18036979 C-36.83385772 191.86836802 -36.83018302 189.55640744 -36.82641602 187.24438477 C-36.82011094 185.58855515 -36.81334519 183.93272724 -36.80615234 182.27690125 C-36.79147351 178.70669978 -36.77975196 175.13650491 -36.77020454 171.56628609 C-36.75474735 165.91288823 -36.73079501 160.25954629 -36.70530701 154.60618591 C-36.63412746 138.52826478 -36.57446298 122.45031095 -36.52319336 106.37231445 C-36.49481224 97.49572315 -36.4593841 88.61918684 -36.41653961 79.74265331 C-36.38988076 74.13197706 -36.3719053 68.52136301 -36.36050236 62.91063607 C-36.35131948 59.40393682 -36.33393043 55.89731242 -36.31432343 52.39065742 C-36.30690446 50.77508736 -36.30277031 49.15949802 -36.30232811 47.54391098 C-36.29531516 33.3571831 -36.25189672 20.36156498 -26.40234375 9.1875 C-19.15303134 2.33235824 -9.71708986 0 0 0 Z " fill="#101010" transform="translate(210,71)"/>
</svg>
