<?xml version="1.0" encoding="UTF-8"?>
<svg version="1.1" xmlns="http://www.w3.org/2000/svg" width="131" height="125">
<path d="M0 0 C1.50110261 -0.00337961 3.00220252 -0.00824167 4.5032959 -0.01449585 C7.62990703 -0.02181361 10.75579773 -0.01132935 13.88232422 0.01220703 C17.85645672 0.04069325 21.8289001 0.02426138 25.80297089 -0.00565529 C28.89691511 -0.0238683 31.99046985 -0.01790704 35.08442688 -0.00501633 C36.54820464 -0.00172075 38.01201974 -0.0056311 39.47575378 -0.01741409 C51.80401922 -0.09491795 62.30022139 2.04757107 71.41796875 10.86328125 C71.99160156 11.45753906 72.56523438 12.05179688 73.15625 12.6640625 C73.69894531 13.18613281 74.24164063 13.70820313 74.80078125 14.24609375 C83.41851096 23.21289605 84.91486183 34.25217975 84.8203125 46.1953125 C84.82369365 47.56189401 84.82855696 48.92847255 84.83480835 50.29504395 C84.84211906 53.13921139 84.83166596 55.982586 84.80810547 58.82666016 C84.77961883 62.4376464 84.79605472 66.0467736 84.82596779 69.65769196 C84.84420079 72.47370938 84.83821078 75.28929978 84.82532883 78.10533142 C84.82046159 80.07255285 84.83540935 82.0397922 84.85098267 84.00695801 C84.70597784 95.24673183 81.88975148 104.72127618 73.95703125 112.92578125 C73.36277344 113.49941406 72.76851563 114.07304688 72.15625 114.6640625 C71.63417969 115.20675781 71.11210938 115.74945313 70.57421875 116.30859375 C61.22706226 125.29187067 49.66022933 126.42752365 37.3125 126.328125 C35.81139739 126.33150461 34.31029748 126.33636667 32.8092041 126.34262085 C29.68259297 126.34993861 26.55670227 126.33945435 23.43017578 126.31591797 C19.45604328 126.28743175 15.4835999 126.30386362 11.50952911 126.33378029 C8.41558489 126.3519933 5.32203015 126.34603204 2.22807312 126.33314133 C0.76429536 126.32984575 -0.69951974 126.3337561 -2.16325378 126.34553909 C-14.49151922 126.42304295 -24.98772139 124.28055393 -34.10546875 115.46484375 C-34.67910156 114.87058594 -35.25273438 114.27632813 -35.84375 113.6640625 C-36.38644531 113.14199219 -36.92914063 112.61992188 -37.48828125 112.08203125 C-46.10601096 103.11522895 -47.60236183 92.07594525 -47.5078125 80.1328125 C-47.51119365 78.76623099 -47.51605696 77.39965245 -47.52230835 76.03308105 C-47.52961906 73.18891361 -47.51916596 70.345539 -47.49560547 67.50146484 C-47.46711883 63.8904786 -47.48355472 60.2813514 -47.51346779 56.67043304 C-47.53170079 53.85441562 -47.52571078 51.03882522 -47.51282883 48.22279358 C-47.50796159 46.25557215 -47.52290935 44.2883328 -47.53848267 42.32116699 C-47.39347784 31.08139317 -44.57725148 21.60684882 -36.64453125 13.40234375 C-35.75314453 12.54189453 -35.75314453 12.54189453 -34.84375 11.6640625 C-34.32167969 11.12136719 -33.79960938 10.57867187 -33.26171875 10.01953125 C-23.91456226 1.03625433 -12.34772933 -0.09939865 0 0 Z " fill="#F97316" transform="translate(46.84375,-0.6640625)"/>
<path d="M0 0 C2.78930664 0.421875 2.78930664 0.421875 4.78930664 2.421875 C4.43700663 11.75782541 0.71918202 20.64066145 -2.21069336 29.421875 C-1.34790771 29.40616455 -0.48512207 29.3904541 0.40380859 29.37426758 C3.60739931 29.32311545 6.81078179 29.2855134 10.01464844 29.25708008 C11.40078584 29.24200103 12.78687558 29.2215345 14.17285156 29.19555664 C16.1658881 29.15913784 18.15927387 29.14374482 20.15258789 29.12890625 C21.35181885 29.1131958 22.5510498 29.09748535 23.78662109 29.08129883 C26.78930664 29.421875 26.78930664 29.421875 28.66503906 30.7409668 C30.70727604 33.79434391 30.37441237 35.85273006 29.78930664 39.421875 C24.54369985 47.08844529 16.75891176 53.53227375 10.16430664 60.046875 C7.93996282 62.24440412 5.71911454 64.44538343 3.50024414 66.6484375 C3.00116547 67.13921783 2.50208679 67.62999817 1.98788452 68.13565063 C-0.4524699 70.55912498 -2.71427859 73.02062412 -4.8371582 75.72021484 C-7.21069336 78.421875 -7.21069336 78.421875 -10.89819336 79.421875 C-11.99131836 79.421875 -13.08444336 79.421875 -14.21069336 79.421875 C-16.21069336 77.421875 -16.21069336 77.421875 -16.52319336 73.921875 C-16.39340884 68.79538667 -14.85374089 64.24000086 -13.21069336 59.421875 C-12.78143555 58.11669922 -12.78143555 58.11669922 -12.34350586 56.78515625 C-11.64301544 54.66033532 -10.9319837 52.53970622 -10.21069336 50.421875 C-11.45157715 50.46115112 -11.45157715 50.46115112 -12.7175293 50.5012207 C-16.46505754 50.60514331 -20.21228286 50.67018989 -23.96069336 50.734375 C-25.26264648 50.77626953 -26.56459961 50.81816406 -27.90600586 50.86132812 C-29.15639648 50.87744141 -30.40678711 50.89355469 -31.69506836 50.91015625 C-32.84716797 50.93634033 -33.99926758 50.96252441 -35.1862793 50.98950195 C-38.21069336 50.421875 -38.21069336 50.421875 -40.58642578 48.05029297 C-42.41992264 45.08329655 -42.90964414 43.82993736 -42.21069336 40.421875 C-40.48803711 38.24609375 -40.48803711 38.24609375 -38.14819336 36.109375 C-35.30516575 33.48018194 -32.6447945 30.81433587 -30.12475586 27.87890625 C-25.66947659 22.7309717 -20.95980671 17.84152288 -16.18554688 12.99169922 C-15.15259005 11.93692514 -14.12595932 10.87592183 -13.10546875 9.80908203 C-11.6118632 8.24865541 -10.0995516 6.7087688 -8.58178711 5.171875 C-7.69418701 4.25921875 -6.80658691 3.3465625 -5.89208984 2.40625 C-3.21069336 0.421875 -3.21069336 0.421875 0 0 Z " fill="#FEFBF8" transform="translate(73.210693359375,23.578125)"/>
<path d="M0 0 C1 2 1 2 0.44140625 3.91796875 C0.15136719 4.66691406 -0.13867188 5.41585937 -0.4375 6.1875 C-1.86254766 10.29110948 -2.60148543 13.61774903 -2 18 C0.13796359 20.80457227 1.34383229 21.87390933 4.84082031 22.54589844 C6.44328613 22.57731934 6.44328613 22.57731934 8.078125 22.609375 C9.81835938 22.65771484 9.81835938 22.65771484 11.59375 22.70703125 C13.40359375 22.72830078 13.40359375 22.72830078 15.25 22.75 C16.47203125 22.77964844 17.6940625 22.80929688 18.953125 22.83984375 C21.96881644 22.91052402 24.9837355 22.96323175 28 23 C25.26430312 27.36247959 22.26410224 31.01007568 18.578125 34.6171875 C18.07327576 35.11920685 17.56842651 35.6212262 17.04827881 36.13845825 C15.45353414 37.72211415 13.85193956 39.29862587 12.25 40.875 C11.15969338 41.95526219 10.0698451 43.0359872 8.98046875 44.1171875 C6.32558666 46.75015952 3.66451897 49.37677662 1 52 C-0.1552715 48.53418551 0.18449378 47.99340327 1.5 44.75 C3.01902899 40.47860198 3.27316891 37.45609118 2 33 C-1.48678936 30.67547376 -3.06967571 30.70226266 -7.19921875 30.5859375 C-8.40771484 30.54726562 -9.61621094 30.50859375 -10.86132812 30.46875 C-12.12396484 30.4378125 -13.38660156 30.406875 -14.6875 30.375 C-15.96173828 30.33632812 -17.23597656 30.29765625 -18.54882812 30.2578125 C-21.69907292 30.16342314 -24.84930991 30.0778417 -28 30 C-23.82509376 25.07005753 -19.54230046 20.2758678 -15.125 15.5625 C-14.5151123 14.91015381 -13.90522461 14.25780762 -13.27685547 13.58569336 C-8.94184126 8.96470861 -4.54389629 4.41689297 0 0 Z " fill="#F9751A" transform="translate(67,37)"/>
</svg>
