<?xml version="1.0" encoding="UTF-8"?>
<svg version="1.1" xmlns="http://www.w3.org/2000/svg" width="146" height="146">
<path d="M0 0 C48.18 0 96.36 0 146 0 C146 48.18 146 96.36 146 146 C97.82 146 49.64 146 0 146 C0 97.82 0 49.64 0 0 Z " fill="#020202" transform="translate(0,0)"/>
<path d="M0 0 C0.73541016 0.00202423 1.47082031 0.00404846 2.22851562 0.00613403 C2.97939453 0.00517731 3.73027344 0.00422058 4.50390625 0.00323486 C6.09440189 0.00255315 7.6849003 0.00440682 9.27539062 0.00857544 C11.71816217 0.01392386 14.16074984 0.00863019 16.60351562 0.00222778 C18.1451827 0.00288857 19.68684966 0.00416973 21.22851562 0.00613403 C21.96392578 0.0041098 22.69933594 0.00208557 23.45703125 0 C28.61356402 0.02399493 28.61356402 0.02399493 29.72851562 1.13894653 C29.82943038 3.72084099 29.86823061 6.27541154 29.86132812 8.85769653 C29.86228485 9.63077148 29.86324158 10.40384644 29.86422729 11.2003479 C29.86490903 12.83792197 29.86305519 14.47549872 29.85888672 16.11306763 C29.85353834 18.62826574 29.85883189 21.14328527 29.86523438 23.65847778 C29.86457359 25.24571776 29.86329243 26.83295763 29.86132812 28.42019653 C29.86335236 29.17748047 29.86537659 29.9347644 29.86746216 30.71499634 C29.84346694 36.02399522 29.84346694 36.02399522 28.72851562 37.13894653 C26.21927409 37.23981865 23.73815179 37.27866686 21.22851562 37.27175903 C20.47763672 37.27271576 19.72675781 37.27367249 18.953125 37.2746582 C17.36262936 37.27533991 15.77213095 37.27348625 14.18164062 37.26931763 C11.73886908 37.2639692 9.29628141 37.26926287 6.85351562 37.27566528 C5.31184855 37.2750045 3.77018159 37.27372333 2.22851562 37.27175903 C1.49310547 37.27378326 0.75769531 37.2758075 0 37.27789307 C-5.15653277 37.25389814 -5.15653277 37.25389814 -6.27148438 36.13894653 C-6.37239913 33.55705207 -6.41119936 31.00248153 -6.40429688 28.42019653 C-6.4052536 27.64712158 -6.40621033 26.87404663 -6.40719604 26.07754517 C-6.40787778 24.4399711 -6.40602394 22.80239434 -6.40185547 21.16482544 C-6.39650709 18.64962733 -6.40180064 16.1346078 -6.40820312 13.61941528 C-6.40754234 12.0321753 -6.40626118 10.44493544 -6.40429688 8.85769653 C-6.40632111 8.1004126 -6.40834534 7.34312866 -6.41043091 6.56289673 C-6.38239397 0.35965634 -6.21933996 0.02894049 0 0 Z " fill="#040106" transform="translate(20.271484375,95.86105346679688)"/>
<path d="M0 0 C0.75728394 0.00202423 1.51456787 0.00404846 2.2947998 0.00613403 C3.06787476 0.00517731 3.84094971 0.00422058 4.63745117 0.00323486 C6.27502524 0.00255313 7.91260199 0.00440697 9.5501709 0.00857544 C12.06536901 0.01392382 14.58038854 0.00863027 17.09558105 0.00222778 C18.68282103 0.00288857 20.2700609 0.00416973 21.8572998 0.00613403 C22.99322571 0.00309769 22.99322571 0.00309769 24.15209961 0 C29.46109849 0.02399522 29.46109849 0.02399522 30.5760498 1.13894653 C30.67692192 3.64818807 30.71577013 6.12931037 30.7088623 8.63894653 C30.70981903 9.38982544 30.71077576 10.14070435 30.71176147 10.91433716 C30.71244319 12.5048328 30.71058952 14.09533121 30.7064209 15.68582153 C30.70107247 18.12859308 30.70636614 20.57118075 30.71276855 23.01394653 C30.71210777 24.55561361 30.71082661 26.09728057 30.7088623 27.63894653 C30.71088654 28.37435669 30.71291077 29.10976685 30.71499634 29.86746216 C30.69100141 35.02399493 30.69100141 35.02399493 29.5760498 36.13894653 C26.99415534 36.23986129 24.4395848 36.27866152 21.8572998 36.27175903 C20.69768738 36.27319412 20.69768738 36.27319412 19.51464844 36.2746582 C17.87707437 36.27533994 16.23949762 36.2734861 14.60192871 36.26931763 C12.0867306 36.26396925 9.57171107 36.2692628 7.05651855 36.27566528 C5.46927857 36.2750045 3.88203871 36.27372334 2.2947998 36.27175903 C1.53751587 36.27378326 0.78023193 36.2758075 0 36.27789307 C-5.30899888 36.25389785 -5.30899888 36.25389785 -6.4239502 35.13894653 C-6.52482231 32.629705 -6.56367052 30.14858269 -6.5567627 27.63894653 C-6.55771942 26.88806763 -6.55867615 26.13718872 -6.55966187 25.36355591 C-6.56034358 23.77306027 -6.55848991 22.18256186 -6.55432129 20.59207153 C-6.54897286 18.14929999 -6.55426653 15.70671232 -6.56066895 13.26394653 C-6.56000816 11.72227946 -6.558727 10.1806125 -6.5567627 8.63894653 C-6.55878693 7.90353638 -6.56081116 7.16812622 -6.56289673 6.41043091 C-6.53395623 0.19109094 -6.20324039 0.02803694 0 0 Z " fill="#040005" transform="translate(103.4239501953125,12.861053466796875)"/>
<path d="M0 0 C0.82593155 -0.00478363 1.6518631 -0.00956726 2.50282288 -0.01449585 C4.24693713 -0.01789317 5.9911152 -0.00870222 7.73510742 0.01220703 C10.3984256 0.03894473 13.05751699 0.01247524 15.72070312 -0.01953125 C17.41797802 -0.01622645 19.11525029 -0.00981876 20.8125 0 C22.00177345 -0.01518173 22.00177345 -0.01518173 23.21507263 -0.03067017 C27.21438512 0.05365407 29.08013845 0.39837238 32.47460938 2.69604492 C34.99329528 6.43745066 35.1794653 9.45168982 35.1015625 13.81640625 C35.10397446 14.59415909 35.10638641 15.37191193 35.10887146 16.17323303 C35.10789493 17.81305047 35.09454739 19.45290165 35.06958008 21.0925293 C35.03530348 23.59083147 35.04891946 26.08558609 35.06835938 28.58398438 C35.06145905 30.18230661 35.05178496 31.78061976 35.0390625 33.37890625 C35.04402237 34.11970932 35.04898224 34.86051239 35.05409241 35.62376404 C34.93898044 40.74216535 34.11372031 43.99930234 30.47265625 47.6640625 C27.53908709 48.52143572 24.73095449 48.48243769 21.69140625 48.42578125 C20.41565735 48.43083427 20.41565735 48.43083427 19.11413574 48.43598938 C17.31870466 48.43569081 15.52322244 48.42046782 13.72802734 48.39135742 C10.98116375 48.35168537 8.23913016 48.37064412 5.4921875 48.39648438 C3.74607504 48.38892488 1.99997328 48.37797102 0.25390625 48.36328125 C-0.56597778 48.37026535 -1.38586182 48.37724945 -2.23059082 48.38444519 C-6.11180888 48.28843316 -7.94763394 48.12916935 -11.04296875 45.64575195 C-12.94981661 41.81543405 -13.10275454 38.44561746 -13.05859375 34.2578125 C-13.06242065 33.45549194 -13.06624756 32.65317139 -13.07019043 31.82653809 C-13.07290427 30.13548523 -13.06557999 28.44439002 -13.04882812 26.75341797 C-13.02740874 24.17189534 -13.04864536 21.5931553 -13.07421875 19.01171875 C-13.07157538 17.36457722 -13.0664502 15.71743741 -13.05859375 14.0703125 C-13.06669067 13.30247437 -13.0747876 12.53463623 -13.08312988 11.74353027 C-13.02258531 8.26579603 -12.59494718 5.79852126 -11.02709961 2.68017578 C-7.51759175 -0.1503268 -4.32228966 -0.0550359 0 0 Z M-7.52734375 6.6640625 C-7.6282585 9.24595696 -7.66705874 11.8005275 -7.66015625 14.3828125 C-7.66111298 15.15588745 -7.6620697 15.9289624 -7.66305542 16.72546387 C-7.66373716 18.36303794 -7.66188332 20.00061469 -7.65771484 21.63818359 C-7.65236646 24.15338171 -7.65766001 26.66840123 -7.6640625 29.18359375 C-7.66340172 30.77083373 -7.66212055 32.3580736 -7.66015625 33.9453125 C-7.66218048 34.70259644 -7.66420471 35.45988037 -7.66629028 36.2401123 C-7.97188059 39.74421813 -7.97188059 39.74421813 -6.52734375 42.6640625 C-4.01810222 42.76493462 -1.53697991 42.80378282 0.97265625 42.796875 C2.09897461 42.79831009 2.09897461 42.79831009 3.24804688 42.79977417 C4.83854252 42.80045588 6.42904092 42.79860222 8.01953125 42.79443359 C10.4623028 42.78908517 12.90489046 42.79437884 15.34765625 42.80078125 C16.88932332 42.80012047 18.43099028 42.7988393 19.97265625 42.796875 C20.70806641 42.79889923 21.44347656 42.80092346 22.20117188 42.80300903 C25.62511967 43.09462763 25.62511967 43.09462763 28.47265625 41.6640625 C28.573571 39.08216804 28.61237124 36.5275975 28.60546875 33.9453125 C28.60642548 33.17223755 28.6073822 32.3991626 28.60836792 31.60266113 C28.60904966 29.96508706 28.60719582 28.32751031 28.60302734 26.68994141 C28.59767896 24.17474329 28.60297251 21.65972377 28.609375 19.14453125 C28.60871422 17.55729127 28.60743305 15.9700514 28.60546875 14.3828125 C28.60749298 13.62552856 28.60951721 12.86824463 28.61160278 12.0880127 C28.91719309 8.58390687 28.91719309 8.58390687 27.47265625 5.6640625 C24.96341472 5.56319038 22.48229241 5.52434218 19.97265625 5.53125 C19.22177734 5.53029327 18.47089844 5.52933655 17.69726562 5.52835083 C16.10676998 5.52766912 14.51627158 5.52952278 12.92578125 5.53369141 C10.4830097 5.53903983 8.04042204 5.53374616 5.59765625 5.52734375 C4.05598918 5.52800453 2.51432222 5.5292857 0.97265625 5.53125 C0.23724609 5.52922577 -0.49816406 5.52720154 -1.25585938 5.52511597 C-4.67980717 5.23349737 -4.67980717 5.23349737 -7.52734375 6.6640625 Z " fill="#9C0BAB" transform="translate(21.52734375,90.3359375)"/>
<path d="M0 0 C0.82593155 -0.00478363 1.6518631 -0.00956726 2.50282288 -0.01449585 C4.24693713 -0.01789317 5.9911152 -0.00870222 7.73510742 0.01220703 C10.3984256 0.03894473 13.05751699 0.01247524 15.72070312 -0.01953125 C17.41797802 -0.01622645 19.11525029 -0.00981876 20.8125 0 C22.00177345 -0.01518173 22.00177345 -0.01518173 23.21507263 -0.03067017 C27.21384798 0.05364274 29.07921789 0.3975542 32.47241211 2.69604492 C34.99052947 6.43249711 35.19616079 9.45374484 35.13671875 13.81640625 C35.14150238 14.59415909 35.14628601 15.37191193 35.1512146 16.17323303 C35.15460669 17.8130191 35.14545241 19.45287343 35.12451172 21.0925293 C35.09776685 23.59122961 35.12425819 26.08542429 35.15625 28.58398438 C35.15294506 30.18230151 35.14653708 31.78061586 35.13671875 33.37890625 C35.1468399 34.11970932 35.15696106 34.86051239 35.16738892 35.62376404 C35.08488943 39.30964617 34.56563492 42.12526085 32.47241211 45.13427734 C28.48522068 48.49679688 25.8765183 48.52339197 20.8125 48.42578125 C19.57216759 48.43083427 19.57216759 48.43083427 18.30677795 48.43598938 C16.56439981 48.43569124 14.82196828 48.42050842 13.07983398 48.39135742 C10.41422598 48.35162316 7.75358221 48.37067071 5.08789062 48.39648438 C3.39190781 48.38892621 1.69593601 48.37797368 0 48.36328125 C-1.1923098 48.3737574 -1.1923098 48.3737574 -2.40870667 48.38444519 C-6.07877686 48.29082082 -8.13951519 47.97719647 -11.02709961 45.64575195 C-12.95404002 41.81601668 -13.10282501 38.45230076 -13.05859375 34.2578125 C-13.06242065 33.45549194 -13.06624756 32.65317139 -13.07019043 31.82653809 C-13.07290427 30.13548523 -13.06557999 28.44439002 -13.04882812 26.75341797 C-13.02740874 24.17189534 -13.04864536 21.5931553 -13.07421875 19.01171875 C-13.07157538 17.36457722 -13.0664502 15.71743741 -13.05859375 14.0703125 C-13.06669067 13.30247437 -13.0747876 12.53463623 -13.08312988 11.74353027 C-13.02258531 8.26579603 -12.59494718 5.79852126 -11.02709961 2.68017578 C-7.51759175 -0.1503268 -4.32228966 -0.0550359 0 0 Z M-7.52734375 6.6640625 C-7.62821587 9.17330403 -7.66706407 11.65442634 -7.66015625 14.1640625 C-7.66111298 14.91494141 -7.6620697 15.66582031 -7.66305542 16.43945312 C-7.66373713 18.02994877 -7.66188347 19.62044717 -7.65771484 21.2109375 C-7.65236642 23.65370905 -7.65766009 26.09629671 -7.6640625 28.5390625 C-7.66340172 30.08072957 -7.66212055 31.62239653 -7.66015625 33.1640625 C-7.66218048 33.89947266 -7.66420471 34.63488281 -7.66629028 35.39257812 C-7.95790888 38.81652592 -7.95790888 38.81652592 -6.52734375 41.6640625 C-3.94544929 41.76497725 -1.39087875 41.80377749 1.19140625 41.796875 C2.35101868 41.79831009 2.35101868 41.79831009 3.53405762 41.79977417 C5.17163169 41.80045591 6.80920844 41.79860207 8.44677734 41.79443359 C10.96197546 41.78908521 13.47699498 41.79437876 15.9921875 41.80078125 C17.57942748 41.80012047 19.16666735 41.7988393 20.75390625 41.796875 C21.51119019 41.79889923 22.26847412 41.80092346 23.04870605 41.80300903 C26.55281188 42.10859934 26.55281188 42.10859934 29.47265625 40.6640625 C29.57352837 38.15482097 29.61237657 35.67369866 29.60546875 33.1640625 C29.60642548 32.41318359 29.6073822 31.66230469 29.60836792 30.88867188 C29.60904963 29.29817623 29.60719597 27.70767783 29.60302734 26.1171875 C29.59767892 23.67441595 29.60297259 21.23182829 29.609375 18.7890625 C29.60871422 17.24739543 29.60743305 15.70572847 29.60546875 14.1640625 C29.60749298 13.42865234 29.60951721 12.69324219 29.61160278 11.93554688 C29.90322138 8.51159908 29.90322138 8.51159908 28.47265625 5.6640625 C25.89076179 5.56314775 23.33619125 5.52434751 20.75390625 5.53125 C19.9808313 5.53029327 19.20775635 5.52933655 18.41125488 5.52835083 C16.77368081 5.52766909 15.13610406 5.52952293 13.49853516 5.53369141 C10.98333704 5.53903979 8.46831752 5.53374624 5.953125 5.52734375 C4.36588502 5.52800453 2.77864515 5.5292857 1.19140625 5.53125 C0.43412231 5.52922577 -0.32316162 5.52720154 -1.10339355 5.52511597 C-4.60749938 5.21952566 -4.60749938 5.21952566 -7.52734375 6.6640625 Z " fill="#930BA2" transform="translate(104.52734375,7.3359375)"/>
<path d="M0 0 C0 1.65 0 3.3 0 5 C-0.78375 5.2475 -1.5675 5.495 -2.375 5.75 C-5.49025051 7.23345262 -5.84332063 7.82493118 -7 11 C-7.30739906 14.158766 -7.30739906 14.158766 -7.27124023 17.70874023 C-7.27646698 18.37428925 -7.28169373 19.03983826 -7.28707886 19.72555542 C-7.29729721 21.16655058 -7.30309548 22.60758242 -7.30496025 24.04861259 C-7.30863044 26.33141604 -7.32537415 28.61378759 -7.34571838 30.89649963 C-7.40107044 37.38510096 -7.43181285 43.87376536 -7.45629883 50.36254883 C-7.47219299 54.33545809 -7.50242963 58.3080597 -7.54106331 62.2808094 C-7.55269541 63.79220369 -7.5586435 65.30365304 -7.55874443 66.81509209 C-7.55893697 68.93100905 -7.577237 71.04608001 -7.59936523 73.16186523 C-7.60443588 74.36447495 -7.60950653 75.56708466 -7.61473083 76.80613708 C-8.04107514 80.34051096 -8.82957147 82.19885099 -11 85 C-14.53033392 86.82820864 -17.01080638 88 -21 88 C-21 86.35 -21 84.7 -21 83 C-19.824375 82.5978125 -19.824375 82.5978125 -18.625 82.1875 C-15.71885077 81.15185568 -15.71885077 81.15185568 -14 78 C-13.69714387 74.90685499 -13.69714387 74.90685499 -13.74462891 71.32885742 C-13.74100845 70.65530716 -13.737388 69.9817569 -13.73365784 69.28779602 C-13.72676815 67.82604005 -13.7242576 66.36425838 -13.72560501 64.9024868 C-13.72657066 62.58588169 -13.71362301 60.26974008 -13.69662476 57.95320129 C-13.65036979 51.36719375 -13.62575599 44.78123272 -13.61914062 38.19506836 C-13.61411657 34.16489306 -13.5898197 30.13520011 -13.55381393 26.10518837 C-13.54403438 24.57228814 -13.54167394 23.03932138 -13.54698563 21.50639915 C-13.55408298 19.35685353 -13.53672142 17.20873689 -13.51416016 15.05932617 C-13.51131012 13.83815598 -13.50846008 12.61698578 -13.50552368 11.35881042 C-12.89506715 7.30280308 -11.60571777 5.14041771 -9 2 C-5.88698418 0.8192009 -3.33306733 0 0 0 Z " fill="#F3F5F6" transform="translate(84,29)"/>
<path d="M0 0 C1.05692047 0.00424484 1.05692047 0.00424484 2.13519287 0.00857544 C4.3767626 0.01973449 6.61792686 0.04483057 8.859375 0.0703125 C10.38280671 0.08034786 11.90624471 0.08947274 13.4296875 0.09765625 C17.15638086 0.11965959 20.88283833 0.15415978 24.609375 0.1953125 C24.609375 1.1853125 24.609375 2.1753125 24.609375 3.1953125 C23.70582275 3.22036865 22.80227051 3.2454248 21.87133789 3.27124023 C18.5297322 3.36618567 15.18831248 3.46542871 11.84692383 3.56762695 C10.3987326 3.6110288 8.95048846 3.65269994 7.50219727 3.69262695 C5.42447941 3.75020312 3.34702927 3.81393278 1.26953125 3.87890625 C0.01793213 3.91556396 -1.23366699 3.95222168 -2.52319336 3.98999023 C-5.28693004 3.87335156 -5.28693004 3.87335156 -6.390625 5.1953125 C-6.5012084 7.66754627 -6.55221976 10.11657367 -6.56640625 12.58984375 C-6.58960977 14.11785224 -6.61372733 15.64584707 -6.63867188 17.17382812 C-6.67376736 19.59001724 -6.70311329 22.00570639 -6.71655273 24.42211914 C-6.73204148 26.74948227 -6.77226066 29.07537073 -6.81640625 31.40234375 C-6.81449783 32.12227005 -6.81258942 32.84219635 -6.81062317 33.5839386 C-6.89727052 37.14198291 -7.13848853 38.88730024 -9.42651367 41.68237305 C-10.07467041 42.18164307 -10.72282715 42.68091309 -11.390625 43.1953125 C-12.9946065 39.9873495 -12.53243278 36.49930972 -12.5234375 32.9765625 C-12.52439423 32.16288208 -12.52535095 31.34920166 -12.52633667 30.51086426 C-12.52701763 28.78930585 -12.52516917 27.06774489 -12.52099609 25.34619141 C-12.51564665 22.70599621 -12.52094389 20.06597114 -12.52734375 17.42578125 C-12.52668295 15.75520796 -12.52540176 14.08463477 -12.5234375 12.4140625 C-12.52546173 11.62132935 -12.52748596 10.82859619 -12.52957153 10.01184082 C-12.50558514 4.42523277 -12.50558514 4.42523277 -11.390625 2.1953125 C-7.77836388 -0.31607954 -4.28822542 -0.03403354 0 0 Z " fill="#A10FB3" transform="translate(21.390625,91.8046875)"/>
<path d="M0 0 C0.33 0 0.66 0 1 0 C1.33 10.56 1.66 21.12 2 32 C13.88 32 25.76 32 38 32 C38.495 34.97 38.495 34.97 39 38 C36.14950187 40.85049813 25.94662606 39.32298677 21.90893555 39.35009766 C20.09988536 39.36665127 18.29090041 39.3939337 16.48217773 39.43212891 C13.87709549 39.48688253 11.27354883 39.50876915 8.66796875 39.5234375 C7.86054733 39.54610687 7.05312592 39.56877625 6.22123718 39.59213257 C2.27407808 39.57727695 0.4267915 39.39292701 -2.52612305 36.67431641 C-4.25530918 33.53674727 -4.32839282 31.53022285 -4 28 C-2.515 28.99 -2.515 28.99 -1 30 C-0.67 20.1 -0.34 10.2 0 0 Z " fill="#9209A0" transform="translate(96,16)"/>
<path d="M0 0 C1.74023438 0.00966797 1.74023438 0.00966797 3.515625 0.01953125 C4.7221875 0.03628906 5.92875 0.05304687 7.171875 0.0703125 C9.00492188 0.08384766 9.00492188 0.08384766 10.875 0.09765625 C13.89082282 0.12121737 16.90624992 0.15411544 19.921875 0.1953125 C19.921875 1.1853125 19.921875 2.1753125 19.921875 3.1953125 C19.20531738 3.20989502 18.48875977 3.22447754 17.75048828 3.23950195 C14.51539517 3.3138025 11.28135481 3.41052111 8.046875 3.5078125 C6.91894531 3.53037109 5.79101562 3.55292969 4.62890625 3.57617188 C3.55253906 3.61162109 2.47617188 3.64707031 1.3671875 3.68359375 C-0.12530518 3.72286987 -0.12530518 3.72286987 -1.64794922 3.76293945 C-2.44990723 3.90562256 -3.25186523 4.04830566 -4.078125 4.1953125 C-6.44881412 7.75134618 -6.42277608 10.37524595 -6.4921875 14.48828125 C-6.51155365 15.19430984 -6.5309198 15.90033844 -6.5508728 16.62776184 C-6.61057724 18.87932311 -6.6570164 21.13093578 -6.703125 23.3828125 C-6.74131329 24.91082939 -6.78036552 26.43882495 -6.8203125 27.96679688 C-6.91627096 31.70946185 -7.00033511 35.4522276 -7.078125 39.1953125 C-8.068125 38.8653125 -9.058125 38.5353125 -10.078125 38.1953125 C-11.24871569 34.68354043 -11.20764808 31.89600007 -11.2109375 28.19140625 C-11.21189423 27.51231705 -11.21285095 26.83322784 -11.21383667 26.13356018 C-11.21451624 24.70044868 -11.21267753 23.26733408 -11.20849609 21.83422852 C-11.20313635 19.63746256 -11.20845282 17.44090029 -11.21484375 15.24414062 C-11.21418309 13.85156205 -11.21290218 12.4589836 -11.2109375 11.06640625 C-11.20980957 9.79724365 -11.20868164 8.52808105 -11.20751953 7.22045898 C-11.078125 4.1953125 -11.078125 4.1953125 -10.078125 2.1953125 C-6.74435507 -0.00946454 -3.93319416 -0.03856073 0 0 Z " fill="#AA08BD" transform="translate(103.078125,8.8046875)"/>
<path d="M0 0 C0.82876144 -0.00902847 1.65752289 -0.01805695 2.51139832 -0.02735901 C4.26740904 -0.04188122 6.02347412 -0.05075313 7.77954102 -0.05444336 C10.46008309 -0.06631596 13.1383052 -0.11545787 15.81835938 -0.16601562 C17.52472835 -0.1754826 19.23111147 -0.18271632 20.9375 -0.1875 C21.73662308 -0.20703232 22.53574615 -0.22656464 23.35908508 -0.24668884 C27.38253345 -0.21425533 29.25387099 0.09473798 32.68310547 2.38330078 C35.22468431 6.20911158 35.30656499 9.29798573 35.15625 13.734375 C35.14917526 14.52635788 35.14210052 15.31834076 35.1348114 16.13432312 C35.10693119 18.65172764 35.04421075 21.16686731 34.98046875 23.68359375 C34.95537736 25.39515005 34.93256566 27.1067414 34.91210938 28.81835938 C34.85712622 33.00347029 34.77090293 37.18689871 34.66796875 41.37109375 C34.33796875 41.37109375 34.00796875 41.37109375 33.66796875 41.37109375 C33.17296875 24.04609375 33.17296875 24.04609375 32.66796875 6.37109375 C32.00796875 6.37109375 31.34796875 6.37109375 30.66796875 6.37109375 C30.33796875 17.59109375 30.00796875 28.81109375 29.66796875 40.37109375 C29.33796875 40.37109375 29.00796875 40.37109375 28.66796875 40.37109375 C28.33796875 29.15109375 28.00796875 17.93109375 27.66796875 6.37109375 C16.77796875 6.04109375 5.88796875 5.71109375 -5.33203125 5.37109375 C-5.33203125 5.04109375 -5.33203125 4.71109375 -5.33203125 4.37109375 C9.51796875 3.87609375 9.51796875 3.87609375 24.66796875 3.37109375 C24.66796875 3.04109375 24.66796875 2.71109375 24.66796875 2.37109375 C23.7143042 2.37109375 22.76063965 2.37109375 21.77807617 2.37109375 C11.07470703 2.37109375 0.37133789 2.37109375 -10.33203125 2.37109375 C-7.34304791 -0.61788959 -4.01097897 0.02671361 0 0 Z " fill="#800A8D" transform="translate(21.33203125,90.62890625)"/>
<path d="M0 0 C0.99 0.33 1.98 0.66 3 1 C3.04935824 6.23273331 3.08569949 11.46533176 3.10986328 16.69824219 C3.11993431 18.47919067 3.13359185 20.26012257 3.15087891 22.04101562 C3.17507913 24.59769783 3.18647184 27.15416185 3.1953125 29.7109375 C3.20563507 30.50994476 3.21595764 31.30895203 3.22659302 32.13217163 C3.22699226 34.0895722 3.12241069 36.04643077 3 38 C2.34 38.66 1.68 39.32 1 40 C0.01 40 -0.98 40 -2 40 C-1.83628906 39.5052417 -1.67257813 39.0104834 -1.50390625 38.50073242 C-0.79826225 34.99883731 -0.89773159 31.54323463 -0.9375 27.98828125 C-0.94128662 27.21945114 -0.94507324 26.45062103 -0.94897461 25.65849304 C-0.96116698 23.20977111 -0.97980876 20.76116825 -1 18.3125 C-1.02648765 15.07943053 -1.04651658 11.84641773 -1.0625 8.61328125 C-1.07079834 7.86540848 -1.07909668 7.11753571 -1.08764648 6.34700012 C-1.0962081 4.56444788 -1.0533266 2.78177498 -1 1 C-0.67 0.67 -0.34 0.34 0 0 Z " fill="#B211C5" transform="translate(52,96)"/>
<path d="M0 0 C0.33 0 0.66 0 1 0 C1 12.21 1 24.42 1 37 C-0.32 37.66 -1.64 38.32 -3 39 C-3.04937279 34.33692986 -3.08570627 29.67401127 -3.10986328 25.01074219 C-3.11993188 23.42380117 -3.13358767 21.83687875 -3.15087891 20.25 C-3.17509001 17.97130753 -3.18647422 15.69285994 -3.1953125 13.4140625 C-3.20563507 12.70255035 -3.21595764 11.99103821 -3.22659302 11.25796509 C-3.22699422 9.50368335 -3.12202209 7.75003291 -3 6 C-2.34 5.34 -1.68 4.68 -1 4 C-0.3574765 1.93125966 -0.3574765 1.93125966 0 0 Z " fill="#B40DC2" transform="translate(137,14)"/>
<path d="M0 0 C0 9.24 0 18.48 0 28 C-0.99 27.67 -1.98 27.34 -3 27 C-3.33 27.99 -3.66 28.98 -4 30 C-4.07409401 26.04907941 -4.12857406 22.09842706 -4.16479492 18.14697266 C-4.18732251 16.14080626 -4.2254357 14.13483474 -4.26367188 12.12890625 C-4.27333984 10.87207031 -4.28300781 9.61523438 -4.29296875 8.3203125 C-4.3086792 7.15773926 -4.32438965 5.99516602 -4.34057617 4.79736328 C-4.22818604 3.8742334 -4.1157959 2.95110352 -4 2 C-1 0 -1 0 0 0 Z " fill="#B311CC" transform="translate(13,98)"/>
<path d="M0 0 C1.01771484 0.00451172 2.03542969 0.00902344 3.08398438 0.01367188 C5.57688509 0.02537563 8.06966074 0.04177152 10.5625 0.0625 C10.5625 1.0525 10.5625 2.0425 10.5625 3.0625 C0.6625 3.0625 -9.2375 3.0625 -19.4375 3.0625 C-19.1075 2.4025 -18.7775 1.7425 -18.4375 1.0625 C-12.34954555 -0.26532546 -6.20377757 -0.05247177 0 0 Z " fill="#AC0BBC" transform="translate(35.4375,91.9375)"/>
<path d="M0 0 C0.33 0 0.66 0 1 0 C1 10.89 1 21.78 1 33 C0.01 32.67 -0.98 32.34 -2 32 C-2.89214652 29.32356043 -3.13540211 27.74615622 -3.125 25 C-3.12757812 24.319375 -3.13015625 23.63875 -3.1328125 22.9375 C-3 21 -3 21 -2 18 C-1.34 18 -0.68 18 0 18 C0 12.06 0 6.12 0 0 Z " fill="#B30CC7" transform="translate(95,15)"/>
<path d="M0 0 C0.33 0 0.66 0 1 0 C3.46254726 6.61809577 3.18935472 13.00439516 3 20 C2.34 20 1.68 20 1 20 C0.67 20.99 0.34 21.98 0 23 C0 15.41 0 7.82 0 0 Z " fill="#A40AB4" transform="translate(92,13)"/>
</svg>
